<?xml version="1.0" encoding="UTF-8" standalone="no"?><svg xmlns="http://www.w3.org/2000/svg" xmlns:xlink="http://www.w3.org/1999/xlink" contentScriptType="application/ecmascript" contentStyleType="text/css" height="545px" preserveAspectRatio="none" style="width:405px;height:545px;background:#FFFFFF;" version="1.1" viewBox="0 0 405 545" width="405px" zoomAndPan="magnify"><defs><filter height="300%" id="fxvmibcj9dudd" width="300%" x="-1" y="-1"><feGaussianBlur result="blurOut" stdDeviation="2.0"/><feColorMatrix in="blurOut" result="blurOut2" type="matrix" values="0 0 0 0 0 0 0 0 0 0 0 0 0 0 0 0 0 0 .4 0"/><feOffset dx="4.0" dy="4.0" in="blurOut2" result="blurOut3"/><feBlend in="SourceGraphic" in2="blurOut3" mode="normal"/></filter></defs><g><!--MD5=[29cc8a38e2d198bc9cc23f76217d9df9]
cluster DomainModel--><polygon fill="#FFFFFF" filter="url(#fxvmibcj9dudd)" points="16,6,118,6,125,29.6094,388,29.6094,388,538,16,538,16,6" style="stroke:#000000;stroke-width:1.5;"/><line style="stroke:#000000;stroke-width:1.5;" x1="16" x2="125" y1="29.6094" y2="29.6094"/><text fill="#000000" font-family="sans-serif" font-size="14" font-weight="bold" lengthAdjust="spacing" textLength="96" x="20" y="22.5332">DomainModel</text><!--MD5=[778487f16f078d4b2deaa9059ca1bee4]
class DomainModel.User--><rect codeLine="2" fill="#FEFECE" filter="url(#fxvmibcj9dudd)" height="48" id="DomainModel.User" style="stroke:#A80036;stroke-width:1.5;" width="59" x="231.5" y="42"/><ellipse cx="246.5" cy="58" fill="#ADD1B2" rx="11" ry="11" style="stroke:#A80036;stroke-width:1.0;"/><path d="M248.5,54.5 Q248.7031,54 248.9375,53.75 Q249.1719,53.5 249.4375,53.5 Q249.9063,53.5 250.2031,53.7813 Q250.5,54.0625 250.5,54.7188 L250.5,56.2813 Q250.5,56.9375 250.2188,57.2188 Q249.9375,57.5 249.5,57.5 Q249.1094,57.5 248.8594,57.3281 Q248.6094,57.1563 248.5,56.7031 Q248.4531,56.3906 248.2813,56.2188 Q247.9688,55.8906 247.4063,55.7031 Q246.8438,55.5 246.2813,55.5 Q245.5781,55.5 244.9844,55.7813 Q244.4063,56.0625 243.9531,56.6875 Q243.5,57.3125 243.5,58.1719 L243.5,59.0938 Q243.5,60.125 244.3438,60.8125 Q245.1875,61.5 246.6875,61.5 Q247.5781,61.5 248.2031,61.2969 Q248.5625,61.1875 248.9688,60.8281 Q249.2344,60.625 249.375,60.5625 Q249.5156,60.5 249.6875,60.5 Q250.0156,60.5 250.25,60.7656 Q250.5,61.0156 250.5,61.375 Q250.5,61.7188 250.1563,62.125 Q249.6563,62.7188 248.8594,63.0469 Q247.8125,63.5 246.5313,63.5 Q245.0313,63.5 243.8281,62.9063 Q242.8594,62.4375 242.1719,61.4219 Q241.5,60.4063 241.5,59.2031 L241.5,58.1094 Q241.5,56.8594 242.0938,55.7656 Q242.7031,54.6719 243.75,54.0938 Q244.8125,53.5 246,53.5 Q246.7188,53.5 247.3438,53.75 Q247.9688,54 248.5,54.5 Z " fill="#000000"/><text fill="#000000" font-family="sans-serif" font-size="12" lengthAdjust="spacing" textLength="27" x="260.5" y="62.9102">User</text><line style="stroke:#A80036;stroke-width:1.5;" x1="232.5" x2="289.5" y1="74" y2="74"/><line style="stroke:#A80036;stroke-width:1.5;" x1="232.5" x2="289.5" y1="82" y2="82"/><!--MD5=[edc546ff71991a8c9d2825e9c79480c2]
class DomainModel.Company--><rect codeLine="3" fill="#FEFECE" filter="url(#fxvmibcj9dudd)" height="48" id="DomainModel.Company" style="stroke:#A80036;stroke-width:1.5;" width="85" x="168.5" y="150"/><ellipse cx="183.5" cy="166" fill="#ADD1B2" rx="11" ry="11" style="stroke:#A80036;stroke-width:1.0;"/><path d="M185.5,162.5 Q185.7031,162 185.9375,161.75 Q186.1719,161.5 186.4375,161.5 Q186.9063,161.5 187.2031,161.7813 Q187.5,162.0625 187.5,162.7188 L187.5,164.2813 Q187.5,164.9375 187.2188,165.2188 Q186.9375,165.5 186.5,165.5 Q186.1094,165.5 185.8594,165.3281 Q185.6094,165.1563 185.5,164.7031 Q185.4531,164.3906 185.2813,164.2188 Q184.9688,163.8906 184.4063,163.7031 Q183.8438,163.5 183.2813,163.5 Q182.5781,163.5 181.9844,163.7813 Q181.4063,164.0625 180.9531,164.6875 Q180.5,165.3125 180.5,166.1719 L180.5,167.0938 Q180.5,168.125 181.3438,168.8125 Q182.1875,169.5 183.6875,169.5 Q184.5781,169.5 185.2031,169.2969 Q185.5625,169.1875 185.9688,168.8281 Q186.2344,168.625 186.375,168.5625 Q186.5156,168.5 186.6875,168.5 Q187.0156,168.5 187.25,168.7656 Q187.5,169.0156 187.5,169.375 Q187.5,169.7188 187.1563,170.125 Q186.6563,170.7188 185.8594,171.0469 Q184.8125,171.5 183.5313,171.5 Q182.0313,171.5 180.8281,170.9063 Q179.8594,170.4375 179.1719,169.4219 Q178.5,168.4063 178.5,167.2031 L178.5,166.1094 Q178.5,164.8594 179.0938,163.7656 Q179.7031,162.6719 180.75,162.0938 Q181.8125,161.5 183,161.5 Q183.7188,161.5 184.3438,161.75 Q184.9688,162 185.5,162.5 Z " fill="#000000"/><text fill="#000000" font-family="sans-serif" font-size="12" lengthAdjust="spacing" textLength="53" x="197.5" y="170.9102">Company</text><line style="stroke:#A80036;stroke-width:1.5;" x1="169.5" x2="252.5" y1="182" y2="182"/><line style="stroke:#A80036;stroke-width:1.5;" x1="169.5" x2="252.5" y1="190" y2="190"/><!--MD5=[23bd70fb4f58e0974e9f500eeaa4ffcd]
class DomainModel.Headquarter--><rect codeLine="4" fill="#FEFECE" filter="url(#fxvmibcj9dudd)" height="48" id="DomainModel.Headquarter" style="stroke:#A80036;stroke-width:1.5;" width="101" x="149.5" y="258"/><ellipse cx="164.5" cy="274" fill="#ADD1B2" rx="11" ry="11" style="stroke:#A80036;stroke-width:1.0;"/><path d="M166.5,270.5 Q166.7031,270 166.9375,269.75 Q167.1719,269.5 167.4375,269.5 Q167.9063,269.5 168.2031,269.7813 Q168.5,270.0625 168.5,270.7188 L168.5,272.2813 Q168.5,272.9375 168.2188,273.2188 Q167.9375,273.5 167.5,273.5 Q167.1094,273.5 166.8594,273.3281 Q166.6094,273.1563 166.5,272.7031 Q166.4531,272.3906 166.2813,272.2188 Q165.9688,271.8906 165.4063,271.7031 Q164.8438,271.5 164.2813,271.5 Q163.5781,271.5 162.9844,271.7813 Q162.4063,272.0625 161.9531,272.6875 Q161.5,273.3125 161.5,274.1719 L161.5,275.0938 Q161.5,276.125 162.3438,276.8125 Q163.1875,277.5 164.6875,277.5 Q165.5781,277.5 166.2031,277.2969 Q166.5625,277.1875 166.9688,276.8281 Q167.2344,276.625 167.375,276.5625 Q167.5156,276.5 167.6875,276.5 Q168.0156,276.5 168.25,276.7656 Q168.5,277.0156 168.5,277.375 Q168.5,277.7188 168.1563,278.125 Q167.6563,278.7188 166.8594,279.0469 Q165.8125,279.5 164.5313,279.5 Q163.0313,279.5 161.8281,278.9063 Q160.8594,278.4375 160.1719,277.4219 Q159.5,276.4063 159.5,275.2031 L159.5,274.1094 Q159.5,272.8594 160.0938,271.7656 Q160.7031,270.6719 161.75,270.0938 Q162.8125,269.5 164,269.5 Q164.7188,269.5 165.3438,269.75 Q165.9688,270 166.5,270.5 Z " fill="#000000"/><text fill="#000000" font-family="sans-serif" font-size="12" lengthAdjust="spacing" textLength="69" x="178.5" y="278.9102">Headquarter</text><line style="stroke:#A80036;stroke-width:1.5;" x1="150.5" x2="249.5" y1="290" y2="290"/><line style="stroke:#A80036;stroke-width:1.5;" x1="150.5" x2="249.5" y1="298" y2="298"/><!--MD5=[7e0a16a870ca136d3cb9a56a392d4bca]
class DomainModel.Map--><rect codeLine="5" fill="#FEFECE" filter="url(#fxvmibcj9dudd)" height="48" id="DomainModel.Map" style="stroke:#A80036;stroke-width:1.5;" width="55" x="175.5" y="366"/><ellipse cx="190.5" cy="382" fill="#ADD1B2" rx="11" ry="11" style="stroke:#A80036;stroke-width:1.0;"/><path d="M192.5,378.5 Q192.7031,378 192.9375,377.75 Q193.1719,377.5 193.4375,377.5 Q193.9063,377.5 194.2031,377.7813 Q194.5,378.0625 194.5,378.7188 L194.5,380.2813 Q194.5,380.9375 194.2188,381.2188 Q193.9375,381.5 193.5,381.5 Q193.1094,381.5 192.8594,381.3281 Q192.6094,381.1563 192.5,380.7031 Q192.4531,380.3906 192.2813,380.2188 Q191.9688,379.8906 191.4063,379.7031 Q190.8438,379.5 190.2813,379.5 Q189.5781,379.5 188.9844,379.7813 Q188.4063,380.0625 187.9531,380.6875 Q187.5,381.3125 187.5,382.1719 L187.5,383.0938 Q187.5,384.125 188.3438,384.8125 Q189.1875,385.5 190.6875,385.5 Q191.5781,385.5 192.2031,385.2969 Q192.5625,385.1875 192.9688,384.8281 Q193.2344,384.625 193.375,384.5625 Q193.5156,384.5 193.6875,384.5 Q194.0156,384.5 194.25,384.7656 Q194.5,385.0156 194.5,385.375 Q194.5,385.7188 194.1563,386.125 Q193.6563,386.7188 192.8594,387.0469 Q191.8125,387.5 190.5313,387.5 Q189.0313,387.5 187.8281,386.9063 Q186.8594,386.4375 186.1719,385.4219 Q185.5,384.4063 185.5,383.2031 L185.5,382.1094 Q185.5,380.8594 186.0938,379.7656 Q186.7031,378.6719 187.75,378.0938 Q188.8125,377.5 190,377.5 Q190.7188,377.5 191.3438,377.75 Q191.9688,378 192.5,378.5 Z " fill="#000000"/><text fill="#000000" font-family="sans-serif" font-size="12" lengthAdjust="spacing" textLength="23" x="204.5" y="386.9102">Map</text><line style="stroke:#A80036;stroke-width:1.5;" x1="176.5" x2="229.5" y1="398" y2="398"/><line style="stroke:#A80036;stroke-width:1.5;" x1="176.5" x2="229.5" y1="406" y2="406"/><!--MD5=[32df07faee015c94446b89179bee7272]
class DomainModel.GoogleMaps--><rect codeLine="6" fill="#FEFECE" filter="url(#fxvmibcj9dudd)" height="48" id="DomainModel.GoogleMaps" style="stroke:#A80036;stroke-width:1.5;" width="102" x="32" y="474"/><ellipse cx="47" cy="490" fill="#ADD1B2" rx="11" ry="11" style="stroke:#A80036;stroke-width:1.0;"/><path d="M49,486.5 Q49.2031,486 49.4375,485.75 Q49.6719,485.5 49.9375,485.5 Q50.4063,485.5 50.7031,485.7813 Q51,486.0625 51,486.7188 L51,488.2813 Q51,488.9375 50.7188,489.2188 Q50.4375,489.5 50,489.5 Q49.6094,489.5 49.3594,489.3281 Q49.1094,489.1563 49,488.7031 Q48.9531,488.3906 48.7813,488.2188 Q48.4688,487.8906 47.9063,487.7031 Q47.3438,487.5 46.7813,487.5 Q46.0781,487.5 45.4844,487.7813 Q44.9063,488.0625 44.4531,488.6875 Q44,489.3125 44,490.1719 L44,491.0938 Q44,492.125 44.8438,492.8125 Q45.6875,493.5 47.1875,493.5 Q48.0781,493.5 48.7031,493.2969 Q49.0625,493.1875 49.4688,492.8281 Q49.7344,492.625 49.875,492.5625 Q50.0156,492.5 50.1875,492.5 Q50.5156,492.5 50.75,492.7656 Q51,493.0156 51,493.375 Q51,493.7188 50.6563,494.125 Q50.1563,494.7188 49.3594,495.0469 Q48.3125,495.5 47.0313,495.5 Q45.5313,495.5 44.3281,494.9063 Q43.3594,494.4375 42.6719,493.4219 Q42,492.4063 42,491.2031 L42,490.1094 Q42,488.8594 42.5938,487.7656 Q43.2031,486.6719 44.25,486.0938 Q45.3125,485.5 46.5,485.5 Q47.2188,485.5 47.8438,485.75 Q48.4688,486 49,486.5 Z " fill="#000000"/><text fill="#000000" font-family="sans-serif" font-size="12" lengthAdjust="spacing" textLength="70" x="61" y="494.9102">GoogleMaps</text><line style="stroke:#A80036;stroke-width:1.5;" x1="33" x2="133" y1="506" y2="506"/><line style="stroke:#A80036;stroke-width:1.5;" x1="33" x2="133" y1="514" y2="514"/><!--MD5=[2f5d611c97f540214a248f2a120d4c92]
class DomainModel.Image--><rect codeLine="7" fill="#FEFECE" filter="url(#fxvmibcj9dudd)" height="48" id="DomainModel.Image" style="stroke:#A80036;stroke-width:1.5;" width="67" x="169.5" y="474"/><ellipse cx="184.5" cy="490" fill="#ADD1B2" rx="11" ry="11" style="stroke:#A80036;stroke-width:1.0;"/><path d="M186.5,486.5 Q186.7031,486 186.9375,485.75 Q187.1719,485.5 187.4375,485.5 Q187.9063,485.5 188.2031,485.7813 Q188.5,486.0625 188.5,486.7188 L188.5,488.2813 Q188.5,488.9375 188.2188,489.2188 Q187.9375,489.5 187.5,489.5 Q187.1094,489.5 186.8594,489.3281 Q186.6094,489.1563 186.5,488.7031 Q186.4531,488.3906 186.2813,488.2188 Q185.9688,487.8906 185.4063,487.7031 Q184.8438,487.5 184.2813,487.5 Q183.5781,487.5 182.9844,487.7813 Q182.4063,488.0625 181.9531,488.6875 Q181.5,489.3125 181.5,490.1719 L181.5,491.0938 Q181.5,492.125 182.3438,492.8125 Q183.1875,493.5 184.6875,493.5 Q185.5781,493.5 186.2031,493.2969 Q186.5625,493.1875 186.9688,492.8281 Q187.2344,492.625 187.375,492.5625 Q187.5156,492.5 187.6875,492.5 Q188.0156,492.5 188.25,492.7656 Q188.5,493.0156 188.5,493.375 Q188.5,493.7188 188.1563,494.125 Q187.6563,494.7188 186.8594,495.0469 Q185.8125,495.5 184.5313,495.5 Q183.0313,495.5 181.8281,494.9063 Q180.8594,494.4375 180.1719,493.4219 Q179.5,492.4063 179.5,491.2031 L179.5,490.1094 Q179.5,488.8594 180.0938,487.7656 Q180.7031,486.6719 181.75,486.0938 Q182.8125,485.5 184,485.5 Q184.7188,485.5 185.3438,485.75 Q185.9688,486 186.5,486.5 Z " fill="#000000"/><text fill="#000000" font-family="sans-serif" font-size="12" lengthAdjust="spacing" textLength="35" x="198.5" y="494.9102">Image</text><line style="stroke:#A80036;stroke-width:1.5;" x1="170.5" x2="235.5" y1="506" y2="506"/><line style="stroke:#A80036;stroke-width:1.5;" x1="170.5" x2="235.5" y1="514" y2="514"/><!--MD5=[9ece96e7cebf8bd8486664bec9887c50]
class DomainModel.Sensor--><rect codeLine="8" fill="#FEFECE" filter="url(#fxvmibcj9dudd)" height="48" id="DomainModel.Sensor" style="stroke:#A80036;stroke-width:1.5;" width="72" x="286" y="258"/><ellipse cx="301" cy="274" fill="#ADD1B2" rx="11" ry="11" style="stroke:#A80036;stroke-width:1.0;"/><path d="M303,270.5 Q303.2031,270 303.4375,269.75 Q303.6719,269.5 303.9375,269.5 Q304.4063,269.5 304.7031,269.7813 Q305,270.0625 305,270.7188 L305,272.2813 Q305,272.9375 304.7188,273.2188 Q304.4375,273.5 304,273.5 Q303.6094,273.5 303.3594,273.3281 Q303.1094,273.1563 303,272.7031 Q302.9531,272.3906 302.7813,272.2188 Q302.4688,271.8906 301.9063,271.7031 Q301.3438,271.5 300.7813,271.5 Q300.0781,271.5 299.4844,271.7813 Q298.9063,272.0625 298.4531,272.6875 Q298,273.3125 298,274.1719 L298,275.0938 Q298,276.125 298.8438,276.8125 Q299.6875,277.5 301.1875,277.5 Q302.0781,277.5 302.7031,277.2969 Q303.0625,277.1875 303.4688,276.8281 Q303.7344,276.625 303.875,276.5625 Q304.0156,276.5 304.1875,276.5 Q304.5156,276.5 304.75,276.7656 Q305,277.0156 305,277.375 Q305,277.7188 304.6563,278.125 Q304.1563,278.7188 303.3594,279.0469 Q302.3125,279.5 301.0313,279.5 Q299.5313,279.5 298.3281,278.9063 Q297.3594,278.4375 296.6719,277.4219 Q296,276.4063 296,275.2031 L296,274.1094 Q296,272.8594 296.5938,271.7656 Q297.2031,270.6719 298.25,270.0938 Q299.3125,269.5 300.5,269.5 Q301.2188,269.5 301.8438,269.75 Q302.4688,270 303,270.5 Z " fill="#000000"/><text fill="#000000" font-family="sans-serif" font-size="12" lengthAdjust="spacing" textLength="40" x="315" y="278.9102">Sensor</text><line style="stroke:#A80036;stroke-width:1.5;" x1="287" x2="357" y1="290" y2="290"/><line style="stroke:#A80036;stroke-width:1.5;" x1="287" x2="357" y1="298" y2="298"/><!--MD5=[8a1d0090ed8cf7e7bd14125e1497c8d9]
class DomainModel.RegisterLog--><rect codeLine="9" fill="#FEFECE" filter="url(#fxvmibcj9dudd)" height="48" id="DomainModel.RegisterLog" style="stroke:#A80036;stroke-width:1.5;" width="100" x="272" y="474"/><ellipse cx="287" cy="490" fill="#ADD1B2" rx="11" ry="11" style="stroke:#A80036;stroke-width:1.0;"/><path d="M289,486.5 Q289.2031,486 289.4375,485.75 Q289.6719,485.5 289.9375,485.5 Q290.4063,485.5 290.7031,485.7813 Q291,486.0625 291,486.7188 L291,488.2813 Q291,488.9375 290.7188,489.2188 Q290.4375,489.5 290,489.5 Q289.6094,489.5 289.3594,489.3281 Q289.1094,489.1563 289,488.7031 Q288.9531,488.3906 288.7813,488.2188 Q288.4688,487.8906 287.9063,487.7031 Q287.3438,487.5 286.7813,487.5 Q286.0781,487.5 285.4844,487.7813 Q284.9063,488.0625 284.4531,488.6875 Q284,489.3125 284,490.1719 L284,491.0938 Q284,492.125 284.8438,492.8125 Q285.6875,493.5 287.1875,493.5 Q288.0781,493.5 288.7031,493.2969 Q289.0625,493.1875 289.4688,492.8281 Q289.7344,492.625 289.875,492.5625 Q290.0156,492.5 290.1875,492.5 Q290.5156,492.5 290.75,492.7656 Q291,493.0156 291,493.375 Q291,493.7188 290.6563,494.125 Q290.1563,494.7188 289.3594,495.0469 Q288.3125,495.5 287.0313,495.5 Q285.5313,495.5 284.3281,494.9063 Q283.3594,494.4375 282.6719,493.4219 Q282,492.4063 282,491.2031 L282,490.1094 Q282,488.8594 282.5938,487.7656 Q283.2031,486.6719 284.25,486.0938 Q285.3125,485.5 286.5,485.5 Q287.2188,485.5 287.8438,485.75 Q288.4688,486 289,486.5 Z " fill="#000000"/><text fill="#000000" font-family="sans-serif" font-size="12" lengthAdjust="spacing" textLength="68" x="301" y="494.9102">RegisterLog</text><line style="stroke:#A80036;stroke-width:1.5;" x1="273" x2="371" y1="506" y2="506"/><line style="stroke:#A80036;stroke-width:1.5;" x1="273" x2="371" y1="514" y2="514"/><!--MD5=[9696bc5a1d6372e78078086a3a2774be]
link DomainModel.User to DomainModel.Sensor--><path codeLine="11" d="M270.9367,101.8483 C270.9367,101.8483 300.49,205.55 311.75,245.05 " fill="none" id="DomainModel.User-DomainModel.Sensor" style="stroke:#A80036;stroke-width:1.0;"/><polygon fill="#A80036" points="315.36,257.72,316.7468,247.9693,313.9929,252.9105,309.0517,250.1566,315.36,257.72" style="stroke:#A80036;stroke-width:1.0;"/><line style="stroke:#A80036;stroke-width:1.0;" x1="313.9929" x2="311.8" y1="252.9105" y2="245.215"/><polygon fill="#FFFFFF" points="267.64,90.31,265.4422,97.178,270.9367,101.8483,273.1344,94.9803,267.64,90.31" style="stroke:#A80036;stroke-width:1.0;"/><text fill="#000000" font-family="sans-serif" font-size="13" lengthAdjust="spacing" textLength="5" x="308.0179" y="246.9884">*</text><!--MD5=[4f2993341ac919112d7c369308cd07e5]
link DomainModel.User to DomainModel.Company--><path codeLine="12" d="M245.0328,100.8542 C245.0328,100.8542 233.05,126.25 227.61,137.78 " fill="none" id="DomainModel.User-DomainModel.Company" style="stroke:#A80036;stroke-width:1.0;"/><polygon fill="#A80036" points="222,149.68,229.456,143.2451,224.1322,145.1574,222.2198,139.8336,222,149.68" style="stroke:#A80036;stroke-width:1.0;"/><line style="stroke:#A80036;stroke-width:1.0;" x1="224.1322" x2="227.545" y1="145.1574" y2="137.92"/><polygon fill="#FFFFFF" points="250.15,90,243.9733,93.7214,245.0328,100.8542,251.2095,97.1328,250.15,90" style="stroke:#A80036;stroke-width:1.0;"/><text fill="#000000" font-family="sans-serif" font-size="13" lengthAdjust="spacing" textLength="5" x="219.0719" y="139.34">*</text><!--MD5=[8840de5c2a4193a4770a98a495c17708]
link DomainModel.Company to DomainModel.Headquarter--><path codeLine="13" d="M207.3703,209.9358 C207.3703,209.9358 204.88,233.94 203.76,244.72 " fill="none" id="DomainModel.Company-DomainModel.Headquarter" style="stroke:#A80036;stroke-width:1.0;"/><polygon fill="#A80036" points="202.42,257.68,207.3284,249.1414,202.9366,252.7068,199.3712,248.3149,202.42,257.68" style="stroke:#A80036;stroke-width:1.0;"/><line style="stroke:#A80036;stroke-width:1.0;" x1="202.9366" x2="203.765" y1="252.7068" y2="244.75"/><polygon fill="#FFFFFF" points="208.61,198,204.0115,203.5546,207.3703,209.9358,211.9687,204.3811,208.61,198" style="stroke:#A80036;stroke-width:1.0;"/><text fill="#000000" font-family="sans-serif" font-size="13" lengthAdjust="spacing" textLength="5" x="197.4005" y="247.34">*</text><!--MD5=[a8294df2bbd84aa7512316a09c7d1170]
link DomainModel.Headquarter to DomainModel.Map--><path codeLine="14" d="M200.9795,317.9955 C200.9795,317.9955 201.66,341.68 201.96,352.36 " fill="none" id="DomainModel.Headquarter-DomainModel.Map" style="stroke:#A80036;stroke-width:1.0;"/><polygon fill="#A80036" points="202.34,365.68,206.0813,356.5694,202.1972,360.682,198.0846,356.7979,202.34,365.68" style="stroke:#A80036;stroke-width:1.0;"/><line style="stroke:#A80036;stroke-width:1.0;" x1="202.1972" x2="201.97" y1="360.682" y2="352.68"/><polygon fill="#FFFFFF" points="200.65,306,196.8163,312.1076,200.9795,317.9955,204.8133,311.8879,200.65,306" style="stroke:#A80036;stroke-width:1.0;"/><text fill="#000000" font-family="sans-serif" font-size="13" lengthAdjust="spacing" textLength="5" x="196.5698" y="355.34">*</text><!--MD5=[c3db65669399b4ba246534c4fa809371]
link DomainModel.Map to DomainModel.GoogleMaps--><path codeLine="15" d="M176.96,414 C161.66,427.52 141.96,444.92 124.55,460.3 " fill="none" id="DomainModel.Map-to-DomainModel.GoogleMaps" style="stroke:#A80036;stroke-width:1.0;"/><polygon fill="none" points="129.03,465.68,109.4,473.68,119.76,455.19,129.03,465.68" style="stroke:#A80036;stroke-width:1.0;"/><!--MD5=[6faff5bac9b3e5b942c9a85f37c800d4]
link DomainModel.Map to DomainModel.Image--><path codeLine="16" d="M203,414 C203,425.59 203,440.03 203,453.6 " fill="none" id="DomainModel.Map-to-DomainModel.Image" style="stroke:#A80036;stroke-width:1.0;"/><polygon fill="none" points="210,453.68,203,473.68,196,453.68,210,453.68" style="stroke:#A80036;stroke-width:1.0;"/><!--MD5=[c40e6cc00971932b8fe7403b8539a85c]
link DomainModel.Sensor to DomainModel.Map--><path codeLine="18" d="M296.18,306 C277.59,322.55 252.47,344.93 233,362.28 " fill="none" id="DomainModel.Sensor-to-DomainModel.Map" style="stroke:#A80036;stroke-width:1.0;"/><polygon fill="#A80036" points="229.18,365.68,238.5577,362.6703,232.9099,362.3502,233.2301,356.7024,229.18,365.68" style="stroke:#A80036;stroke-width:1.0;"/><text fill="#000000" font-family="sans-serif" font-size="13" lengthAdjust="spacing" textLength="7" x="227.7083" y="355.34">1</text><!--MD5=[f45e0c95ceca9ace3d98aea35e4ca04d]
link DomainModel.Sensor to DomainModel.RegisterLog--><path codeLine="19" d="M322,306.31 C322,345.87 322,425.99 322,468.7 " fill="none" id="DomainModel.Sensor-to-DomainModel.RegisterLog" style="stroke:#A80036;stroke-width:1.0;"/><polygon fill="#A80036" points="322,473.72,326,464.72,322,468.72,318,464.72,322,473.72" style="stroke:#A80036;stroke-width:1.0;"/><text fill="#000000" font-family="sans-serif" font-size="13" lengthAdjust="spacing" textLength="5" x="316.3594" y="462.9884">*</text><!--MD5=[bee87f7c28e1c123a68d74f081a36baf]
link DomainModel.Map to DomainModel.RegisterLog--><path codeLine="20" d="M228.82,414 C247.41,430.55 272.53,452.93 292,470.28 " fill="none" id="DomainModel.Map-to-DomainModel.RegisterLog" style="stroke:#A80036;stroke-width:1.0;"/><polygon fill="#A80036" points="295.82,473.68,291.7699,464.7024,292.0901,470.3502,286.4423,470.6703,295.82,473.68" style="stroke:#A80036;stroke-width:1.0;"/><text fill="#000000" font-family="sans-serif" font-size="13" lengthAdjust="spacing" textLength="5" x="283.8293" y="463.34">*</text><!--MD5=[dfeb116f5aacac38179442b37b18fb9b]
@startuml
namespace DomainModel{
class User
class Company
class Headquarter
class Map
class GoogleMaps
class Image
class Sensor
class RegisterLog

User  o- -> "*" Sensor
User o- -> "*" Company
Company o- -> "*" Headquarter
Headquarter o- -> "*" Map
Map -down-|> GoogleMaps
Map -down-|> Image

Sensor - -> "1" Map
Sensor - -> "*" RegisterLog
Map - -> "*" RegisterLog
}
@enduml

PlantUML version 1.2021.16(Wed Dec 08 18:25:22 CET 2021)
(GPL source distribution)
Java Runtime: OpenJDK Runtime Environment
JVM: OpenJDK 64-Bit Server VM
Default Encoding: Cp1252
Language: es
Country: ES
--></g></svg>