<?xml version="1.0" encoding="UTF-8" standalone="no"?><svg xmlns="http://www.w3.org/2000/svg" xmlns:xlink="http://www.w3.org/1999/xlink" contentScriptType="application/ecmascript" contentStyleType="text/css" height="545px" preserveAspectRatio="none" style="width:339px;height:545px;background:#FFFFFF;" version="1.1" viewBox="0 0 339 545" width="339px" zoomAndPan="magnify"><defs><filter height="300%" id="fbkfm80afmqsr" width="300%" x="-1" y="-1"><feGaussianBlur result="blurOut" stdDeviation="2.0"/><feColorMatrix in="blurOut" result="blurOut2" type="matrix" values="0 0 0 0 0 0 0 0 0 0 0 0 0 0 0 0 0 0 .4 0"/><feOffset dx="4.0" dy="4.0" in="blurOut2" result="blurOut3"/><feBlend in="SourceGraphic" in2="blurOut3" mode="normal"/></filter></defs><g><!--MD5=[29cc8a38e2d198bc9cc23f76217d9df9]
cluster DomainModel--><polygon fill="#FFFFFF" filter="url(#fbkfm80afmqsr)" points="16,6,118,6,125,29.6094,322,29.6094,322,538,16,538,16,6" style="stroke:#000000;stroke-width:1.5;"/><line style="stroke:#000000;stroke-width:1.5;" x1="16" x2="125" y1="29.6094" y2="29.6094"/><text fill="#000000" font-family="sans-serif" font-size="14" font-weight="bold" lengthAdjust="spacing" textLength="96" x="20" y="22.5332">DomainModel</text><!--MD5=[778487f16f078d4b2deaa9059ca1bee4]
class DomainModel.User--><rect codeLine="2" fill="#FEFECE" filter="url(#fbkfm80afmqsr)" height="48" id="DomainModel.User" style="stroke:#A80036;stroke-width:1.5;" width="59" x="110.5" y="42"/><ellipse cx="125.5" cy="58" fill="#ADD1B2" rx="11" ry="11" style="stroke:#A80036;stroke-width:1.0;"/><path d="M127.5,54.5 Q127.7031,54 127.9375,53.75 Q128.1719,53.5 128.4375,53.5 Q128.9063,53.5 129.2031,53.7813 Q129.5,54.0625 129.5,54.7188 L129.5,56.2813 Q129.5,56.9375 129.2188,57.2188 Q128.9375,57.5 128.5,57.5 Q128.1094,57.5 127.8594,57.3281 Q127.6094,57.1563 127.5,56.7031 Q127.4531,56.3906 127.2813,56.2188 Q126.9688,55.8906 126.4063,55.7031 Q125.8438,55.5 125.2813,55.5 Q124.5781,55.5 123.9844,55.7813 Q123.4063,56.0625 122.9531,56.6875 Q122.5,57.3125 122.5,58.1719 L122.5,59.0938 Q122.5,60.125 123.3438,60.8125 Q124.1875,61.5 125.6875,61.5 Q126.5781,61.5 127.2031,61.2969 Q127.5625,61.1875 127.9688,60.8281 Q128.2344,60.625 128.375,60.5625 Q128.5156,60.5 128.6875,60.5 Q129.0156,60.5 129.25,60.7656 Q129.5,61.0156 129.5,61.375 Q129.5,61.7188 129.1563,62.125 Q128.6563,62.7188 127.8594,63.0469 Q126.8125,63.5 125.5313,63.5 Q124.0313,63.5 122.8281,62.9063 Q121.8594,62.4375 121.1719,61.4219 Q120.5,60.4063 120.5,59.2031 L120.5,58.1094 Q120.5,56.8594 121.0938,55.7656 Q121.7031,54.6719 122.75,54.0938 Q123.8125,53.5 125,53.5 Q125.7188,53.5 126.3438,53.75 Q126.9688,54 127.5,54.5 Z " fill="#000000"/><text fill="#000000" font-family="sans-serif" font-size="12" lengthAdjust="spacing" textLength="27" x="139.5" y="62.9102">User</text><line style="stroke:#A80036;stroke-width:1.5;" x1="111.5" x2="168.5" y1="74" y2="74"/><line style="stroke:#A80036;stroke-width:1.5;" x1="111.5" x2="168.5" y1="82" y2="82"/><!--MD5=[edc546ff71991a8c9d2825e9c79480c2]
class DomainModel.Company--><rect codeLine="3" fill="#FEFECE" filter="url(#fbkfm80afmqsr)" height="48" id="DomainModel.Company" style="stroke:#A80036;stroke-width:1.5;" width="85" x="40.5" y="150"/><ellipse cx="55.5" cy="166" fill="#ADD1B2" rx="11" ry="11" style="stroke:#A80036;stroke-width:1.0;"/><path d="M57.5,162.5 Q57.7031,162 57.9375,161.75 Q58.1719,161.5 58.4375,161.5 Q58.9063,161.5 59.2031,161.7813 Q59.5,162.0625 59.5,162.7188 L59.5,164.2813 Q59.5,164.9375 59.2188,165.2188 Q58.9375,165.5 58.5,165.5 Q58.1094,165.5 57.8594,165.3281 Q57.6094,165.1563 57.5,164.7031 Q57.4531,164.3906 57.2813,164.2188 Q56.9688,163.8906 56.4063,163.7031 Q55.8438,163.5 55.2813,163.5 Q54.5781,163.5 53.9844,163.7813 Q53.4063,164.0625 52.9531,164.6875 Q52.5,165.3125 52.5,166.1719 L52.5,167.0938 Q52.5,168.125 53.3438,168.8125 Q54.1875,169.5 55.6875,169.5 Q56.5781,169.5 57.2031,169.2969 Q57.5625,169.1875 57.9688,168.8281 Q58.2344,168.625 58.375,168.5625 Q58.5156,168.5 58.6875,168.5 Q59.0156,168.5 59.25,168.7656 Q59.5,169.0156 59.5,169.375 Q59.5,169.7188 59.1563,170.125 Q58.6563,170.7188 57.8594,171.0469 Q56.8125,171.5 55.5313,171.5 Q54.0313,171.5 52.8281,170.9063 Q51.8594,170.4375 51.1719,169.4219 Q50.5,168.4063 50.5,167.2031 L50.5,166.1094 Q50.5,164.8594 51.0938,163.7656 Q51.7031,162.6719 52.75,162.0938 Q53.8125,161.5 55,161.5 Q55.7188,161.5 56.3438,161.75 Q56.9688,162 57.5,162.5 Z " fill="#000000"/><text fill="#000000" font-family="sans-serif" font-size="12" lengthAdjust="spacing" textLength="53" x="69.5" y="170.9102">Company</text><line style="stroke:#A80036;stroke-width:1.5;" x1="41.5" x2="124.5" y1="182" y2="182"/><line style="stroke:#A80036;stroke-width:1.5;" x1="41.5" x2="124.5" y1="190" y2="190"/><!--MD5=[23bd70fb4f58e0974e9f500eeaa4ffcd]
class DomainModel.Headquarter--><rect codeLine="4" fill="#FEFECE" filter="url(#fbkfm80afmqsr)" height="48" id="DomainModel.Headquarter" style="stroke:#A80036;stroke-width:1.5;" width="101" x="32.5" y="258"/><ellipse cx="47.5" cy="274" fill="#ADD1B2" rx="11" ry="11" style="stroke:#A80036;stroke-width:1.0;"/><path d="M49.5,270.5 Q49.7031,270 49.9375,269.75 Q50.1719,269.5 50.4375,269.5 Q50.9063,269.5 51.2031,269.7813 Q51.5,270.0625 51.5,270.7188 L51.5,272.2813 Q51.5,272.9375 51.2188,273.2188 Q50.9375,273.5 50.5,273.5 Q50.1094,273.5 49.8594,273.3281 Q49.6094,273.1563 49.5,272.7031 Q49.4531,272.3906 49.2813,272.2188 Q48.9688,271.8906 48.4063,271.7031 Q47.8438,271.5 47.2813,271.5 Q46.5781,271.5 45.9844,271.7813 Q45.4063,272.0625 44.9531,272.6875 Q44.5,273.3125 44.5,274.1719 L44.5,275.0938 Q44.5,276.125 45.3438,276.8125 Q46.1875,277.5 47.6875,277.5 Q48.5781,277.5 49.2031,277.2969 Q49.5625,277.1875 49.9688,276.8281 Q50.2344,276.625 50.375,276.5625 Q50.5156,276.5 50.6875,276.5 Q51.0156,276.5 51.25,276.7656 Q51.5,277.0156 51.5,277.375 Q51.5,277.7188 51.1563,278.125 Q50.6563,278.7188 49.8594,279.0469 Q48.8125,279.5 47.5313,279.5 Q46.0313,279.5 44.8281,278.9063 Q43.8594,278.4375 43.1719,277.4219 Q42.5,276.4063 42.5,275.2031 L42.5,274.1094 Q42.5,272.8594 43.0938,271.7656 Q43.7031,270.6719 44.75,270.0938 Q45.8125,269.5 47,269.5 Q47.7188,269.5 48.3438,269.75 Q48.9688,270 49.5,270.5 Z " fill="#000000"/><text fill="#000000" font-family="sans-serif" font-size="12" lengthAdjust="spacing" textLength="69" x="61.5" y="278.9102">Headquarter</text><line style="stroke:#A80036;stroke-width:1.5;" x1="33.5" x2="132.5" y1="290" y2="290"/><line style="stroke:#A80036;stroke-width:1.5;" x1="33.5" x2="132.5" y1="298" y2="298"/><!--MD5=[7e0a16a870ca136d3cb9a56a392d4bca]
class DomainModel.Map--><rect codeLine="5" fill="#FEFECE" filter="url(#fbkfm80afmqsr)" height="48" id="DomainModel.Map" style="stroke:#A80036;stroke-width:1.5;" width="55" x="89.5" y="366"/><ellipse cx="104.5" cy="382" fill="#ADD1B2" rx="11" ry="11" style="stroke:#A80036;stroke-width:1.0;"/><path d="M106.5,378.5 Q106.7031,378 106.9375,377.75 Q107.1719,377.5 107.4375,377.5 Q107.9063,377.5 108.2031,377.7813 Q108.5,378.0625 108.5,378.7188 L108.5,380.2813 Q108.5,380.9375 108.2188,381.2188 Q107.9375,381.5 107.5,381.5 Q107.1094,381.5 106.8594,381.3281 Q106.6094,381.1563 106.5,380.7031 Q106.4531,380.3906 106.2813,380.2188 Q105.9688,379.8906 105.4063,379.7031 Q104.8438,379.5 104.2813,379.5 Q103.5781,379.5 102.9844,379.7813 Q102.4063,380.0625 101.9531,380.6875 Q101.5,381.3125 101.5,382.1719 L101.5,383.0938 Q101.5,384.125 102.3438,384.8125 Q103.1875,385.5 104.6875,385.5 Q105.5781,385.5 106.2031,385.2969 Q106.5625,385.1875 106.9688,384.8281 Q107.2344,384.625 107.375,384.5625 Q107.5156,384.5 107.6875,384.5 Q108.0156,384.5 108.25,384.7656 Q108.5,385.0156 108.5,385.375 Q108.5,385.7188 108.1563,386.125 Q107.6563,386.7188 106.8594,387.0469 Q105.8125,387.5 104.5313,387.5 Q103.0313,387.5 101.8281,386.9063 Q100.8594,386.4375 100.1719,385.4219 Q99.5,384.4063 99.5,383.2031 L99.5,382.1094 Q99.5,380.8594 100.0938,379.7656 Q100.7031,378.6719 101.75,378.0938 Q102.8125,377.5 104,377.5 Q104.7188,377.5 105.3438,377.75 Q105.9688,378 106.5,378.5 Z " fill="#000000"/><text fill="#000000" font-family="sans-serif" font-size="12" lengthAdjust="spacing" textLength="23" x="118.5" y="386.9102">Map</text><line style="stroke:#A80036;stroke-width:1.5;" x1="90.5" x2="143.5" y1="398" y2="398"/><line style="stroke:#A80036;stroke-width:1.5;" x1="90.5" x2="143.5" y1="406" y2="406"/><!--MD5=[32df07faee015c94446b89179bee7272]
class DomainModel.GoogleMaps--><rect codeLine="6" fill="#FEFECE" filter="url(#fbkfm80afmqsr)" height="48" id="DomainModel.GoogleMaps" style="stroke:#A80036;stroke-width:1.5;" width="102" x="66" y="474"/><ellipse cx="81" cy="490" fill="#ADD1B2" rx="11" ry="11" style="stroke:#A80036;stroke-width:1.0;"/><path d="M83,486.5 Q83.2031,486 83.4375,485.75 Q83.6719,485.5 83.9375,485.5 Q84.4063,485.5 84.7031,485.7813 Q85,486.0625 85,486.7188 L85,488.2813 Q85,488.9375 84.7188,489.2188 Q84.4375,489.5 84,489.5 Q83.6094,489.5 83.3594,489.3281 Q83.1094,489.1563 83,488.7031 Q82.9531,488.3906 82.7813,488.2188 Q82.4688,487.8906 81.9063,487.7031 Q81.3438,487.5 80.7813,487.5 Q80.0781,487.5 79.4844,487.7813 Q78.9063,488.0625 78.4531,488.6875 Q78,489.3125 78,490.1719 L78,491.0938 Q78,492.125 78.8438,492.8125 Q79.6875,493.5 81.1875,493.5 Q82.0781,493.5 82.7031,493.2969 Q83.0625,493.1875 83.4688,492.8281 Q83.7344,492.625 83.875,492.5625 Q84.0156,492.5 84.1875,492.5 Q84.5156,492.5 84.75,492.7656 Q85,493.0156 85,493.375 Q85,493.7188 84.6563,494.125 Q84.1563,494.7188 83.3594,495.0469 Q82.3125,495.5 81.0313,495.5 Q79.5313,495.5 78.3281,494.9063 Q77.3594,494.4375 76.6719,493.4219 Q76,492.4063 76,491.2031 L76,490.1094 Q76,488.8594 76.5938,487.7656 Q77.2031,486.6719 78.25,486.0938 Q79.3125,485.5 80.5,485.5 Q81.2188,485.5 81.8438,485.75 Q82.4688,486 83,486.5 Z " fill="#000000"/><text fill="#000000" font-family="sans-serif" font-size="12" lengthAdjust="spacing" textLength="70" x="95" y="494.9102">GoogleMaps</text><line style="stroke:#A80036;stroke-width:1.5;" x1="67" x2="167" y1="506" y2="506"/><line style="stroke:#A80036;stroke-width:1.5;" x1="67" x2="167" y1="514" y2="514"/><!--MD5=[2f5d611c97f540214a248f2a120d4c92]
class DomainModel.Image--><rect codeLine="7" fill="#FEFECE" filter="url(#fbkfm80afmqsr)" height="48" id="DomainModel.Image" style="stroke:#A80036;stroke-width:1.5;" width="67" x="203.5" y="474"/><ellipse cx="218.5" cy="490" fill="#ADD1B2" rx="11" ry="11" style="stroke:#A80036;stroke-width:1.0;"/><path d="M220.5,486.5 Q220.7031,486 220.9375,485.75 Q221.1719,485.5 221.4375,485.5 Q221.9063,485.5 222.2031,485.7813 Q222.5,486.0625 222.5,486.7188 L222.5,488.2813 Q222.5,488.9375 222.2188,489.2188 Q221.9375,489.5 221.5,489.5 Q221.1094,489.5 220.8594,489.3281 Q220.6094,489.1563 220.5,488.7031 Q220.4531,488.3906 220.2813,488.2188 Q219.9688,487.8906 219.4063,487.7031 Q218.8438,487.5 218.2813,487.5 Q217.5781,487.5 216.9844,487.7813 Q216.4063,488.0625 215.9531,488.6875 Q215.5,489.3125 215.5,490.1719 L215.5,491.0938 Q215.5,492.125 216.3438,492.8125 Q217.1875,493.5 218.6875,493.5 Q219.5781,493.5 220.2031,493.2969 Q220.5625,493.1875 220.9688,492.8281 Q221.2344,492.625 221.375,492.5625 Q221.5156,492.5 221.6875,492.5 Q222.0156,492.5 222.25,492.7656 Q222.5,493.0156 222.5,493.375 Q222.5,493.7188 222.1563,494.125 Q221.6563,494.7188 220.8594,495.0469 Q219.8125,495.5 218.5313,495.5 Q217.0313,495.5 215.8281,494.9063 Q214.8594,494.4375 214.1719,493.4219 Q213.5,492.4063 213.5,491.2031 L213.5,490.1094 Q213.5,488.8594 214.0938,487.7656 Q214.7031,486.6719 215.75,486.0938 Q216.8125,485.5 218,485.5 Q218.7188,485.5 219.3438,485.75 Q219.9688,486 220.5,486.5 Z " fill="#000000"/><text fill="#000000" font-family="sans-serif" font-size="12" lengthAdjust="spacing" textLength="35" x="232.5" y="494.9102">Image</text><line style="stroke:#A80036;stroke-width:1.5;" x1="204.5" x2="269.5" y1="506" y2="506"/><line style="stroke:#A80036;stroke-width:1.5;" x1="204.5" x2="269.5" y1="514" y2="514"/><!--MD5=[9ece96e7cebf8bd8486664bec9887c50]
class DomainModel.Sensor--><rect codeLine="8" fill="#FEFECE" filter="url(#fbkfm80afmqsr)" height="48" id="DomainModel.Sensor" style="stroke:#A80036;stroke-width:1.5;" width="72" x="161" y="150"/><ellipse cx="176" cy="166" fill="#ADD1B2" rx="11" ry="11" style="stroke:#A80036;stroke-width:1.0;"/><path d="M178,162.5 Q178.2031,162 178.4375,161.75 Q178.6719,161.5 178.9375,161.5 Q179.4063,161.5 179.7031,161.7813 Q180,162.0625 180,162.7188 L180,164.2813 Q180,164.9375 179.7188,165.2188 Q179.4375,165.5 179,165.5 Q178.6094,165.5 178.3594,165.3281 Q178.1094,165.1563 178,164.7031 Q177.9531,164.3906 177.7813,164.2188 Q177.4688,163.8906 176.9063,163.7031 Q176.3438,163.5 175.7813,163.5 Q175.0781,163.5 174.4844,163.7813 Q173.9063,164.0625 173.4531,164.6875 Q173,165.3125 173,166.1719 L173,167.0938 Q173,168.125 173.8438,168.8125 Q174.6875,169.5 176.1875,169.5 Q177.0781,169.5 177.7031,169.2969 Q178.0625,169.1875 178.4688,168.8281 Q178.7344,168.625 178.875,168.5625 Q179.0156,168.5 179.1875,168.5 Q179.5156,168.5 179.75,168.7656 Q180,169.0156 180,169.375 Q180,169.7188 179.6563,170.125 Q179.1563,170.7188 178.3594,171.0469 Q177.3125,171.5 176.0313,171.5 Q174.5313,171.5 173.3281,170.9063 Q172.3594,170.4375 171.6719,169.4219 Q171,168.4063 171,167.2031 L171,166.1094 Q171,164.8594 171.5938,163.7656 Q172.2031,162.6719 173.25,162.0938 Q174.3125,161.5 175.5,161.5 Q176.2188,161.5 176.8438,161.75 Q177.4688,162 178,162.5 Z " fill="#000000"/><text fill="#000000" font-family="sans-serif" font-size="12" lengthAdjust="spacing" textLength="40" x="190" y="170.9102">Sensor</text><line style="stroke:#A80036;stroke-width:1.5;" x1="162" x2="232" y1="182" y2="182"/><line style="stroke:#A80036;stroke-width:1.5;" x1="162" x2="232" y1="190" y2="190"/><!--MD5=[8a1d0090ed8cf7e7bd14125e1497c8d9]
class DomainModel.RegisterLog--><rect codeLine="9" fill="#FEFECE" filter="url(#fbkfm80afmqsr)" height="48" id="DomainModel.RegisterLog" style="stroke:#A80036;stroke-width:1.5;" width="100" x="206" y="258"/><ellipse cx="221" cy="274" fill="#ADD1B2" rx="11" ry="11" style="stroke:#A80036;stroke-width:1.0;"/><path d="M223,270.5 Q223.2031,270 223.4375,269.75 Q223.6719,269.5 223.9375,269.5 Q224.4063,269.5 224.7031,269.7813 Q225,270.0625 225,270.7188 L225,272.2813 Q225,272.9375 224.7188,273.2188 Q224.4375,273.5 224,273.5 Q223.6094,273.5 223.3594,273.3281 Q223.1094,273.1563 223,272.7031 Q222.9531,272.3906 222.7813,272.2188 Q222.4688,271.8906 221.9063,271.7031 Q221.3438,271.5 220.7813,271.5 Q220.0781,271.5 219.4844,271.7813 Q218.9063,272.0625 218.4531,272.6875 Q218,273.3125 218,274.1719 L218,275.0938 Q218,276.125 218.8438,276.8125 Q219.6875,277.5 221.1875,277.5 Q222.0781,277.5 222.7031,277.2969 Q223.0625,277.1875 223.4688,276.8281 Q223.7344,276.625 223.875,276.5625 Q224.0156,276.5 224.1875,276.5 Q224.5156,276.5 224.75,276.7656 Q225,277.0156 225,277.375 Q225,277.7188 224.6563,278.125 Q224.1563,278.7188 223.3594,279.0469 Q222.3125,279.5 221.0313,279.5 Q219.5313,279.5 218.3281,278.9063 Q217.3594,278.4375 216.6719,277.4219 Q216,276.4063 216,275.2031 L216,274.1094 Q216,272.8594 216.5938,271.7656 Q217.2031,270.6719 218.25,270.0938 Q219.3125,269.5 220.5,269.5 Q221.2188,269.5 221.8438,269.75 Q222.4688,270 223,270.5 Z " fill="#000000"/><text fill="#000000" font-family="sans-serif" font-size="12" lengthAdjust="spacing" textLength="68" x="235" y="278.9102">RegisterLog</text><line style="stroke:#A80036;stroke-width:1.5;" x1="207" x2="305" y1="290" y2="290"/><line style="stroke:#A80036;stroke-width:1.5;" x1="207" x2="305" y1="298" y2="298"/><!--MD5=[9696bc5a1d6372e78078086a3a2774be]
link DomainModel.User to DomainModel.Sensor--><path codeLine="11" d="M158.0458,100.5728 C158.0458,100.5728 171.88,126.28 178.2,138.03 " fill="none" id="DomainModel.User-DomainModel.Sensor" style="stroke:#A80036;stroke-width:1.0;"/><polygon fill="#A80036" points="184.46,149.68,183.723,139.8588,182.0931,145.2757,176.6762,143.6458,184.46,149.68" style="stroke:#A80036;stroke-width:1.0;"/><line style="stroke:#A80036;stroke-width:1.0;" x1="182.0931" x2="178.3" y1="145.2757" y2="138.225"/><polygon fill="#A80036" points="152.37,90,151.6836,97.1784,158.0458,100.5728,158.7322,93.3945,152.37,90" style="stroke:#A80036;stroke-width:1.0;"/><text fill="#000000" font-family="sans-serif" font-size="13" lengthAdjust="spacing" textLength="5" x="175.794" y="139.34">*</text><!--MD5=[4f2993341ac919112d7c369308cd07e5]
link DomainModel.User to DomainModel.Company--><path codeLine="12" d="M121.9542,100.5728 C121.9542,100.5728 108.12,126.28 101.8,138.03 " fill="none" id="DomainModel.User-DomainModel.Company" style="stroke:#A80036;stroke-width:1.0;"/><polygon fill="#A80036" points="95.54,149.68,103.3238,143.6458,97.9069,145.2757,96.277,139.8588,95.54,149.68" style="stroke:#A80036;stroke-width:1.0;"/><line style="stroke:#A80036;stroke-width:1.0;" x1="97.9069" x2="101.7" y1="145.2757" y2="138.225"/><polygon fill="#A80036" points="127.63,90,121.2678,93.3945,121.9542,100.5728,128.3164,97.1784,127.63,90" style="stroke:#A80036;stroke-width:1.0;"/><text fill="#000000" font-family="sans-serif" font-size="13" lengthAdjust="spacing" textLength="5" x="92.9873" y="139.34">*</text><!--MD5=[8840de5c2a4193a4770a98a495c17708]
link DomainModel.Company to DomainModel.Headquarter--><path codeLine="13" d="M83,210 C83,210 83,233.68 83,244.36 " fill="none" id="DomainModel.Company-DomainModel.Headquarter" style="stroke:#A80036;stroke-width:1.0;"/><polygon fill="#A80036" points="83,257.68,87,248.68,83,252.68,79,248.68,83,257.68" style="stroke:#A80036;stroke-width:1.0;"/><line style="stroke:#A80036;stroke-width:1.0;" x1="83" x2="83" y1="252.68" y2="244.68"/><polygon fill="#A80036" points="83,198,79,204,83,210,87,204,83,198" style="stroke:#A80036;stroke-width:1.0;"/><text fill="#000000" font-family="sans-serif" font-size="13" lengthAdjust="spacing" textLength="5" x="77.3906" y="247.34">*</text><!--MD5=[a8294df2bbd84aa7512316a09c7d1170]
link DomainModel.Headquarter to DomainModel.Map--><path codeLine="14" d="M94.0478,317.4257 C94.0478,317.4257 101.91,341.96 105.51,353.18 " fill="none" id="DomainModel.Headquarter-DomainModel.Map" style="stroke:#A80036;stroke-width:1.0;"/><polygon fill="#A80036" points="109.52,365.68,110.5777,355.8881,107.9917,360.9193,102.9605,358.3333,109.52,365.68" style="stroke:#A80036;stroke-width:1.0;"/><line style="stroke:#A80036;stroke-width:1.0;" x1="107.9917" x2="105.55" y1="360.9193" y2="353.3"/><polygon fill="#A80036" points="90.38,306,88.4053,312.9355,94.0478,317.4257,96.0225,310.4902,90.38,306" style="stroke:#A80036;stroke-width:1.0;"/><text fill="#000000" font-family="sans-serif" font-size="13" lengthAdjust="spacing" textLength="5" x="102.0874" y="355.34">*</text><!--MD5=[c3db65669399b4ba246534c4fa809371]
link DomainModel.Map to DomainModel.GoogleMaps--><path codeLine="15" d="M117,414 C117,425.59 117,440.03 117,453.6 " fill="none" id="DomainModel.Map-to-DomainModel.GoogleMaps" style="stroke:#A80036;stroke-width:1.0;"/><polygon fill="none" points="124,453.68,117,473.68,110,453.68,124,453.68" style="stroke:#A80036;stroke-width:1.0;"/><!--MD5=[6faff5bac9b3e5b942c9a85f37c800d4]
link DomainModel.Map to DomainModel.Image--><path codeLine="16" d="M143.04,414 C158.34,427.52 178.04,444.92 195.45,460.3 " fill="none" id="DomainModel.Map-to-DomainModel.Image" style="stroke:#A80036;stroke-width:1.0;"/><polygon fill="none" points="200.24,455.19,210.6,473.68,190.97,465.68,200.24,455.19" style="stroke:#A80036;stroke-width:1.0;"/><!--MD5=[c40e6cc00971932b8fe7403b8539a85c]
link DomainModel.Sensor to DomainModel.Map--><path codeLine="18" d="M189.21,198.32 C180.34,224.62 165.22,268.6 151,306 C143.98,324.47 135.57,345.02 128.87,361.05 " fill="none" id="DomainModel.Sensor-to-DomainModel.Map" style="stroke:#A80036;stroke-width:1.0;stroke-dasharray:7.0,7.0;"/><polygon fill="#A80036" points="126.85,365.87,134.0291,359.1275,128.7903,361.2618,126.656,356.0231,126.85,365.87" style="stroke:#A80036;stroke-width:1.0;"/><text fill="#000000" font-family="sans-serif" font-size="13" lengthAdjust="spacing" textLength="7" x="121.4772" y="355.1768">1</text><!--MD5=[f45e0c95ceca9ace3d98aea35e4ca04d]
link DomainModel.Sensor to DomainModel.RegisterLog--><path codeLine="19" d="M209.8,198 C218.79,214.14 230.85,235.82 240.4,252.97 " fill="none" id="DomainModel.Sensor-to-DomainModel.RegisterLog" style="stroke:#A80036;stroke-width:1.0;"/><polygon fill="#A80036" points="243.02,257.68,242.1458,247.87,240.5918,253.3092,235.1526,251.7552,243.02,257.68" style="stroke:#A80036;stroke-width:1.0;"/><text fill="#000000" font-family="sans-serif" font-size="13" lengthAdjust="spacing" textLength="5" x="234.2468" y="247.34">*</text><!--MD5=[71b0e2b5dc7461695bd0758728cf1741]
@startuml
namespace DomainModel{
class User
class Company
class Headquarter
class Map
class GoogleMaps
class Image
class Sensor
class RegisterLog

User  *- -> "*" Sensor
User *- -> "*" Company
Company *- -> "*" Headquarter
Headquarter *- -> "*" Map
Map -down-|> GoogleMaps
Map -down-|> Image

Sensor ..> "1" Map
Sensor - -> "*" RegisterLog
}
@enduml

PlantUML version 1.2021.16(Wed Dec 08 18:25:22 CET 2021)
(GPL source distribution)
Java Runtime: OpenJDK Runtime Environment
JVM: OpenJDK 64-Bit Server VM
Default Encoding: Cp1252
Language: es
Country: ES
--></g></svg>