<?xml version="1.0" encoding="UTF-8" standalone="no"?><svg xmlns="http://www.w3.org/2000/svg" xmlns:xlink="http://www.w3.org/1999/xlink" contentScriptType="application/ecmascript" contentStyleType="text/css" height="523px" preserveAspectRatio="none" style="width:300px;height:523px;background:#FFFFFF;" version="1.1" viewBox="0 0 300 523" width="300px" zoomAndPan="magnify"><defs><filter height="300%" id="f1lddxefmmooro" width="300%" x="-1" y="-1"><feGaussianBlur result="blurOut" stdDeviation="2.0"/><feColorMatrix in="blurOut" result="blurOut2" type="matrix" values="0 0 0 0 0 0 0 0 0 0 0 0 0 0 0 0 0 0 .4 0"/><feOffset dx="4.0" dy="4.0" in="blurOut2" result="blurOut3"/><feBlend in="SourceGraphic" in2="blurOut3" mode="normal"/></filter></defs><g><text fill="#000000" font-family="sans-serif" font-size="18" lengthAdjust="spacing" textLength="114" x="86.75" y="18.6855">Domain model</text><!--MD5=[3fd616f346a44cd59a91eb10b19e157c]
class User--><rect codeLine="2" fill="#FEFECE" filter="url(#f1lddxefmmooro)" height="48" id="User" style="stroke:#A80036;stroke-width:1.5;" width="59" x="94.5" y="29.6406"/><ellipse cx="109.5" cy="45.6406" fill="#ADD1B2" rx="11" ry="11" style="stroke:#A80036;stroke-width:1.0;"/><path d="M111.5,42.1406 Q111.7031,41.6406 111.9375,41.3906 Q112.1719,41.1406 112.4375,41.1406 Q112.9063,41.1406 113.2031,41.4219 Q113.5,41.7031 113.5,42.3594 L113.5,43.9219 Q113.5,44.5781 113.2188,44.8594 Q112.9375,45.1406 112.5,45.1406 Q112.1094,45.1406 111.8594,44.9688 Q111.6094,44.7969 111.5,44.3438 Q111.4531,44.0313 111.2813,43.8594 Q110.9688,43.5313 110.4063,43.3438 Q109.8438,43.1406 109.2813,43.1406 Q108.5781,43.1406 107.9844,43.4219 Q107.4063,43.7031 106.9531,44.3281 Q106.5,44.9531 106.5,45.8125 L106.5,46.7344 Q106.5,47.7656 107.3438,48.4531 Q108.1875,49.1406 109.6875,49.1406 Q110.5781,49.1406 111.2031,48.9375 Q111.5625,48.8281 111.9688,48.4688 Q112.2344,48.2656 112.375,48.2031 Q112.5156,48.1406 112.6875,48.1406 Q113.0156,48.1406 113.25,48.4063 Q113.5,48.6563 113.5,49.0156 Q113.5,49.3594 113.1563,49.7656 Q112.6563,50.3594 111.8594,50.6875 Q110.8125,51.1406 109.5313,51.1406 Q108.0313,51.1406 106.8281,50.5469 Q105.8594,50.0781 105.1719,49.0625 Q104.5,48.0469 104.5,46.8438 L104.5,45.75 Q104.5,44.5 105.0938,43.4063 Q105.7031,42.3125 106.75,41.7344 Q107.8125,41.1406 109,41.1406 Q109.7188,41.1406 110.3438,41.3906 Q110.9688,41.6406 111.5,42.1406 Z " fill="#000000"/><text fill="#000000" font-family="sans-serif" font-size="12" lengthAdjust="spacing" textLength="27" x="123.5" y="50.5508">User</text><line style="stroke:#A80036;stroke-width:1.5;" x1="95.5" x2="152.5" y1="61.6406" y2="61.6406"/><line style="stroke:#A80036;stroke-width:1.5;" x1="95.5" x2="152.5" y1="69.6406" y2="69.6406"/><!--MD5=[a8205779dd9a8c04496baf93aecc6463]
class ยบ--><rect codeLine="3" fill="#FEFECE" filter="url(#f1lddxefmmooro)" height="48" id="ยบ" style="stroke:#A80036;stroke-width:1.5;" width="36" x="189" y="29.6406"/><ellipse cx="204" cy="45.6406" fill="#ADD1B2" rx="11" ry="11" style="stroke:#A80036;stroke-width:1.0;"/><path d="M206,42.1406 Q206.2031,41.6406 206.4375,41.3906 Q206.6719,41.1406 206.9375,41.1406 Q207.4063,41.1406 207.7031,41.4219 Q208,41.7031 208,42.3594 L208,43.9219 Q208,44.5781 207.7188,44.8594 Q207.4375,45.1406 207,45.1406 Q206.6094,45.1406 206.3594,44.9688 Q206.1094,44.7969 206,44.3438 Q205.9531,44.0313 205.7813,43.8594 Q205.4688,43.5313 204.9063,43.3438 Q204.3438,43.1406 203.7813,43.1406 Q203.0781,43.1406 202.4844,43.4219 Q201.9063,43.7031 201.4531,44.3281 Q201,44.9531 201,45.8125 L201,46.7344 Q201,47.7656 201.8438,48.4531 Q202.6875,49.1406 204.1875,49.1406 Q205.0781,49.1406 205.7031,48.9375 Q206.0625,48.8281 206.4688,48.4688 Q206.7344,48.2656 206.875,48.2031 Q207.0156,48.1406 207.1875,48.1406 Q207.5156,48.1406 207.75,48.4063 Q208,48.6563 208,49.0156 Q208,49.3594 207.6563,49.7656 Q207.1563,50.3594 206.3594,50.6875 Q205.3125,51.1406 204.0313,51.1406 Q202.5313,51.1406 201.3281,50.5469 Q200.3594,50.0781 199.6719,49.0625 Q199,48.0469 199,46.8438 L199,45.75 Q199,44.5 199.5938,43.4063 Q200.2031,42.3125 201.25,41.7344 Q202.3125,41.1406 203.5,41.1406 Q204.2188,41.1406 204.8438,41.3906 Q205.4688,41.6406 206,42.1406 Z " fill="#000000"/><text fill="#000000" font-family="sans-serif" font-size="12" lengthAdjust="spacing" textLength="4" x="218" y="50.5508">ยบ</text><line style="stroke:#A80036;stroke-width:1.5;" x1="190" x2="224" y1="61.6406" y2="61.6406"/><line style="stroke:#A80036;stroke-width:1.5;" x1="190" x2="224" y1="69.6406" y2="69.6406"/><!--MD5=[d093ac04eae792ab9dd475c65e92d910]
class Headquarter--><rect codeLine="4" fill="#FEFECE" filter="url(#f1lddxefmmooro)" height="48" id="Headquarter" style="stroke:#A80036;stroke-width:1.5;" width="101" x="142.5" y="245.6406"/><ellipse cx="157.5" cy="261.6406" fill="#ADD1B2" rx="11" ry="11" style="stroke:#A80036;stroke-width:1.0;"/><path d="M159.5,258.1406 Q159.7031,257.6406 159.9375,257.3906 Q160.1719,257.1406 160.4375,257.1406 Q160.9063,257.1406 161.2031,257.4219 Q161.5,257.7031 161.5,258.3594 L161.5,259.9219 Q161.5,260.5781 161.2188,260.8594 Q160.9375,261.1406 160.5,261.1406 Q160.1094,261.1406 159.8594,260.9688 Q159.6094,260.7969 159.5,260.3438 Q159.4531,260.0313 159.2813,259.8594 Q158.9688,259.5313 158.4063,259.3438 Q157.8438,259.1406 157.2813,259.1406 Q156.5781,259.1406 155.9844,259.4219 Q155.4063,259.7031 154.9531,260.3281 Q154.5,260.9531 154.5,261.8125 L154.5,262.7344 Q154.5,263.7656 155.3438,264.4531 Q156.1875,265.1406 157.6875,265.1406 Q158.5781,265.1406 159.2031,264.9375 Q159.5625,264.8281 159.9688,264.4688 Q160.2344,264.2656 160.375,264.2031 Q160.5156,264.1406 160.6875,264.1406 Q161.0156,264.1406 161.25,264.4063 Q161.5,264.6563 161.5,265.0156 Q161.5,265.3594 161.1563,265.7656 Q160.6563,266.3594 159.8594,266.6875 Q158.8125,267.1406 157.5313,267.1406 Q156.0313,267.1406 154.8281,266.5469 Q153.8594,266.0781 153.1719,265.0625 Q152.5,264.0469 152.5,262.8438 L152.5,261.75 Q152.5,260.5 153.0938,259.4063 Q153.7031,258.3125 154.75,257.7344 Q155.8125,257.1406 157,257.1406 Q157.7188,257.1406 158.3438,257.3906 Q158.9688,257.6406 159.5,258.1406 Z " fill="#000000"/><text fill="#000000" font-family="sans-serif" font-size="12" lengthAdjust="spacing" textLength="69" x="171.5" y="266.5508">Headquarter</text><line style="stroke:#A80036;stroke-width:1.5;" x1="143.5" x2="242.5" y1="277.6406" y2="277.6406"/><line style="stroke:#A80036;stroke-width:1.5;" x1="143.5" x2="242.5" y1="285.6406" y2="285.6406"/><!--MD5=[4dfc6a72b8dd60daa1b635d583ff79da]
class Map--><rect codeLine="5" fill="#FEFECE" filter="url(#f1lddxefmmooro)" height="48" id="Map" style="stroke:#A80036;stroke-width:1.5;" width="55" x="165.5" y="353.6406"/><ellipse cx="180.5" cy="369.6406" fill="#ADD1B2" rx="11" ry="11" style="stroke:#A80036;stroke-width:1.0;"/><path d="M182.5,366.1406 Q182.7031,365.6406 182.9375,365.3906 Q183.1719,365.1406 183.4375,365.1406 Q183.9063,365.1406 184.2031,365.4219 Q184.5,365.7031 184.5,366.3594 L184.5,367.9219 Q184.5,368.5781 184.2188,368.8594 Q183.9375,369.1406 183.5,369.1406 Q183.1094,369.1406 182.8594,368.9688 Q182.6094,368.7969 182.5,368.3438 Q182.4531,368.0313 182.2813,367.8594 Q181.9688,367.5313 181.4063,367.3438 Q180.8438,367.1406 180.2813,367.1406 Q179.5781,367.1406 178.9844,367.4219 Q178.4063,367.7031 177.9531,368.3281 Q177.5,368.9531 177.5,369.8125 L177.5,370.7344 Q177.5,371.7656 178.3438,372.4531 Q179.1875,373.1406 180.6875,373.1406 Q181.5781,373.1406 182.2031,372.9375 Q182.5625,372.8281 182.9688,372.4688 Q183.2344,372.2656 183.375,372.2031 Q183.5156,372.1406 183.6875,372.1406 Q184.0156,372.1406 184.25,372.4063 Q184.5,372.6563 184.5,373.0156 Q184.5,373.3594 184.1563,373.7656 Q183.6563,374.3594 182.8594,374.6875 Q181.8125,375.1406 180.5313,375.1406 Q179.0313,375.1406 177.8281,374.5469 Q176.8594,374.0781 176.1719,373.0625 Q175.5,372.0469 175.5,370.8438 L175.5,369.75 Q175.5,368.5 176.0938,367.4063 Q176.7031,366.3125 177.75,365.7344 Q178.8125,365.1406 180,365.1406 Q180.7188,365.1406 181.3438,365.3906 Q181.9688,365.6406 182.5,366.1406 Z " fill="#000000"/><text fill="#000000" font-family="sans-serif" font-size="12" lengthAdjust="spacing" textLength="23" x="194.5" y="374.5508">Map</text><line style="stroke:#A80036;stroke-width:1.5;" x1="166.5" x2="219.5" y1="385.6406" y2="385.6406"/><line style="stroke:#A80036;stroke-width:1.5;" x1="166.5" x2="219.5" y1="393.6406" y2="393.6406"/><!--MD5=[780dc41d12f4030c7dad3e9a07663219]
class GoogleMaps--><rect codeLine="6" fill="#FEFECE" filter="url(#f1lddxefmmooro)" height="48" id="GoogleMaps" style="stroke:#A80036;stroke-width:1.5;" width="102" x="82" y="461.6406"/><ellipse cx="97" cy="477.6406" fill="#ADD1B2" rx="11" ry="11" style="stroke:#A80036;stroke-width:1.0;"/><path d="M99,474.1406 Q99.2031,473.6406 99.4375,473.3906 Q99.6719,473.1406 99.9375,473.1406 Q100.4063,473.1406 100.7031,473.4219 Q101,473.7031 101,474.3594 L101,475.9219 Q101,476.5781 100.7188,476.8594 Q100.4375,477.1406 100,477.1406 Q99.6094,477.1406 99.3594,476.9688 Q99.1094,476.7969 99,476.3438 Q98.9531,476.0313 98.7813,475.8594 Q98.4688,475.5313 97.9063,475.3438 Q97.3438,475.1406 96.7813,475.1406 Q96.0781,475.1406 95.4844,475.4219 Q94.9063,475.7031 94.4531,476.3281 Q94,476.9531 94,477.8125 L94,478.7344 Q94,479.7656 94.8438,480.4531 Q95.6875,481.1406 97.1875,481.1406 Q98.0781,481.1406 98.7031,480.9375 Q99.0625,480.8281 99.4688,480.4688 Q99.7344,480.2656 99.875,480.2031 Q100.0156,480.1406 100.1875,480.1406 Q100.5156,480.1406 100.75,480.4063 Q101,480.6563 101,481.0156 Q101,481.3594 100.6563,481.7656 Q100.1563,482.3594 99.3594,482.6875 Q98.3125,483.1406 97.0313,483.1406 Q95.5313,483.1406 94.3281,482.5469 Q93.3594,482.0781 92.6719,481.0625 Q92,480.0469 92,478.8438 L92,477.75 Q92,476.5 92.5938,475.4063 Q93.2031,474.3125 94.25,473.7344 Q95.3125,473.1406 96.5,473.1406 Q97.2188,473.1406 97.8438,473.3906 Q98.4688,473.6406 99,474.1406 Z " fill="#000000"/><text fill="#000000" font-family="sans-serif" font-size="12" lengthAdjust="spacing" textLength="70" x="111" y="482.5508">GoogleMaps</text><line style="stroke:#A80036;stroke-width:1.5;" x1="83" x2="183" y1="493.6406" y2="493.6406"/><line style="stroke:#A80036;stroke-width:1.5;" x1="83" x2="183" y1="501.6406" y2="501.6406"/><!--MD5=[964f074a2dd77d134c21b891bb53e381]
class Image--><rect codeLine="7" fill="#FEFECE" filter="url(#f1lddxefmmooro)" height="48" id="Image" style="stroke:#A80036;stroke-width:1.5;" width="67" x="219.5" y="461.6406"/><ellipse cx="234.5" cy="477.6406" fill="#ADD1B2" rx="11" ry="11" style="stroke:#A80036;stroke-width:1.0;"/><path d="M236.5,474.1406 Q236.7031,473.6406 236.9375,473.3906 Q237.1719,473.1406 237.4375,473.1406 Q237.9063,473.1406 238.2031,473.4219 Q238.5,473.7031 238.5,474.3594 L238.5,475.9219 Q238.5,476.5781 238.2188,476.8594 Q237.9375,477.1406 237.5,477.1406 Q237.1094,477.1406 236.8594,476.9688 Q236.6094,476.7969 236.5,476.3438 Q236.4531,476.0313 236.2813,475.8594 Q235.9688,475.5313 235.4063,475.3438 Q234.8438,475.1406 234.2813,475.1406 Q233.5781,475.1406 232.9844,475.4219 Q232.4063,475.7031 231.9531,476.3281 Q231.5,476.9531 231.5,477.8125 L231.5,478.7344 Q231.5,479.7656 232.3438,480.4531 Q233.1875,481.1406 234.6875,481.1406 Q235.5781,481.1406 236.2031,480.9375 Q236.5625,480.8281 236.9688,480.4688 Q237.2344,480.2656 237.375,480.2031 Q237.5156,480.1406 237.6875,480.1406 Q238.0156,480.1406 238.25,480.4063 Q238.5,480.6563 238.5,481.0156 Q238.5,481.3594 238.1563,481.7656 Q237.6563,482.3594 236.8594,482.6875 Q235.8125,483.1406 234.5313,483.1406 Q233.0313,483.1406 231.8281,482.5469 Q230.8594,482.0781 230.1719,481.0625 Q229.5,480.0469 229.5,478.8438 L229.5,477.75 Q229.5,476.5 230.0938,475.4063 Q230.7031,474.3125 231.75,473.7344 Q232.8125,473.1406 234,473.1406 Q234.7188,473.1406 235.3438,473.3906 Q235.9688,473.6406 236.5,474.1406 Z " fill="#000000"/><text fill="#000000" font-family="sans-serif" font-size="12" lengthAdjust="spacing" textLength="35" x="248.5" y="482.5508">Image</text><line style="stroke:#A80036;stroke-width:1.5;" x1="220.5" x2="285.5" y1="493.6406" y2="493.6406"/><line style="stroke:#A80036;stroke-width:1.5;" x1="220.5" x2="285.5" y1="501.6406" y2="501.6406"/><!--MD5=[97d46ae094d28e0d28828e4b8046fed1]
class Sensor--><rect codeLine="8" fill="#FEFECE" filter="url(#f1lddxefmmooro)" height="48" id="Sensor" style="stroke:#A80036;stroke-width:1.5;" width="72" x="37" y="137.6406"/><ellipse cx="52" cy="153.6406" fill="#ADD1B2" rx="11" ry="11" style="stroke:#A80036;stroke-width:1.0;"/><path d="M54,150.1406 Q54.2031,149.6406 54.4375,149.3906 Q54.6719,149.1406 54.9375,149.1406 Q55.4063,149.1406 55.7031,149.4219 Q56,149.7031 56,150.3594 L56,151.9219 Q56,152.5781 55.7188,152.8594 Q55.4375,153.1406 55,153.1406 Q54.6094,153.1406 54.3594,152.9688 Q54.1094,152.7969 54,152.3438 Q53.9531,152.0313 53.7813,151.8594 Q53.4688,151.5313 52.9063,151.3438 Q52.3438,151.1406 51.7813,151.1406 Q51.0781,151.1406 50.4844,151.4219 Q49.9063,151.7031 49.4531,152.3281 Q49,152.9531 49,153.8125 L49,154.7344 Q49,155.7656 49.8438,156.4531 Q50.6875,157.1406 52.1875,157.1406 Q53.0781,157.1406 53.7031,156.9375 Q54.0625,156.8281 54.4688,156.4688 Q54.7344,156.2656 54.875,156.2031 Q55.0156,156.1406 55.1875,156.1406 Q55.5156,156.1406 55.75,156.4063 Q56,156.6563 56,157.0156 Q56,157.3594 55.6563,157.7656 Q55.1563,158.3594 54.3594,158.6875 Q53.3125,159.1406 52.0313,159.1406 Q50.5313,159.1406 49.3281,158.5469 Q48.3594,158.0781 47.6719,157.0625 Q47,156.0469 47,154.8438 L47,153.75 Q47,152.5 47.5938,151.4063 Q48.2031,150.3125 49.25,149.7344 Q50.3125,149.1406 51.5,149.1406 Q52.2188,149.1406 52.8438,149.3906 Q53.4688,149.6406 54,150.1406 Z " fill="#000000"/><text fill="#000000" font-family="sans-serif" font-size="12" lengthAdjust="spacing" textLength="40" x="66" y="158.5508">Sensor</text><line style="stroke:#A80036;stroke-width:1.5;" x1="38" x2="108" y1="169.6406" y2="169.6406"/><line style="stroke:#A80036;stroke-width:1.5;" x1="38" x2="108" y1="177.6406" y2="177.6406"/><!--MD5=[6442e047cfdad95bdb0555c6cf944d53]
class RegisterLog--><rect codeLine="9" fill="#FEFECE" filter="url(#f1lddxefmmooro)" height="48" id="RegisterLog" style="stroke:#A80036;stroke-width:1.5;" width="100" x="7" y="245.6406"/><ellipse cx="22" cy="261.6406" fill="#ADD1B2" rx="11" ry="11" style="stroke:#A80036;stroke-width:1.0;"/><path d="M24,258.1406 Q24.2031,257.6406 24.4375,257.3906 Q24.6719,257.1406 24.9375,257.1406 Q25.4063,257.1406 25.7031,257.4219 Q26,257.7031 26,258.3594 L26,259.9219 Q26,260.5781 25.7188,260.8594 Q25.4375,261.1406 25,261.1406 Q24.6094,261.1406 24.3594,260.9688 Q24.1094,260.7969 24,260.3438 Q23.9531,260.0313 23.7813,259.8594 Q23.4688,259.5313 22.9063,259.3438 Q22.3438,259.1406 21.7813,259.1406 Q21.0781,259.1406 20.4844,259.4219 Q19.9063,259.7031 19.4531,260.3281 Q19,260.9531 19,261.8125 L19,262.7344 Q19,263.7656 19.8438,264.4531 Q20.6875,265.1406 22.1875,265.1406 Q23.0781,265.1406 23.7031,264.9375 Q24.0625,264.8281 24.4688,264.4688 Q24.7344,264.2656 24.875,264.2031 Q25.0156,264.1406 25.1875,264.1406 Q25.5156,264.1406 25.75,264.4063 Q26,264.6563 26,265.0156 Q26,265.3594 25.6563,265.7656 Q25.1563,266.3594 24.3594,266.6875 Q23.3125,267.1406 22.0313,267.1406 Q20.5313,267.1406 19.3281,266.5469 Q18.3594,266.0781 17.6719,265.0625 Q17,264.0469 17,262.8438 L17,261.75 Q17,260.5 17.5938,259.4063 Q18.2031,258.3125 19.25,257.7344 Q20.3125,257.1406 21.5,257.1406 Q22.2188,257.1406 22.8438,257.3906 Q23.4688,257.6406 24,258.1406 Z " fill="#000000"/><text fill="#000000" font-family="sans-serif" font-size="12" lengthAdjust="spacing" textLength="68" x="36" y="266.5508">RegisterLog</text><line style="stroke:#A80036;stroke-width:1.5;" x1="8" x2="106" y1="277.6406" y2="277.6406"/><line style="stroke:#A80036;stroke-width:1.5;" x1="8" x2="106" y1="285.6406" y2="285.6406"/><!--MD5=[ed6624c6556d5e7b1bd23032162d20b7]
class Client--><rect fill="#FEFECE" filter="url(#f1lddxefmmooro)" height="48" id="Client" style="stroke:#A80036;stroke-width:1.5;" width="64" x="152" y="137.6406"/><ellipse cx="167" cy="153.6406" fill="#ADD1B2" rx="11" ry="11" style="stroke:#A80036;stroke-width:1.0;"/><path d="M169,150.1406 Q169.2031,149.6406 169.4375,149.3906 Q169.6719,149.1406 169.9375,149.1406 Q170.4063,149.1406 170.7031,149.4219 Q171,149.7031 171,150.3594 L171,151.9219 Q171,152.5781 170.7188,152.8594 Q170.4375,153.1406 170,153.1406 Q169.6094,153.1406 169.3594,152.9688 Q169.1094,152.7969 169,152.3438 Q168.9531,152.0313 168.7813,151.8594 Q168.4688,151.5313 167.9063,151.3438 Q167.3438,151.1406 166.7813,151.1406 Q166.0781,151.1406 165.4844,151.4219 Q164.9063,151.7031 164.4531,152.3281 Q164,152.9531 164,153.8125 L164,154.7344 Q164,155.7656 164.8438,156.4531 Q165.6875,157.1406 167.1875,157.1406 Q168.0781,157.1406 168.7031,156.9375 Q169.0625,156.8281 169.4688,156.4688 Q169.7344,156.2656 169.875,156.2031 Q170.0156,156.1406 170.1875,156.1406 Q170.5156,156.1406 170.75,156.4063 Q171,156.6563 171,157.0156 Q171,157.3594 170.6563,157.7656 Q170.1563,158.3594 169.3594,158.6875 Q168.3125,159.1406 167.0313,159.1406 Q165.5313,159.1406 164.3281,158.5469 Q163.3594,158.0781 162.6719,157.0625 Q162,156.0469 162,154.8438 L162,153.75 Q162,152.5 162.5938,151.4063 Q163.2031,150.3125 164.25,149.7344 Q165.3125,149.1406 166.5,149.1406 Q167.2188,149.1406 167.8438,149.3906 Q168.4688,149.6406 169,150.1406 Z " fill="#000000"/><text fill="#000000" font-family="sans-serif" font-size="12" lengthAdjust="spacing" textLength="32" x="181" y="158.5508">Client</text><line style="stroke:#A80036;stroke-width:1.5;" x1="153" x2="215" y1="169.6406" y2="169.6406"/><line style="stroke:#A80036;stroke-width:1.5;" x1="153" x2="215" y1="177.6406" y2="177.6406"/><!--MD5=[befa6f57bf5a3ece2ed36f36c07b8760]
link User to Sensor--><path codeLine="11" d="M107.7222,88.4517 C107.7222,88.4517 95.49,113.8906 89.94,125.4206 " fill="none" id="User-Sensor" style="stroke:#A80036;stroke-width:1.0;"/><polygon fill="#A80036" points="84.22,137.3206,91.7295,130.9482,86.3899,132.816,84.5221,127.4764,84.22,137.3206" style="stroke:#A80036;stroke-width:1.0;"/><line style="stroke:#A80036;stroke-width:1.0;" x1="86.3899" x2="89.86" y1="132.816" y2="125.6056"/><polygon fill="#A80036" points="112.93,77.6406,106.7224,81.3102,107.7222,88.4517,113.9298,84.7821,112.93,77.6406" style="stroke:#A80036;stroke-width:1.0;"/><text fill="#000000" font-family="sans-serif" font-size="13" lengthAdjust="spacing" textLength="7" x="102.3786" y="98.9786">1</text><text fill="#000000" font-family="sans-serif" font-size="13" lengthAdjust="spacing" textLength="7" x="79.1018" y="126.9806">n</text><!--MD5=[b9014cebc313a16442615e671f7ea802]
link User to Client--><path codeLine="12" d="M142.9381,88.0798 C142.9381,88.0798 157.55,113.9206 164.21,125.6706 " fill="none" id="User-Client" style="stroke:#A80036;stroke-width:1.0;"/><polygon fill="#A80036" points="170.8,137.3206,169.8358,127.5191,168.3317,132.9723,162.8785,131.4683,170.8,137.3206" style="stroke:#A80036;stroke-width:1.0;"/><line style="stroke:#A80036;stroke-width:1.0;" x1="168.3317" x2="164.395" y1="132.9723" y2="126.0056"/><polygon fill="#A80036" points="137.02,77.6406,136.4994,84.8329,142.9381,88.0798,143.4588,80.8875,137.02,77.6406" style="stroke:#A80036;stroke-width:1.0;"/><text fill="#000000" font-family="sans-serif" font-size="13" lengthAdjust="spacing" textLength="7" x="132.3405" y="98.9786">1</text><text fill="#000000" font-family="sans-serif" font-size="13" lengthAdjust="spacing" textLength="7" x="159.7294" y="126.9806">n</text><!--MD5=[0b8007b8a086ab1628862317b08aa475]
link Client to Headquarter--><path codeLine="13" d="M186.9651,197.5976 C186.9651,197.5976 189,221.5806 189.92,232.3606 " fill="none" id="Client-Headquarter" style="stroke:#A80036;stroke-width:1.0;"/><polygon fill="#A80036" points="191.02,245.3206,194.2435,236.0142,190.5966,240.3386,186.2722,236.6917,191.02,245.3206" style="stroke:#A80036;stroke-width:1.0;"/><line style="stroke:#A80036;stroke-width:1.0;" x1="190.5966" x2="189.92" y1="240.3386" y2="232.3656"/><polygon fill="#A80036" points="185.95,185.6406,182.4719,191.9575,186.9651,197.5976,190.4432,191.2808,185.95,185.6406" style="stroke:#A80036;stroke-width:1.0;"/><text fill="#000000" font-family="sans-serif" font-size="13" lengthAdjust="spacing" textLength="7" x="178.5722" y="206.9786">1</text><text fill="#000000" font-family="sans-serif" font-size="13" lengthAdjust="spacing" textLength="7" x="182.6843" y="234.9806">n</text><!--MD5=[12a7d1df939bc1f5dbb1c11086024544]
link Headquarter to Map--><path codeLine="14" d="M193,305.6406 C193,305.6406 193,329.3206 193,340.0006 " fill="none" id="Headquarter-Map" style="stroke:#A80036;stroke-width:1.0;"/><polygon fill="#A80036" points="193,353.3206,197,344.3206,193,348.3206,189,344.3206,193,353.3206" style="stroke:#A80036;stroke-width:1.0;"/><line style="stroke:#A80036;stroke-width:1.0;" x1="193" x2="193" y1="348.3206" y2="340.3206"/><polygon fill="#A80036" points="193,293.6406,189,299.6406,193,305.6406,197,299.6406,193,293.6406" style="stroke:#A80036;stroke-width:1.0;"/><text fill="#000000" font-family="sans-serif" font-size="13" lengthAdjust="spacing" textLength="7" x="185.1469" y="314.9786">1</text><text fill="#000000" font-family="sans-serif" font-size="13" lengthAdjust="spacing" textLength="7" x="185.1469" y="342.9806">n</text><!--MD5=[f24e56847fc47fde721036181a86e0ee]
link Map to GoogleMaps--><path codeLine="15" d="M179.98,401.6406 C173.03,413.9206 164.27,429.4006 156.2,443.6506 " fill="none" id="Map-to-GoogleMaps" style="stroke:#A80036;stroke-width:1.0;"/><polygon fill="none" points="162.14,447.3606,146.2,461.3206,149.96,440.4706,162.14,447.3606" style="stroke:#A80036;stroke-width:1.0;"/><!--MD5=[31f1557cda24afa4b1f5d5e9736658e0]
link Map to Image--><path codeLine="16" d="M206.02,401.6406 C212.97,413.9206 221.73,429.4006 229.8,443.6506 " fill="none" id="Map-to-Image" style="stroke:#A80036;stroke-width:1.0;"/><polygon fill="none" points="236.04,440.4706,239.8,461.3206,223.86,447.3606,236.04,440.4706" style="stroke:#A80036;stroke-width:1.0;"/><!--MD5=[553b4fa7f3e7fd433ec32c1b0be30f98]
link Sensor to RegisterLog--><path codeLine="18" d="M69.53,185.6406 C67.11,201.6406 63.88,223.0906 61.3,240.1706 " fill="none" id="Sensor-to-RegisterLog" style="stroke:#A80036;stroke-width:1.0;stroke-dasharray:7.0,7.0;"/><polygon fill="#A80036" points="60.52,245.3206,65.8366,237.03,61.2771,240.3783,57.9288,235.8187,60.52,245.3206" style="stroke:#A80036;stroke-width:1.0;"/><!--MD5=[753d607d48d692ec7f9798cfaed8504b]
@startuml
title Domain model
class User
class ยบ
class Headquarter
class Map
class GoogleMaps
class Image
class Sensor
class RegisterLog

User "1" *- -> "n" Sensor
User "1" *- -> "n" Client
Client "1" *- -> "n" Headquarter
Headquarter "1" *- -> "n" Map
Map -down-|> GoogleMaps
Map -down-|> Image

Sensor ..> RegisterLog
@enduml

PlantUML version 1.2021.16(Wed Dec 08 18:25:22 CET 2021)
(GPL source distribution)
Java Runtime: OpenJDK Runtime Environment
JVM: OpenJDK 64-Bit Server VM
Default Encoding: Cp1252
Language: es
Country: ES
--></g></svg>