<?xml version="1.0" encoding="UTF-8" standalone="no"?><svg xmlns="http://www.w3.org/2000/svg" xmlns:xlink="http://www.w3.org/1999/xlink" contentScriptType="application/ecmascript" contentStyleType="text/css" height="792px" preserveAspectRatio="none" style="width:647px;height:792px;background:#FFFFFF;" version="1.1" viewBox="0 0 647 792" width="647px" zoomAndPan="magnify"><defs><filter height="300%" id="f92yt4w1qo7ut" width="300%" x="-1" y="-1"><feGaussianBlur result="blurOut" stdDeviation="2.0"/><feColorMatrix in="blurOut" result="blurOut2" type="matrix" values="0 0 0 0 0 0 0 0 0 0 0 0 0 0 0 0 0 0 .4 0"/><feOffset dx="4.0" dy="4.0" in="blurOut2" result="blurOut3"/><feBlend in="SourceGraphic" in2="blurOut3" mode="normal"/></filter></defs><g><text fill="#000000" font-family="sans-serif" font-size="18" lengthAdjust="spacing" textLength="234" x="199.135" y="18.6855">CreateCompany specification</text><rect fill="#FEFECE" filter="url(#f92yt4w1qo7ut)" height="40" rx="12.5" ry="12.5" style="stroke:#A80036;stroke-width:1.5;" width="50" x="10.27" y="185.6406"/><text fill="#000000" font-family="sans-serif" font-size="14" lengthAdjust="spacing" textLength="0" x="37.27" y="211.3691"/><rect fill="#FEFECE" filter="url(#f92yt4w1qo7ut)" height="40" rx="12.5" ry="12.5" style="stroke:#A80036;stroke-width:1.5;" width="50" x="21.27" y="341.6406"/><text fill="#000000" font-family="sans-serif" font-size="14" lengthAdjust="spacing" textLength="0" x="48.27" y="367.3691"/><rect fill="#FEFECE" filter="url(#f92yt4w1qo7ut)" height="40" rx="12.5" ry="12.5" style="stroke:#A80036;stroke-width:1.5;" width="119" x="125.77" y="637.6406"/><text fill="#000000" font-family="sans-serif" font-size="14" lengthAdjust="spacing" textLength="109" x="130.77" y="663.3691">:UpdateCompany</text><polygon fill="#FEFECE" filter="url(#f92yt4w1qo7ut)" points="185.27,497.6406,197.27,509.6406,185.27,521.6406,173.27,509.6406,185.27,497.6406" style="stroke:#A80036;stroke-width:1.5;"/><rect fill="#FEFECE" filter="url(#f92yt4w1qo7ut)" height="40" rx="12.5" ry="12.5" style="stroke:#A80036;stroke-width:1.5;" width="164" x="74.27" y="29.6406"/><text fill="#000000" font-family="sans-serif" font-size="14" lengthAdjust="spacing" textLength="154" x="79.27" y="55.3691">OPENED_APPLICATION</text><rect fill="#FEFECE" filter="url(#f92yt4w1qo7ut)" height="40" rx="12.5" ry="12.5" style="stroke:#A80036;stroke-width:1.5;" width="141" x="114.77" y="738.6406"/><text fill="#000000" font-family="sans-serif" font-size="14" lengthAdjust="spacing" textLength="131" x="119.77" y="764.3691">UPDATE_COMPANY</text><!--MD5=[de1ffe53b63b0755eb143c601252f5b9]
link OPENED_APPLICATION to creatingCompany--><path d="M123.21,69.7806 C111.16,77.8906 98.1,88.1306 88.27,99.6406 C67.43,124.0306 52.21,158.0406 43.55,180.6606 " fill="none" id="OPENED_APPLICATION-to-creatingCompany" style="stroke:#008000;stroke-width:1.0;"/><polygon fill="#008000" points="41.7,185.5906,48.6054,178.5682,43.4556,180.909,41.1148,175.7592,41.7,185.5906" style="stroke:#008000;stroke-width:1.0;"/><path d="M93.27,104.6406 L93.27,146.6406 L260.27,146.6406 L260.27,114.6406 L250.27,104.6406 L93.27,104.6406 " fill="#FFFFFF" filter="url(#f92yt4w1qo7ut)" style="stroke:#008000;stroke-width:1.0;"/><path d="M250.27,104.6406 L250.27,114.6406 L260.27,114.6406 L250.27,104.6406 " fill="#FFFFFF" style="stroke:#008000;stroke-width:1.0;"/><text fill="#000000" font-family="sans-serif" font-size="13" font-weight="bold" lengthAdjust="spacing" textLength="114" x="99.27" y="123.1357">Player requests to</text><ellipse cx="104.77" cy="134.8438" fill="#000000" rx="2.5" ry="2.5" style="stroke:#000000;stroke-width:0.0;"/><text fill="#000000" font-family="sans-serif" font-size="13" lengthAdjust="spacing" textLength="133" x="112.27" y="139.4873">Create a new company</text><!--MD5=[51fefdfd3ee7959face464ad7365177a]
link creatingCompany to creatingCompany2--><path d="M24.29,226.0206 C19.94,234.7706 15.45,245.4306 13.27,255.6406 C8.05,279.9806 6,287.8406 13.27,311.6406 C16.05,320.7406 21.15,329.6906 26.52,337.3906 " fill="none" id="creatingCompany-to-creatingCompany2" style="stroke:#008000;stroke-width:1.0;"/><polygon fill="#008000" points="29.52,341.5306,27.4958,331.892,26.5936,337.4765,21.0091,336.5743,29.52,341.5306" style="stroke:#008000;stroke-width:1.0;"/><path d="M18.27,260.6406 L18.27,302.6406 L243.27,302.6406 L243.27,270.6406 L233.27,260.6406 L18.27,260.6406 " fill="#FFFFFF" filter="url(#f92yt4w1qo7ut)" style="stroke:#008000;stroke-width:1.0;"/><path d="M233.27,260.6406 L233.27,270.6406 L243.27,270.6406 L233.27,260.6406 " fill="#FFFFFF" style="stroke:#008000;stroke-width:1.0;"/><text fill="#000000" font-family="sans-serif" font-size="13" font-weight="bold" lengthAdjust="spacing" textLength="102" x="24.27" y="279.1357">System requires</text><ellipse cx="29.77" cy="290.8438" fill="#000000" rx="2.5" ry="2.5" style="stroke:#000000;stroke-width:0.0;"/><text fill="#000000" font-family="sans-serif" font-size="13" lengthAdjust="spacing" textLength="191" x="37.27" y="295.4873">Company name [not null, unique]</text><!--MD5=[6ab37a7408e7f33616de0232bc1d4ce1]
link creatingCompany2 to invalidCompanyName--><path d="M59.22,381.6706 C74.7,403.6806 102.07,440.3906 130.27,467.6406 C144.18,481.0806 162.58,493.9706 174.17,501.6006 " fill="none" id="creatingCompany2-to-invalidCompanyName" style="stroke:#008000;stroke-width:1.0;"/><polygon fill="#008000" points="178.4,504.3506,173.025,496.0978,174.2048,501.6302,168.6724,502.81,178.4,504.3506" style="stroke:#008000;stroke-width:1.0;"/><path d="M135.27,416.6406 L135.27,458.6406 L260.27,458.6406 L260.27,426.6406 L250.27,416.6406 L135.27,416.6406 " fill="#FFFFFF" filter="url(#f92yt4w1qo7ut)" style="stroke:#008000;stroke-width:1.0;"/><path d="M250.27,416.6406 L250.27,426.6406 L260.27,426.6406 L250.27,416.6406 " fill="#FFFFFF" style="stroke:#008000;stroke-width:1.0;"/><text fill="#000000" font-family="sans-serif" font-size="13" font-weight="bold" lengthAdjust="spacing" textLength="99" x="141.27" y="435.1357">Player provides</text><ellipse cx="146.77" cy="446.8438" fill="#000000" rx="2.5" ry="2.5" style="stroke:#000000;stroke-width:0.0;"/><text fill="#000000" font-family="sans-serif" font-size="13" lengthAdjust="spacing" textLength="91" x="154.27" y="451.4873">Company name</text><!--MD5=[31bcc6a12b6a418accf5f33c1e313092]
reverse link OPENED_APPLICATION to invalidCompanyName--><path d="M241.74,72.1406 C254.2,78.9406 265.44,87.8806 273.27,99.6406 C363.87,235.8106 361.17,329.7106 273.27,467.6406 C255.69,495.2106 214.22,504.5406 195.16,507.4406 " fill="none" id="OPENED_APPLICATION-backto-invalidCompanyName" style="stroke:#A80036;stroke-width:1.0;"/><polygon fill="#A80036" points="237.1,69.7306,243.2536,77.4205,241.5403,72.0293,246.9314,70.316,237.1,69.7306" style="stroke:#A80036;stroke-width:1.0;"/><path d="M344.27,268.6406 L344.27,294.6406 L638.27,294.6406 L638.27,278.6406 L628.27,268.6406 L344.27,268.6406 " fill="#FFFFFF" filter="url(#f92yt4w1qo7ut)" style="stroke:#A80036;stroke-width:1.0;"/><path d="M628.27,268.6406 L628.27,278.6406 L638.27,278.6406 L628.27,268.6406 " fill="#FFFFFF" style="stroke:#A80036;stroke-width:1.0;"/><text fill="#000000" font-family="sans-serif" font-size="13" lengthAdjust="spacing" textLength="273" x="350.27" y="287.1357">[null value, invalid name, or name already exist]</text><!--MD5=[babd62900c222650bdeb38d457130dba]
link invalidCompanyName to CompanyCreated--><path d="M185.27,522.1006 C185.27,545.7406 185.27,600.3706 185.27,632.2706 " fill="none" id="invalidCompanyName-to-CompanyCreated" style="stroke:#008000;stroke-width:1.0;"/><polygon fill="#008000" points="185.27,637.5706,189.27,628.5706,185.27,632.5706,181.27,628.5706,185.27,637.5706" style="stroke:#008000;stroke-width:1.0;"/><path d="M190.27,556.6406 L190.27,598.6406 L426.27,598.6406 L426.27,566.6406 L416.27,556.6406 L190.27,556.6406 " fill="#FFFFFF" filter="url(#f92yt4w1qo7ut)" style="stroke:#008000;stroke-width:1.0;"/><path d="M416.27,556.6406 L416.27,566.6406 L426.27,566.6406 L416.27,556.6406 " fill="#FFFFFF" style="stroke:#008000;stroke-width:1.0;"/><text fill="#000000" font-family="sans-serif" font-size="13" font-weight="bold" lengthAdjust="spacing" textLength="89" x="196.27" y="575.1357">System shows</text><ellipse cx="201.77" cy="586.8438" fill="#000000" rx="2.5" ry="2.5" style="stroke:#000000;stroke-width:0.0;"/><text fill="#000000" font-family="sans-serif" font-size="13" lengthAdjust="spacing" textLength="202" x="209.27" y="591.4873">Company in UpdateCompany state</text><!--MD5=[ef485cf8e7a36e0cb6ba24b136ceabd8]
link CompanyCreated to UPDATE_COMPANY--><path d="M185.27,677.7306 C185.27,693.6206 185.27,716.3306 185.27,733.4806 " fill="none" id="CompanyCreated-to-UPDATE_COMPANY" style="stroke:#008000;stroke-width:1.0;"/><polygon fill="#008000" points="185.27,738.6106,189.27,729.6106,185.27,733.6106,181.27,729.6106,185.27,738.6106" style="stroke:#008000;stroke-width:1.0;"/><!--MD5=[c9158459a7e3ff501b57968f160d4afc]
@startuml
title CreateCompany specification
skinparam NoteBackgroundColor white
hide empty description

state creatingCompany as " "
state creatingCompany2 as " "
state CompanyCreated as ":UpdateCompany"
state invalidCompanyName <<choice>>


OPENED_APPLICATION -[#green]-> creatingCompany
note on link #white
  <b>Player requests to
  * Create a new company
end note

creatingCompany -[#green]-> creatingCompany2
note on link
  <b>System requires
  * Company name [not null, unique]
end note

creatingCompany2 -[#green]-> invalidCompanyName
note on link
  <b>Player provides
  * Company name
end note

invalidCompanyName -up-> OPENED_APPLICATION
note on link
  [null value, invalid name, or name already exist]
end note

invalidCompanyName -[#green]-> CompanyCreated
note on link
  <b>System shows
  * Company in UpdateCompany state
end note

CompanyCreated -[#green]-> UPDATE_COMPANY
@enduml

PlantUML version 1.2021.16(Wed Dec 08 18:25:22 CET 2021)
(GPL source distribution)
Java Runtime: OpenJDK Runtime Environment
JVM: OpenJDK 64-Bit Server VM
Default Encoding: Cp1252
Language: es
Country: ES
--></g></svg>