<?xml version="1.0" encoding="UTF-8" standalone="no"?><svg xmlns="http://www.w3.org/2000/svg" xmlns:xlink="http://www.w3.org/1999/xlink" contentScriptType="application/ecmascript" contentStyleType="text/css" height="705px" preserveAspectRatio="none" style="width:645px;height:705px;background:#FFFFFF;" version="1.1" viewBox="0 0 645 705" width="645px" zoomAndPan="magnify"><defs><filter height="300%" id="f1bvzjq2q2krx7" width="300%" x="-1" y="-1"><feGaussianBlur result="blurOut" stdDeviation="2.0"/><feColorMatrix in="blurOut" result="blurOut2" type="matrix" values="0 0 0 0 0 0 0 0 0 0 0 0 0 0 0 0 0 0 .4 0"/><feOffset dx="4.0" dy="4.0" in="blurOut2" result="blurOut3"/><feBlend in="SourceGraphic" in2="blurOut3" mode="normal"/></filter></defs><g><rect fill="#FEFECE" filter="url(#f1bvzjq2q2krx7)" height="686.6094" rx="12.5" ry="12.5" style="stroke:#A80036;stroke-width:1.5;" width="626" x="7" y="7"/><rect fill="#FFFFFF" height="653" rx="12.5" ry="12.5" style="stroke:#FFFFFF;stroke-width:1.0;" width="620" x="10" y="37.6094"/><line style="stroke:#A80036;stroke-width:1.5;" x1="7" x2="633" y1="34.6094" y2="34.6094"/><text fill="#000000" font-family="sans-serif" font-size="14" lengthAdjust="spacing" textLength="183" x="228.5" y="26.5332">CreateCompanySpecification</text><rect fill="#FEFECE" filter="url(#f1bvzjq2q2krx7)" height="40" rx="12.5" ry="12.5" style="stroke:#A80036;stroke-width:1.5;" width="50" x="19" y="178.6094"/><text fill="#000000" font-family="sans-serif" font-size="14" lengthAdjust="spacing" textLength="0" x="46" y="204.3379"/><rect fill="#FEFECE" filter="url(#f1bvzjq2q2krx7)" height="40" rx="12.5" ry="12.5" style="stroke:#A80036;stroke-width:1.5;" width="50" x="30" y="310.6094"/><text fill="#000000" font-family="sans-serif" font-size="14" lengthAdjust="spacing" textLength="0" x="57" y="336.3379"/><rect fill="#FEFECE" filter="url(#f1bvzjq2q2krx7)" height="40" rx="12.5" ry="12.5" style="stroke:#A80036;stroke-width:1.5;" width="119" x="119.5" y="558.6094"/><text fill="#000000" font-family="sans-serif" font-size="14" lengthAdjust="spacing" textLength="109" x="124.5" y="584.3379">:UpdateCompany</text><polygon fill="#FEFECE" filter="url(#f1bvzjq2q2krx7)" points="179,442.6094,191,454.6094,179,466.6094,167,454.6094,179,442.6094" style="stroke:#A80036;stroke-width:1.5;"/><rect fill="#FEFECE" filter="url(#f1bvzjq2q2krx7)" height="40" rx="12.5" ry="12.5" style="stroke:#A80036;stroke-width:1.5;" width="164" x="70" y="46.6094"/><text fill="#000000" font-family="sans-serif" font-size="14" lengthAdjust="spacing" textLength="154" x="75" y="72.3379">OPENED_APPLICATION</text><rect fill="#FEFECE" filter="url(#f1bvzjq2q2krx7)" height="40" rx="12.5" ry="12.5" style="stroke:#A80036;stroke-width:1.5;" width="141" x="108.5" y="635.6094"/><text fill="#000000" font-family="sans-serif" font-size="14" lengthAdjust="spacing" textLength="131" x="113.5" y="661.3379">UPDATE_COMPANY</text><!--MD5=[de1ffe53b63b0755eb143c601252f5b9]
link OPENED_APPLICATION to creatingCompany--><path d="M116.73,86.6194 C109,91.7994 101.26,97.8694 95,104.6094 C76.09,124.9694 61.76,153.6394 53.17,173.7494 " fill="none" id="OPENED_APPLICATION-to-creatingCompany" style="stroke:#008000;stroke-width:1.0;"/><polygon fill="#008000" points="51.22,178.4194,58.3813,171.658,53.1481,173.8061,51,168.573,51.22,178.4194" style="stroke:#008000;stroke-width:1.0;"/><path d="M100,109.6094 L100,151.6094 L254,151.6094 L254,119.6094 L244,109.6094 L100,109.6094 " fill="#FFFFFF" filter="url(#f1bvzjq2q2krx7)" style="stroke:#008000;stroke-width:1.0;"/><path d="M244,109.6094 L244,119.6094 L254,119.6094 L244,109.6094 " fill="#FFFFFF" style="stroke:#008000;stroke-width:1.0;"/><text fill="#000000" font-family="sans-serif" font-size="13" font-weight="bold" lengthAdjust="spacing" textLength="101" x="106" y="128.1045">User requests to</text><text fill="#000000" font-family="sans-serif" font-size="13" lengthAdjust="spacing" textLength="133" x="106" y="144.4561">Create a new company</text><!--MD5=[51fefdfd3ee7959face464ad7365177a]
link creatingCompany to creatingCompany2--><path d="M34.61,218.7594 C32.3,224.3794 30.17,230.6194 29,236.6094 C24.24,261.0394 21.5,268.8794 29,292.6094 C30.49,297.3294 32.82,301.9594 35.49,306.2694 " fill="none" id="creatingCompany-to-creatingCompany2" style="stroke:#008000;stroke-width:1.0;"/><polygon fill="#008000" points="38.25,310.4594,36.6244,300.7456,35.493,306.2882,29.9504,305.1568,38.25,310.4594" style="stroke:#008000;stroke-width:1.0;"/><path d="M34,241.6094 L34,283.6094 L246,283.6094 L246,251.6094 L236,241.6094 L34,241.6094 " fill="#FFFFFF" filter="url(#f1bvzjq2q2krx7)" style="stroke:#008000;stroke-width:1.0;"/><path d="M236,241.6094 L236,251.6094 L246,251.6094 L236,241.6094 " fill="#FFFFFF" style="stroke:#008000;stroke-width:1.0;"/><text fill="#000000" font-family="sans-serif" font-size="13" font-weight="bold" lengthAdjust="spacing" textLength="102" x="40" y="260.1045">System requires</text><text fill="#000000" font-family="sans-serif" font-size="13" lengthAdjust="spacing" textLength="191" x="40" y="276.4561">Company name [not null, unique]</text><!--MD5=[6ab37a7408e7f33616de0232bc1d4ce1]
link creatingCompany2 to invalidCompanyName--><path d="M69.5,350.6494 C85.02,370.3594 110.93,401.4494 137,424.6094 C146.5,433.0494 158.54,441.1394 167.29,446.6194 " fill="none" id="creatingCompany2-to-invalidCompanyName" style="stroke:#008000;stroke-width:1.0;"/><polygon fill="#008000" points="171.78,449.3794,166.2236,441.2475,167.5256,446.7525,162.0207,448.0545,171.78,449.3794" style="stroke:#008000;stroke-width:1.0;"/><path d="M142,373.6094 L142,415.6094 L254,415.6094 L254,383.6094 L244,373.6094 L142,373.6094 " fill="#FFFFFF" filter="url(#f1bvzjq2q2krx7)" style="stroke:#008000;stroke-width:1.0;"/><path d="M244,373.6094 L244,383.6094 L254,383.6094 L244,373.6094 " fill="#FFFFFF" style="stroke:#008000;stroke-width:1.0;"/><text fill="#000000" font-family="sans-serif" font-size="13" font-weight="bold" lengthAdjust="spacing" textLength="86" x="148" y="392.1045">User provides</text><text fill="#000000" font-family="sans-serif" font-size="13" lengthAdjust="spacing" textLength="91" x="148" y="408.4561">Company name</text><!--MD5=[31bcc6a12b6a418accf5f33c1e313092]
reverse link OPENED_APPLICATION to invalidCompanyName--><path d="M238.9,84.0794 C248.31,89.2094 256.72,95.8994 263,104.6094 C346.16,219.9894 345.54,308.7894 263,424.6094 C246.17,448.2294 208.76,452.7994 190.07,453.5594 " fill="none" id="OPENED_APPLICATION-backto-invalidCompanyName" style="stroke:#A80036;stroke-width:1.0;"/><polygon fill="#A80036" points="234.21,81.6794,240.4026,89.3378,238.6619,83.9554,244.0443,82.2148,234.21,81.6794" style="stroke:#A80036;stroke-width:1.0;"/><path d="M330,249.6094 L330,275.6094 L624,275.6094 L624,259.6094 L614,249.6094 L330,249.6094 " fill="#FFFFFF" filter="url(#f1bvzjq2q2krx7)" style="stroke:#A80036;stroke-width:1.0;"/><path d="M614,249.6094 L614,259.6094 L624,259.6094 L614,249.6094 " fill="#FFFFFF" style="stroke:#A80036;stroke-width:1.0;"/><text fill="#000000" font-family="sans-serif" font-size="13" lengthAdjust="spacing" textLength="273" x="336" y="268.1045">[null value, invalid name, or name already exist]</text><!--MD5=[babd62900c222650bdeb38d457130dba]
link invalidCompanyName to CompanyCreated--><path d="M179,466.8694 C179,486.4494 179,527.1694 179,553.3994 " fill="none" id="invalidCompanyName-to-CompanyCreated" style="stroke:#008000;stroke-width:1.0;"/><polygon fill="#008000" points="179,558.4494,183,549.4494,179,553.4494,175,549.4494,179,558.4494" style="stroke:#008000;stroke-width:1.0;"/><path d="M184,489.6094 L184,531.6094 L305,531.6094 L305,499.6094 L295,489.6094 L184,489.6094 " fill="#FFFFFF" filter="url(#f1bvzjq2q2krx7)" style="stroke:#008000;stroke-width:1.0;"/><path d="M295,489.6094 L295,499.6094 L305,499.6094 L295,489.6094 " fill="#FFFFFF" style="stroke:#008000;stroke-width:1.0;"/><text fill="#000000" font-family="sans-serif" font-size="13" font-weight="bold" lengthAdjust="spacing" textLength="91" x="190" y="508.1045">System allows</text><text fill="#000000" font-family="sans-serif" font-size="13" lengthAdjust="spacing" textLength="100" x="190" y="524.4561">-UpdateCompany</text><!--MD5=[ef485cf8e7a36e0cb6ba24b136ceabd8]
link CompanyCreated to UPDATE_COMPANY--><path d="M179,598.9194 C179,608.4594 179,620.0694 179,630.2094 " fill="none" id="CompanyCreated-to-UPDATE_COMPANY" style="stroke:#008000;stroke-width:1.0;"/><polygon fill="#008000" points="179,635.3594,183,626.3594,179,630.3594,175,626.3594,179,635.3594" style="stroke:#008000;stroke-width:1.0;"/><!--MD5=[0ad5aa51ddb0b21cea596edaa9f5926e]
@startuml
'title CreateCompany specification
skinparam NoteBackgroundColor white
hide empty description

state CreateCompanySpecification{
state creatingCompany as " "
state creatingCompany2 as " "
state CompanyCreated as ":UpdateCompany"
state invalidCompanyName <<choice>>


OPENED_APPLICATION -[#green]-> creatingCompany
note on link #white
  <b>User requests to
  Create a new company
end note

creatingCompany -[#green]-> creatingCompany2
note on link
  <b>System requires
  Company name [not null, unique]
end note

creatingCompany2 -[#green]-> invalidCompanyName
note on link
  <b>User provides
  Company name
end note

invalidCompanyName -up-> OPENED_APPLICATION
note on link
  [null value, invalid name, or name already exist]
end note

invalidCompanyName -[#green]-> CompanyCreated
note on link
  <b>System allows
  -UpdateCompany
end note

CompanyCreated -[#green]-> UPDATE_COMPANY
}


@enduml

@startuml
skinparam NoteBackgroundColor white
hide empty description

state CreateCompanySpecification{
state creatingCompany as " "
state creatingCompany2 as " "
state CompanyCreated as ":UpdateCompany"
state invalidCompanyName <<choice>>


OPENED_APPLICATION -[#green]-> creatingCompany
note on link #white
  <b>User requests to
  Create a new company
end note

creatingCompany -[#green]-> creatingCompany2
note on link
  <b>System requires
  Company name [not null, unique]
end note

creatingCompany2 -[#green]-> invalidCompanyName
note on link
  <b>User provides
  Company name
end note

invalidCompanyName -up-> OPENED_APPLICATION
note on link
  [null value, invalid name, or name already exist]
end note

invalidCompanyName -[#green]-> CompanyCreated
note on link
  <b>System allows
  -UpdateCompany
end note

CompanyCreated -[#green]-> UPDATE_COMPANY
}


@enduml

PlantUML version 1.2022.1(Tue Feb 01 19:19:58 CET 2022)
(GPL source distribution)
Java Runtime: OpenJDK Runtime Environment
JVM: OpenJDK 64-Bit Server VM
Default Encoding: Cp1252
Language: es
Country: ES
--></g></svg>