<?xml version="1.0" encoding="UTF-8" standalone="no"?><svg xmlns="http://www.w3.org/2000/svg" xmlns:xlink="http://www.w3.org/1999/xlink" contentScriptType="application/ecmascript" contentStyleType="text/css" height="705px" preserveAspectRatio="none" style="width:645px;height:705px;background:#FFFFFF;" version="1.1" viewBox="0 0 645 705" width="645px" zoomAndPan="magnify"><defs><filter height="300%" id="f131p1h3b2f679" width="300%" x="-1" y="-1"><feGaussianBlur result="blurOut" stdDeviation="2.0"/><feColorMatrix in="blurOut" result="blurOut2" type="matrix" values="0 0 0 0 0 0 0 0 0 0 0 0 0 0 0 0 0 0 .4 0"/><feOffset dx="4.0" dy="4.0" in="blurOut2" result="blurOut3"/><feBlend in="SourceGraphic" in2="blurOut3" mode="normal"/></filter></defs><g><rect fill="#FEFECE" filter="url(#f131p1h3b2f679)" height="686.6094" rx="12.5" ry="12.5" style="stroke:#A80036;stroke-width:1.5;" width="626" x="7" y="7"/><rect fill="#FFFFFF" height="653" rx="12.5" ry="12.5" style="stroke:#FFFFFF;stroke-width:1.0;" width="620" x="10" y="37.6094"/><line style="stroke:#A80036;stroke-width:1.5;" x1="7" x2="633" y1="34.6094" y2="34.6094"/><text fill="#000000" font-family="sans-serif" font-size="14" lengthAdjust="spacing" textLength="183" x="228.5" y="26.5332">CreateCompanySpecification</text><rect fill="#FEFECE" filter="url(#f131p1h3b2f679)" height="40" rx="12.5" ry="12.5" style="stroke:#A80036;stroke-width:1.5;" width="50" x="19" y="178.6094"/><text fill="#000000" font-family="sans-serif" font-size="14" lengthAdjust="spacing" textLength="0" x="46" y="204.3379"/><rect fill="#FEFECE" filter="url(#f131p1h3b2f679)" height="40" rx="12.5" ry="12.5" style="stroke:#A80036;stroke-width:1.5;" width="50" x="28" y="310.6094"/><text fill="#000000" font-family="sans-serif" font-size="14" lengthAdjust="spacing" textLength="0" x="55" y="336.3379"/><rect fill="#FEFECE" filter="url(#f131p1h3b2f679)" height="40" rx="12.5" ry="12.5" style="stroke:#A80036;stroke-width:1.5;" width="119" x="117.5" y="558.6094"/><text fill="#000000" font-family="sans-serif" font-size="14" lengthAdjust="spacing" textLength="109" x="122.5" y="584.3379">:UpdateCompany</text><polygon fill="#FEFECE" filter="url(#f131p1h3b2f679)" points="177,442.6094,189,454.6094,177,466.6094,165,454.6094,177,442.6094" style="stroke:#A80036;stroke-width:1.5;"/><rect fill="#FEFECE" filter="url(#f131p1h3b2f679)" height="40" rx="12.5" ry="12.5" style="stroke:#A80036;stroke-width:1.5;" width="164" x="70" y="46.6094"/><text fill="#000000" font-family="sans-serif" font-size="14" lengthAdjust="spacing" textLength="154" x="75" y="72.3379">OPENED_APPLICATION</text><rect fill="#FEFECE" filter="url(#f131p1h3b2f679)" height="40" rx="12.5" ry="12.5" style="stroke:#A80036;stroke-width:1.5;" width="141" x="106.5" y="635.6094"/><text fill="#000000" font-family="sans-serif" font-size="14" lengthAdjust="spacing" textLength="131" x="111.5" y="661.3379">UPDATE_COMPANY</text><!--MD5=[de1ffe53b63b0755eb143c601252f5b9]
link OPENED_APPLICATION to creatingCompany--><path d="M116.73,86.6194 C109,91.7994 101.26,97.8694 95,104.6094 C76.09,124.9694 61.76,153.6394 53.17,173.7494 " fill="none" id="OPENED_APPLICATION-to-creatingCompany" style="stroke:#008000;stroke-width:1.0;"/><polygon fill="#008000" points="51.22,178.4194,58.3813,171.658,53.1481,173.8061,51,168.573,51.22,178.4194" style="stroke:#008000;stroke-width:1.0;"/><path d="M100,109.6094 L100,151.6094 L254,151.6094 L254,119.6094 L244,109.6094 L100,109.6094 " fill="#FFFFFF" filter="url(#f131p1h3b2f679)" style="stroke:#008000;stroke-width:1.0;"/><path d="M244,109.6094 L244,119.6094 L254,119.6094 L244,109.6094 " fill="#FFFFFF" style="stroke:#008000;stroke-width:1.0;"/><text fill="#000000" font-family="sans-serif" font-size="13" font-weight="bold" lengthAdjust="spacing" textLength="114" x="106" y="128.1045">Player requests to</text><text fill="#000000" font-family="sans-serif" font-size="13" lengthAdjust="spacing" textLength="133" x="106" y="144.4561">Create a new company</text><!--MD5=[51fefdfd3ee7959face464ad7365177a]
link creatingCompany to creatingCompany2--><path d="M34.61,218.7594 C32.3,224.3794 30.17,230.6194 29,236.6094 C24.24,261.0394 21.94,268.7394 29,292.6094 C30.34,297.1394 32.43,301.6294 34.83,305.8494 " fill="none" id="creatingCompany-to-creatingCompany2" style="stroke:#008000;stroke-width:1.0;"/><polygon fill="#008000" points="37.53,310.2994,36.2911,300.5287,34.9407,306.022,29.4474,304.6716,37.53,310.2994" style="stroke:#008000;stroke-width:1.0;"/><path d="M34,241.6094 L34,283.6094 L246,283.6094 L246,251.6094 L236,241.6094 L34,241.6094 " fill="#FFFFFF" filter="url(#f131p1h3b2f679)" style="stroke:#008000;stroke-width:1.0;"/><path d="M236,241.6094 L236,251.6094 L246,251.6094 L236,241.6094 " fill="#FFFFFF" style="stroke:#008000;stroke-width:1.0;"/><text fill="#000000" font-family="sans-serif" font-size="13" font-weight="bold" lengthAdjust="spacing" textLength="102" x="40" y="260.1045">System requires</text><text fill="#000000" font-family="sans-serif" font-size="13" lengthAdjust="spacing" textLength="191" x="40" y="276.4561">Company name [not null, unique]</text><!--MD5=[6ab37a7408e7f33616de0232bc1d4ce1]
link creatingCompany2 to invalidCompanyName--><path d="M65.64,350.6994 C79.54,370.7194 103.33,402.3394 129,424.6094 C140,434.1494 154.52,442.4394 164.71,447.6794 " fill="none" id="creatingCompany2-to-invalidCompanyName" style="stroke:#008000;stroke-width:1.0;"/><polygon fill="#008000" points="169.32,450.0094,163.0785,442.3907,164.8536,447.7619,159.4825,449.537,169.32,450.0094" style="stroke:#008000;stroke-width:1.0;"/><path d="M134,373.6094 L134,415.6094 L254,415.6094 L254,383.6094 L244,373.6094 L134,373.6094 " fill="#FFFFFF" filter="url(#f131p1h3b2f679)" style="stroke:#008000;stroke-width:1.0;"/><path d="M244,373.6094 L244,383.6094 L254,383.6094 L244,373.6094 " fill="#FFFFFF" style="stroke:#008000;stroke-width:1.0;"/><text fill="#000000" font-family="sans-serif" font-size="13" font-weight="bold" lengthAdjust="spacing" textLength="99" x="140" y="392.1045">Player provides</text><text fill="#000000" font-family="sans-serif" font-size="13" lengthAdjust="spacing" textLength="91" x="140" y="408.4561">Company name</text><!--MD5=[31bcc6a12b6a418accf5f33c1e313092]
reverse link OPENED_APPLICATION to invalidCompanyName--><path d="M238.9,84.0794 C248.31,89.2094 256.72,95.8994 263,104.6094 C346.16,219.9894 345.96,309.0894 263,424.6094 C245.72,448.6694 207.44,453.0294 188.32,453.6494 " fill="none" id="OPENED_APPLICATION-backto-invalidCompanyName" style="stroke:#A80036;stroke-width:1.0;"/><polygon fill="#A80036" points="234.21,81.6794,240.4026,89.3378,238.6619,83.9554,244.0443,82.2148,234.21,81.6794" style="stroke:#A80036;stroke-width:1.0;"/><path d="M330,249.6094 L330,275.6094 L624,275.6094 L624,259.6094 L614,249.6094 L330,249.6094 " fill="#FFFFFF" filter="url(#f131p1h3b2f679)" style="stroke:#A80036;stroke-width:1.0;"/><path d="M614,249.6094 L614,259.6094 L624,259.6094 L614,249.6094 " fill="#FFFFFF" style="stroke:#A80036;stroke-width:1.0;"/><text fill="#000000" font-family="sans-serif" font-size="13" lengthAdjust="spacing" textLength="273" x="336" y="268.1045">[null value, invalid name, or name already exist]</text><!--MD5=[babd62900c222650bdeb38d457130dba]
link invalidCompanyName to CompanyCreated--><path d="M177,466.8694 C177,486.4494 177,527.1694 177,553.3994 " fill="none" id="invalidCompanyName-to-CompanyCreated" style="stroke:#008000;stroke-width:1.0;"/><polygon fill="#008000" points="177,558.4494,181,549.4494,177,553.4494,173,549.4494,177,558.4494" style="stroke:#008000;stroke-width:1.0;"/><path d="M182,489.6094 L182,531.6094 L303,531.6094 L303,499.6094 L293,489.6094 L182,489.6094 " fill="#FFFFFF" filter="url(#f131p1h3b2f679)" style="stroke:#008000;stroke-width:1.0;"/><path d="M293,489.6094 L293,499.6094 L303,499.6094 L293,489.6094 " fill="#FFFFFF" style="stroke:#008000;stroke-width:1.0;"/><text fill="#000000" font-family="sans-serif" font-size="13" font-weight="bold" lengthAdjust="spacing" textLength="91" x="188" y="508.1045">System allows</text><text fill="#000000" font-family="sans-serif" font-size="13" lengthAdjust="spacing" textLength="100" x="188" y="524.4561">-UpdateCompany</text><!--MD5=[ef485cf8e7a36e0cb6ba24b136ceabd8]
link CompanyCreated to UPDATE_COMPANY--><path d="M177,598.9194 C177,608.4594 177,620.0694 177,630.2094 " fill="none" id="CompanyCreated-to-UPDATE_COMPANY" style="stroke:#008000;stroke-width:1.0;"/><polygon fill="#008000" points="177,635.3594,181,626.3594,177,630.3594,173,626.3594,177,635.3594" style="stroke:#008000;stroke-width:1.0;"/><!--MD5=[2e6c146b6acc39e33b7305996d215a3e]
@startuml
'title CreateCompany specification
skinparam NoteBackgroundColor white
hide empty description

state CreateCompanySpecification{
state creatingCompany as " "
state creatingCompany2 as " "
state CompanyCreated as ":UpdateCompany"
state invalidCompanyName <<choice>>


OPENED_APPLICATION -[#green]-> creatingCompany
note on link #white
  <b>Player requests to
  Create a new company
end note

creatingCompany -[#green]-> creatingCompany2
note on link
  <b>System requires
  Company name [not null, unique]
end note

creatingCompany2 -[#green]-> invalidCompanyName
note on link
  <b>Player provides
  Company name
end note

invalidCompanyName -up-> OPENED_APPLICATION
note on link
  [null value, invalid name, or name already exist]
end note

invalidCompanyName -[#green]-> CompanyCreated
note on link
  <b>System allows
  -UpdateCompany
end note

CompanyCreated -[#green]-> UPDATE_COMPANY
}


@enduml

@startuml
skinparam NoteBackgroundColor white
hide empty description

state CreateCompanySpecification{
state creatingCompany as " "
state creatingCompany2 as " "
state CompanyCreated as ":UpdateCompany"
state invalidCompanyName <<choice>>


OPENED_APPLICATION -[#green]-> creatingCompany
note on link #white
  <b>Player requests to
  Create a new company
end note

creatingCompany -[#green]-> creatingCompany2
note on link
  <b>System requires
  Company name [not null, unique]
end note

creatingCompany2 -[#green]-> invalidCompanyName
note on link
  <b>Player provides
  Company name
end note

invalidCompanyName -up-> OPENED_APPLICATION
note on link
  [null value, invalid name, or name already exist]
end note

invalidCompanyName -[#green]-> CompanyCreated
note on link
  <b>System allows
  -UpdateCompany
end note

CompanyCreated -[#green]-> UPDATE_COMPANY
}


@enduml

PlantUML version 1.2021.16(Wed Dec 08 18:25:22 CET 2021)
(GPL source distribution)
Java Runtime: OpenJDK Runtime Environment
JVM: OpenJDK 64-Bit Server VM
Default Encoding: Cp1252
Language: es
Country: ES
--></g></svg>