<?xml version="1.0" encoding="UTF-8" standalone="no"?><svg xmlns="http://www.w3.org/2000/svg" xmlns:xlink="http://www.w3.org/1999/xlink" contentScriptType="application/ecmascript" contentStyleType="text/css" height="1274px" preserveAspectRatio="none" style="width:599px;height:1274px;background:#FFFFFF;" version="1.1" viewBox="0 0 599 1274" width="599px" zoomAndPan="magnify"><defs><filter height="300%" id="f19sdrcfo8vxbf" width="300%" x="-1" y="-1"><feGaussianBlur result="blurOut" stdDeviation="2.0"/><feColorMatrix in="blurOut" result="blurOut2" type="matrix" values="0 0 0 0 0 0 0 0 0 0 0 0 0 0 0 0 0 0 .4 0"/><feOffset dx="4.0" dy="4.0" in="blurOut2" result="blurOut3"/><feBlend in="SourceGraphic" in2="blurOut3" mode="normal"/></filter></defs><g><!--MD5=[6e499e743a56cbca32a83e0253ac5c24]
cluster useCases--><polygon fill="#FFFFFF" filter="url(#f19sdrcfo8vxbf)" points="16,6,91,6,98,29.6094,582,29.6094,582,1267,16,1267,16,6" style="stroke:#000000;stroke-width:1.5;"/><line style="stroke:#000000;stroke-width:1.5;" x1="16" x2="98" y1="29.6094" y2="29.6094"/><text fill="#000000" font-family="sans-serif" font-size="14" font-weight="bold" lengthAdjust="spacing" textLength="69" x="20" y="22.5332">useCases</text><!--MD5=[3eb9a7c665102ab0756ef7454213fb97]
entity useCases.User--><ellipse cx="46.5" cy="621" fill="#FEFECE" filter="url(#f19sdrcfo8vxbf)" rx="8" ry="8" style="stroke:#A80036;stroke-width:1.5;"/><path d="M46.5,629 L46.5,656 M33.5,637 L59.5,637 M46.5,656 L33.5,671 M46.5,656 L59.5,671 " fill="none" filter="url(#f19sdrcfo8vxbf)" style="stroke:#A80036;stroke-width:1.5;"/><text fill="#000000" font-family="sans-serif" font-size="14" lengthAdjust="spacing" textLength="29" x="32" y="691.0332">User</text><ellipse cx="206.1531" cy="1233.9306" fill="#FEFECE" filter="url(#f19sdrcfo8vxbf)" rx="70.1531" ry="16.4306" style="stroke:#A80036;stroke-width:1.5;"/><text fill="#000000" font-family="sans-serif" font-size="14" lengthAdjust="spacing" textLength="88" x="159.1531" y="1238.4472">CreateSensor</text><ellipse cx="486.5842" cy="1157.8168" fill="#FEFECE" filter="url(#f19sdrcfo8vxbf)" rx="67.0842" ry="15.8168" style="stroke:#A80036;stroke-width:1.5;"/><text fill="#000000" font-family="sans-serif" font-size="14" lengthAdjust="spacing" textLength="79" x="444.0842" y="1162.3334">ReadSensor</text><ellipse cx="205.8567" cy="1166.0713" fill="#FEFECE" filter="url(#f19sdrcfo8vxbf)" rx="70.8567" ry="16.5713" style="stroke:#A80036;stroke-width:1.5;"/><text fill="#000000" font-family="sans-serif" font-size="14" lengthAdjust="spacing" textLength="90" x="157.8567" y="1170.5879">UpdateSensor</text><ellipse cx="205.957" cy="1097.7914" fill="#FEFECE" filter="url(#f19sdrcfo8vxbf)" rx="69.457" ry="16.2914" style="stroke:#A80036;stroke-width:1.5;"/><text fill="#000000" font-family="sans-serif" font-size="14" lengthAdjust="spacing" textLength="86" x="159.957" y="1102.308">DeleteSensor</text><ellipse cx="205.8789" cy="1027.8758" fill="#FEFECE" filter="url(#f19sdrcfo8vxbf)" rx="79.8789" ry="18.3758" style="stroke:#A80036;stroke-width:1.5;"/><text fill="#000000" font-family="sans-serif" font-size="14" lengthAdjust="spacing" textLength="114" x="147.8373" y="1031.9024">AddSensorToMap</text><ellipse cx="206.169" cy="955.0338" fill="#FEFECE" filter="url(#f19sdrcfo8vxbf)" rx="83.169" ry="19.0338" style="stroke:#A80036;stroke-width:1.5;"/><text fill="#000000" font-family="sans-serif" font-size="14" lengthAdjust="spacing" textLength="122" x="145.169" y="958.7623">AddSensorToStock</text><ellipse cx="206.0842" cy="884.8168" fill="#FEFECE" filter="url(#f19sdrcfo8vxbf)" rx="67.0842" ry="15.8168" style="stroke:#A80036;stroke-width:1.5;"/><text fill="#000000" font-family="sans-serif" font-size="14" lengthAdjust="spacing" textLength="79" x="163.5842" y="889.3334">MoveSensor</text><ellipse cx="205.9297" cy="818.0784" fill="#FEFECE" filter="url(#f19sdrcfo8vxbf)" rx="59.4297" ry="15.5784" style="stroke:#A80036;stroke-width:1.5;"/><text fill="#000000" font-family="sans-serif" font-size="14" lengthAdjust="spacing" textLength="67" x="169.4297" y="822.595">ShowState</text><ellipse cx="206.2356" cy="752.0492" fill="#FEFECE" filter="url(#f19sdrcfo8vxbf)" rx="55.7356" ry="15.5492" style="stroke:#A80036;stroke-width:1.5;"/><text fill="#000000" font-family="sans-serif" font-size="14" lengthAdjust="spacing" textLength="62" x="172.2356" y="756.5658">PrintState</text><ellipse cx="206.1908" cy="686.0728" fill="#FEFECE" filter="url(#f19sdrcfo8vxbf)" rx="58.6908" ry="15.5728" style="stroke:#A80036;stroke-width:1.5;"/><text fill="#000000" font-family="sans-serif" font-size="14" lengthAdjust="spacing" textLength="66" x="170.1908" y="690.5894">SendState</text><ellipse cx="206.1002" cy="618.02" fill="#FEFECE" filter="url(#f19sdrcfo8vxbf)" rx="75.6002" ry="17.52" style="stroke:#A80036;stroke-width:1.5;"/><text fill="#000000" font-family="sans-serif" font-size="14" lengthAdjust="spacing" textLength="103" x="151.6002" y="622.5366">CreateCompany</text><ellipse cx="486.2859" cy="547.8572" fill="#FEFECE" filter="url(#f19sdrcfo8vxbf)" rx="72.2859" ry="16.8572" style="stroke:#A80036;stroke-width:1.5;"/><text fill="#000000" font-family="sans-serif" font-size="14" lengthAdjust="spacing" textLength="94" x="436.2859" y="552.3738">ReadCompany</text><ellipse cx="205.855" cy="548.171" fill="#FEFECE" filter="url(#f19sdrcfo8vxbf)" rx="76.355" ry="17.671" style="stroke:#A80036;stroke-width:1.5;"/><text fill="#000000" font-family="sans-serif" font-size="14" lengthAdjust="spacing" textLength="105" x="150.6233" y="552.6255">UpdateCompany</text><ellipse cx="205.8525" cy="477.8705" fill="#FEFECE" filter="url(#f19sdrcfo8vxbf)" rx="74.8525" ry="17.3705" style="stroke:#A80036;stroke-width:1.5;"/><text fill="#000000" font-family="sans-serif" font-size="14" lengthAdjust="spacing" textLength="101" x="152.3525" y="482.3871">DeleteCompany</text><ellipse cx="206.169" cy="406.0338" fill="#FEFECE" filter="url(#f19sdrcfo8vxbf)" rx="83.169" ry="19.0338" style="stroke:#A80036;stroke-width:1.5;"/><text fill="#000000" font-family="sans-serif" font-size="14" lengthAdjust="spacing" textLength="122" x="145.169" y="409.7623">CreateHeadquarter</text><ellipse cx="486.4775" cy="332.7955" fill="#FEFECE" filter="url(#f19sdrcfo8vxbf)" rx="79.4775" ry="18.2955" style="stroke:#A80036;stroke-width:1.5;"/><text fill="#000000" font-family="sans-serif" font-size="14" lengthAdjust="spacing" textLength="113" x="428.756" y="336.8709">ReadHeadquarter</text><ellipse cx="206.0066" cy="333.2013" fill="#FEFECE" filter="url(#f19sdrcfo8vxbf)" rx="84.0066" ry="19.2013" style="stroke:#A80036;stroke-width:1.5;"/><text fill="#000000" font-family="sans-serif" font-size="14" lengthAdjust="spacing" textLength="124" x="144.0066" y="336.9298">UpdateHeadquarter</text><ellipse cx="205.8351" cy="259.867" fill="#FEFECE" filter="url(#f19sdrcfo8vxbf)" rx="82.3351" ry="18.867" style="stroke:#A80036;stroke-width:1.5;"/><text fill="#000000" font-family="sans-serif" font-size="14" lengthAdjust="spacing" textLength="120" x="145.8351" y="263.5955">DeleteHeadquarter</text><ellipse cx="206.1463" cy="190.0942" fill="#FEFECE" filter="url(#f19sdrcfo8vxbf)" rx="61.6463" ry="15.5942" style="stroke:#A80036;stroke-width:1.5;"/><text fill="#000000" font-family="sans-serif" font-size="14" lengthAdjust="spacing" textLength="70" x="168.1463" y="194.6108">CreateMap</text><ellipse cx="486.4968" cy="124.0429" fill="#FEFECE" filter="url(#f19sdrcfo8vxbf)" rx="54.9968" ry="15.5429" style="stroke:#A80036;stroke-width:1.5;"/><text fill="#000000" font-family="sans-serif" font-size="14" lengthAdjust="spacing" textLength="61" x="452.9968" y="128.5595">ReadMap</text><ellipse cx="206.1242" cy="124.1042" fill="#FEFECE" filter="url(#f19sdrcfo8vxbf)" rx="63.1242" ry="15.6042" style="stroke:#A80036;stroke-width:1.5;"/><text fill="#000000" font-family="sans-serif" font-size="14" lengthAdjust="spacing" textLength="72" x="167.1242" y="128.6208">UpdateMap</text><ellipse cx="206.1685" cy="58.0838" fill="#FEFECE" filter="url(#f19sdrcfo8vxbf)" rx="60.1685" ry="15.5838" style="stroke:#A80036;stroke-width:1.5;"/><text fill="#000000" font-family="sans-serif" font-size="14" lengthAdjust="spacing" textLength="68" x="169.1685" y="62.6004">DeleteMap</text><!--MD5=[5bdbb5568d981a114e46fcff066a8753]
link useCases.User to useCases.CreateSensor--><path codeLine="33" d="M47.5,694.7 C48.34,809.1 56.68,1124.39 122,1200 C129.66,1208.87 139.99,1215.46 150.76,1220.35 " fill="none" id="useCases.User-to-useCases.CreateSensor" style="stroke:#A80036;stroke-width:1.0;"/><polygon fill="#A80036" points="155.39,1222.34,148.7015,1215.1106,150.7965,1220.3652,145.5419,1222.4602,155.39,1222.34" style="stroke:#A80036;stroke-width:1.0;"/><!--MD5=[03a183745827252beb6fb84f48619ff8]
link useCases.CreateSensor to useCases.ReadSensor--><path codeLine="34" d="M253.97,1221.83 C288.14,1212.91 335.49,1200.42 377,1189 C397.03,1183.49 419.08,1177.22 438.04,1171.78 " fill="none" id="useCases.CreateSensor-to-useCases.ReadSensor" style="stroke:#A80036;stroke-width:1.0;stroke-dasharray:7.0,7.0;"/><polygon fill="#A80036" points="443.3,1170.26,433.5447,1168.9055,438.4951,1171.643,435.7576,1176.5934,443.3,1170.26" style="stroke:#A80036;stroke-width:1.0;"/><text fill="#000000" font-family="sans-serif" font-size="13" lengthAdjust="spacing" textLength="55" x="321" y="1185.4951">«include»</text><!--MD5=[17712829796808acb08dca1cb75c37d1]
link useCases.User to useCases.UpdateSensor--><path codeLine="35" d="M48.51,694.66 C51.85,798.75 65.84,1066.52 122,1132 C129.63,1140.89 139.94,1147.5 150.71,1152.39 " fill="none" id="useCases.User-to-useCases.UpdateSensor" style="stroke:#A80036;stroke-width:1.0;"/><polygon fill="#A80036" points="155.34,1154.38,148.6515,1147.1506,150.7465,1152.4052,145.4919,1154.5002,155.34,1154.38" style="stroke:#A80036;stroke-width:1.0;"/><!--MD5=[c226eb121cc0507ecbfafe8f256e4e1c]
link useCases.UpdateSensor to useCases.ReadSensor--><path codeLine="36" d="M276.56,1164 C318.67,1162.79 372.24,1161.25 414.59,1160.04 " fill="none" id="useCases.UpdateSensor-to-useCases.ReadSensor" style="stroke:#A80036;stroke-width:1.0;stroke-dasharray:7.0,7.0;"/><polygon fill="#A80036" points="419.7,1159.89,410.5894,1156.1487,414.702,1160.0328,410.8179,1164.1454,419.7,1159.89" style="stroke:#A80036;stroke-width:1.0;"/><text fill="#000000" font-family="sans-serif" font-size="13" lengthAdjust="spacing" textLength="55" x="321" y="1158.4951">«include»</text><!--MD5=[53180e7f19d3d2fdd3efa4c88da3a8fb]
link useCases.User to useCases.DeleteSensor--><path codeLine="37" d="M49.85,694.77 C55.88,787.88 74.91,1008.62 122,1064 C129.68,1073.03 140.13,1079.7 151.03,1084.61 " fill="none" id="useCases.User-to-useCases.DeleteSensor" style="stroke:#A80036;stroke-width:1.0;"/><polygon fill="#A80036" points="155.72,1086.6,149.0125,1079.3882,151.1213,1084.6373,145.8722,1086.7461,155.72,1086.6" style="stroke:#A80036;stroke-width:1.0;"/><!--MD5=[79a1bebcdd1735faa8c07522f22df972]
link useCases.DeleteSensor to useCases.ReadSensor--><path codeLine="38" d="M258.08,1109 C307.12,1119.57 380.94,1135.47 431.07,1146.27 " fill="none" id="useCases.DeleteSensor-to-useCases.ReadSensor" style="stroke:#A80036;stroke-width:1.0;stroke-dasharray:7.0,7.0;"/><polygon fill="#A80036" points="436.15,1147.37,428.1995,1141.5571,431.2631,1146.3126,426.5076,1149.3762,436.15,1147.37" style="stroke:#A80036;stroke-width:1.0;"/><text fill="#000000" font-family="sans-serif" font-size="13" lengthAdjust="spacing" textLength="55" x="321" y="1119.4951">«include»</text><!--MD5=[4a9e1d6d39bac760d6b8a236f0bd9ed8]
link useCases.User to useCases.AddSensorToMap--><path codeLine="40" d="M51.75,694.81 C60.69,775.1 83.82,946.86 122,991 C129.43,999.59 139.24,1006.27 149.51,1011.44 " fill="none" id="useCases.User-to-useCases.AddSensorToMap" style="stroke:#A80036;stroke-width:1.0;"/><polygon fill="#A80036" points="154.25,1013.72,147.8633,1006.2226,149.7413,1011.5587,144.4052,1013.4366,154.25,1013.72" style="stroke:#A80036;stroke-width:1.0;"/><!--MD5=[f42400b25662643549f8c5ab3016b770]
link useCases.User to useCases.AddSensorToStock--><path codeLine="41" d="M48.33,694.58 C51.65,751.7 65.68,854.56 122,918 C129.36,926.29 138.93,932.81 148.94,937.92 " fill="none" id="useCases.User-to-useCases.AddSensorToStock" style="stroke:#A80036;stroke-width:1.0;"/><polygon fill="#A80036" points="153.56,940.17,147.2215,932.6319,149.0652,937.9799,143.7172,939.8236,153.56,940.17" style="stroke:#A80036;stroke-width:1.0;"/><!--MD5=[9df086344cc6ae86c032a41e48ad2756]
link useCases.User to useCases.MoveSensor--><path codeLine="43" d="M53.19,694.6 C61.26,738.69 80.03,807.8 122,851 C130.64,859.89 141.93,866.54 153.4,871.49 " fill="none" id="useCases.User-to-useCases.MoveSensor" style="stroke:#A80036;stroke-width:1.0;"/><polygon fill="#A80036" points="158.31,873.5,151.5109,866.3745,153.6866,871.5963,148.4649,873.772,158.31,873.5" style="stroke:#A80036;stroke-width:1.0;"/><!--MD5=[84d76c2310a9e4459465720b615409b7]
link useCases.User to useCases.CreateCompany--><path codeLine="45" d="M61.2,649.96 C80.03,645.77 115.06,637.99 145.84,631.15 " fill="none" id="useCases.User-to-useCases.CreateCompany" style="stroke:#A80036;stroke-width:1.0;"/><polygon fill="#A80036" points="150.74,630.06,141.0866,628.1076,145.8591,631.1447,142.822,635.9171,150.74,630.06" style="stroke:#A80036;stroke-width:1.0;"/><!--MD5=[82254af8d6e584ff82c6fcdeb5b73a25]
link useCases.CreateCompany to useCases.ReadCompany--><path codeLine="46" d="M257.76,605.24 C306.9,592.89 381.16,574.23 431.4,561.6 " fill="none" id="useCases.CreateCompany-to-useCases.ReadCompany" style="stroke:#A80036;stroke-width:1.0;stroke-dasharray:7.0,7.0;"/><polygon fill="#A80036" points="436.49,560.32,426.7874,558.629,431.6401,561.536,428.7331,566.3888,436.49,560.32" style="stroke:#A80036;stroke-width:1.0;"/><text fill="#000000" font-family="sans-serif" font-size="13" lengthAdjust="spacing" textLength="55" x="321" y="573.4951">«include»</text><!--MD5=[6dbe940bce09d8c46709bbe3018a5918]
link useCases.User to useCases.UpdateCompany--><path codeLine="47" d="M61.03,637.38 C75.05,621.96 98.2,598.48 122,583 C132.99,575.85 145.69,569.63 157.8,564.49 " fill="none" id="useCases.User-to-useCases.UpdateCompany" style="stroke:#A80036;stroke-width:1.0;"/><polygon fill="#A80036" points="162.58,562.51,152.7342,562.2641,157.9617,564.426,155.7998,569.6534,162.58,562.51" style="stroke:#A80036;stroke-width:1.0;"/><!--MD5=[80a4e42bde479b992f3560c1f39c7bef]
link useCases.UpdateCompany to useCases.ReadCompany--><path codeLine="48" d="M282.73,548 C321.73,548 369.19,548 408.39,548 " fill="none" id="useCases.UpdateCompany-to-useCases.ReadCompany" style="stroke:#A80036;stroke-width:1.0;stroke-dasharray:7.0,7.0;"/><polygon fill="#A80036" points="413.62,548,404.62,544,408.62,548,404.62,552,413.62,548" style="stroke:#A80036;stroke-width:1.0;"/><text fill="#000000" font-family="sans-serif" font-size="13" lengthAdjust="spacing" textLength="55" x="321" y="544.4951">«include»</text><!--MD5=[b52a0ddb27a81bf385167344c69b188c]
link useCases.User to useCases.DeleteCompany--><path codeLine="49" d="M61,611.41 C72.82,580.7 92.73,539.75 122,513 C130.89,504.88 141.94,498.47 153.05,493.49 " fill="none" id="useCases.User-to-useCases.DeleteCompany" style="stroke:#A80036;stroke-width:1.0;"/><polygon fill="#A80036" points="157.81,491.44,147.9617,491.3345,153.2195,493.4216,151.1323,498.6794,157.81,491.44" style="stroke:#A80036;stroke-width:1.0;"/><!--MD5=[dd39de4a5299b999b9e56a0dc4fe201c]
link useCases.DeleteCompany to useCases.ReadCompany--><path codeLine="50" d="M257.76,490.76 C306.9,503.11 381.16,521.77 431.4,534.4 " fill="none" id="useCases.DeleteCompany-to-useCases.ReadCompany" style="stroke:#A80036;stroke-width:1.0;stroke-dasharray:7.0,7.0;"/><polygon fill="#A80036" points="436.49,535.68,428.7331,529.6112,431.6401,534.464,426.7874,537.371,436.49,535.68" style="stroke:#A80036;stroke-width:1.0;"/><text fill="#000000" font-family="sans-serif" font-size="13" lengthAdjust="spacing" textLength="55" x="321" y="503.4951">«include»</text><!--MD5=[9ec327165a17645c3ac79f12c2dd8685]
link useCases.User to useCases.CreateHeadquarter--><path codeLine="52" d="M52.42,611.29 C59.91,564.9 78.28,490.3 122,443 C129.62,434.76 139.4,428.25 149.57,423.13 " fill="none" id="useCases.User-to-useCases.CreateHeadquarter" style="stroke:#A80036;stroke-width:1.0;"/><polygon fill="#A80036" points="154.26,420.88,144.4149,421.1513,149.7486,423.0358,147.8641,428.3695,154.26,420.88" style="stroke:#A80036;stroke-width:1.0;"/><!--MD5=[389141d54aed835b5387753a2e74699c]
link useCases.CreateHeadquarter to useCases.ReadHeadquarter--><path codeLine="53" d="M261.36,391.75 C309.26,379.2 378.84,360.96 427.73,348.14 " fill="none" id="useCases.CreateHeadquarter-to-useCases.ReadHeadquarter" style="stroke:#A80036;stroke-width:1.0;stroke-dasharray:7.0,7.0;"/><polygon fill="#A80036" points="432.7,346.84,422.9825,345.2366,427.8613,348.0998,424.9982,352.9786,432.7,346.84" style="stroke:#A80036;stroke-width:1.0;"/><text fill="#000000" font-family="sans-serif" font-size="13" lengthAdjust="spacing" textLength="55" x="321" y="359.4951">«include»</text><!--MD5=[c81a4a83d392c53c8435993c305ce184]
link useCases.User to useCases.UpdateHeadquarter--><path codeLine="54" d="M47.33,611.29 C49.29,550.74 61.55,438.19 122,369 C128.93,361.07 137.92,354.83 147.42,349.93 " fill="none" id="useCases.User-to-useCases.UpdateHeadquarter" style="stroke:#A80036;stroke-width:1.0;"/><polygon fill="#A80036" points="152.11,347.63,142.2682,348.0017,147.6208,349.8317,145.7909,355.1844,152.11,347.63" style="stroke:#A80036;stroke-width:1.0;"/><!--MD5=[f3ae778eccbc468a86a2a7a456492cb5]
link useCases.UpdateHeadquarter to useCases.ReadHeadquarter--><path codeLine="55" d="M290.18,333 C325.32,333 366.17,333 401.41,333 " fill="none" id="useCases.UpdateHeadquarter-to-useCases.ReadHeadquarter" style="stroke:#A80036;stroke-width:1.0;stroke-dasharray:7.0,7.0;"/><polygon fill="#A80036" points="406.56,333,397.56,329,401.56,333,397.56,337,406.56,333" style="stroke:#A80036;stroke-width:1.0;"/><text fill="#000000" font-family="sans-serif" font-size="13" lengthAdjust="spacing" textLength="55" x="321" y="329.4951">«include»</text><!--MD5=[7c1aa9bcbe65153aa083de5961475d9f]
link useCases.User to useCases.DeleteHeadquarter--><path codeLine="56" d="M51.1,611.38 C59.14,527.64 81.12,342.78 122,296 C128.93,288.07 137.92,281.83 147.42,276.93 " fill="none" id="useCases.User-to-useCases.DeleteHeadquarter" style="stroke:#A80036;stroke-width:1.0;"/><polygon fill="#A80036" points="152.11,274.63,142.2682,275.0017,147.6208,276.8317,145.7909,282.1844,152.11,274.63" style="stroke:#A80036;stroke-width:1.0;"/><!--MD5=[9ab6696f3c895860890480a7aa52e198]
link useCases.DeleteHeadquarter to useCases.ReadHeadquarter--><path codeLine="57" d="M261.03,274.16 C309.05,286.75 379.04,305.09 428.06,317.94 " fill="none" id="useCases.DeleteHeadquarter-to-useCases.ReadHeadquarter" style="stroke:#A80036;stroke-width:1.0;stroke-dasharray:7.0,7.0;"/><polygon fill="#A80036" points="433.04,319.25,425.3552,313.0901,428.2048,317.9768,423.3181,320.8264,433.04,319.25" style="stroke:#A80036;stroke-width:1.0;"/><text fill="#000000" font-family="sans-serif" font-size="13" lengthAdjust="spacing" textLength="55" x="321" y="286.4951">«include»</text><!--MD5=[e236c3c34af05845e6b6e6aa34f01cfb]
link useCases.User to useCases.CreateMap--><path codeLine="59" d="M49.38,611.42 C54.56,515.19 72.08,281 122,223 C130.31,213.35 141.82,206.5 153.63,201.64 " fill="none" id="useCases.User-to-useCases.CreateMap" style="stroke:#A80036;stroke-width:1.0;"/><polygon fill="#A80036" points="158.34,199.81,148.5019,199.3498,153.6811,201.625,151.4059,206.8041,158.34,199.81" style="stroke:#A80036;stroke-width:1.0;"/><!--MD5=[9af9cec055f13b08d28ab0998c4d2d3e]
link useCases.CreateMap to useCases.ReadMap--><path codeLine="60" d="M251.75,179.52 C286.04,171.48 334.52,160.09 377,150 C397.24,145.19 419.6,139.84 438.73,135.25 " fill="none" id="useCases.CreateMap-to-useCases.ReadMap" style="stroke:#A80036;stroke-width:1.0;stroke-dasharray:7.0,7.0;"/><polygon fill="#A80036" points="444.03,133.98,434.3442,132.1951,439.1686,135.149,436.2147,139.9734,444.03,133.98" style="stroke:#A80036;stroke-width:1.0;"/><text fill="#000000" font-family="sans-serif" font-size="13" lengthAdjust="spacing" textLength="55" x="321" y="146.4951">«include»</text><!--MD5=[e389e6463f1e742d99a754557f45cabe]
link useCases.User to useCases.UpdateMap--><path codeLine="61" d="M48.17,611.37 C50.74,504.58 63.08,224.62 122,157 C130.11,147.69 141.21,140.98 152.65,136.15 " fill="none" id="useCases.User-to-useCases.UpdateMap" style="stroke:#A80036;stroke-width:1.0;"/><polygon fill="#A80036" points="157.56,134.2,147.7192,133.8025,152.9127,136.0446,150.6706,141.2382,157.56,134.2" style="stroke:#A80036;stroke-width:1.0;"/><!--MD5=[71ecc0657bffd6293f0071c07a7fba36]
link useCases.UpdateMap to useCases.ReadMap--><path codeLine="62" d="M269.15,124 C315.93,124 379.64,124 425.81,124 " fill="none" id="useCases.UpdateMap-to-useCases.ReadMap" style="stroke:#A80036;stroke-width:1.0;stroke-dasharray:7.0,7.0;"/><polygon fill="#A80036" points="431.06,124,422.06,120,426.06,124,422.06,128,431.06,124" style="stroke:#A80036;stroke-width:1.0;"/><text fill="#000000" font-family="sans-serif" font-size="13" lengthAdjust="spacing" textLength="55" x="321" y="120.4951">«include»</text><!--MD5=[c52414472c6c6b227c9d4f0a7488314c]
link useCases.User to useCases.DeleteMap--><path codeLine="63" d="M47.26,611.37 C47.44,494.77 54.13,168.44 122,91 C130.48,81.32 142.19,74.45 154.13,69.58 " fill="none" id="useCases.User-to-useCases.DeleteMap" style="stroke:#A80036;stroke-width:1.0;"/><polygon fill="#A80036" points="158.9,67.75,149.0637,67.2535,154.2344,69.5478,151.9401,74.7185,158.9,67.75" style="stroke:#A80036;stroke-width:1.0;"/><!--MD5=[757366fdf0a5dc2bdf0e64e4b24d0187]
link useCases.DeleteMap to useCases.ReadMap--><path codeLine="64" d="M250.82,68.39 C302.02,80.52 386.37,100.51 438.78,112.93 " fill="none" id="useCases.DeleteMap-to-useCases.ReadMap" style="stroke:#A80036;stroke-width:1.0;stroke-dasharray:7.0,7.0;"/><polygon fill="#A80036" points="443.75,114.11,435.9181,108.1383,438.8854,112.9545,434.0692,115.9218,443.75,114.11" style="stroke:#A80036;stroke-width:1.0;"/><text fill="#000000" font-family="sans-serif" font-size="13" lengthAdjust="spacing" textLength="55" x="321" y="82.4951">«include»</text><!--MD5=[7d30ccbb5a552d5ff7cbab90d72c6025]
link useCases.User to useCases.ShowState--><path codeLine="66" d="M61.04,691.47 C73.03,720.62 93.16,759.82 122,785 C132.11,793.82 144.86,800.45 157.32,805.36 " fill="none" id="useCases.User-to-useCases.ShowState" style="stroke:#A80036;stroke-width:1.0;"/><polygon fill="#A80036" points="162.26,807.23,155.256,800.3058,157.5831,805.4619,152.427,807.789,162.26,807.23" style="stroke:#A80036;stroke-width:1.0;"/><!--MD5=[283ecb5bdeac93985a691dc50ca57fcb]
link useCases.User to useCases.PrintState--><path codeLine="67" d="M61.14,667.77 C75.24,682.35 98.45,704.51 122,719 C134.7,726.82 149.58,733.42 163.2,738.62 " fill="none" id="useCases.User-to-useCases.PrintState" style="stroke:#A80036;stroke-width:1.0;"/><polygon fill="#A80036" points="168.15,740.47,161.1091,733.5834,163.4637,738.7269,158.3201,741.0815,168.15,740.47" style="stroke:#A80036;stroke-width:1.0;"/><!--MD5=[359433a03d9271c745509e9a37d0cccf]
link useCases.User to useCases.SendState--><path codeLine="68" d="M61.2,655.87 C81.8,660.19 121.82,668.57 154.42,675.4 " fill="none" id="useCases.User-to-useCases.SendState" style="stroke:#A80036;stroke-width:1.0;"/><polygon fill="#A80036" points="159.58,676.48,151.5971,670.7117,154.6873,675.4499,149.949,678.5401,159.58,676.48" style="stroke:#A80036;stroke-width:1.0;"/><!--MD5=[7832bad6175426342848b543b174f289]
@startuml
allowmixing
namespace useCases{
left to right direction
actor User

usecase CreateSensor
usecase ReadSensor
usecase UpdateSensor
usecase DeleteSensor
usecase AddSensorToMap
usecase AddSensorToStock
usecase MoveSensor

usecase ShowState
usecase PrintState
usecase SendState

usecase CreateCompany
usecase ReadCompany
usecase UpdateCompany
usecase DeleteCompany

usecase CreateHeadquarter
usecase ReadHeadquarter
usecase UpdateHeadquarter
usecase DeleteHeadquarter

usecase CreateMap
usecase ReadMap
usecase UpdateMap
usecase DeleteMap

User - -> CreateSensor
CreateSensor ..> ReadSensor  : "<<include>>"
User - -> UpdateSensor
UpdateSensor ..> ReadSensor  : "<<include>>"
User - -> DeleteSensor
DeleteSensor ..> ReadSensor  : "<<include>>"

User - -> AddSensorToMap
User - -> AddSensorToStock

User - -> MoveSensor

User - -> CreateCompany
CreateCompany ..> ReadCompany : "<<include>>"
User - -> UpdateCompany
UpdateCompany ..> ReadCompany : "<<include>>"
User - -> DeleteCompany
DeleteCompany ..> ReadCompany : "<<include>>"

User - -> CreateHeadquarter
CreateHeadquarter ..> ReadHeadquarter : "<<include>>"
User - -> UpdateHeadquarter
UpdateHeadquarter ..> ReadHeadquarter : "<<include>>"
User - -> DeleteHeadquarter
DeleteHeadquarter ..> ReadHeadquarter : "<<include>>"

User - -> CreateMap
CreateMap  ..> ReadMap : "<<include>>"
User - -> UpdateMap
UpdateMap  ..> ReadMap : "<<include>>"
User - -> DeleteMap
DeleteMap  ..> ReadMap : "<<include>>"

User - -> ShowState
User - -> PrintState
User - -> SendState
}
@enduml

PlantUML version 1.2022.1(Tue Feb 01 19:19:58 CET 2022)
(GPL source distribution)
Java Runtime: OpenJDK Runtime Environment
JVM: OpenJDK 64-Bit Server VM
Default Encoding: Cp1252
Language: es
Country: ES
--></g></svg>