<?xml version="1.0" encoding="UTF-8" standalone="no"?><svg xmlns="http://www.w3.org/2000/svg" xmlns:xlink="http://www.w3.org/1999/xlink" contentScriptType="application/ecmascript" contentStyleType="text/css" height="225px" preserveAspectRatio="none" style="width:1228px;height:225px;background:#FFFFFF;" version="1.1" viewBox="0 0 1228 225" width="1228px" zoomAndPan="magnify"><defs><filter height="300%" id="f1pumthg35rs12" width="300%" x="-1" y="-1"><feGaussianBlur result="blurOut" stdDeviation="2.0"/><feColorMatrix in="blurOut" result="blurOut2" type="matrix" values="0 0 0 0 0 0 0 0 0 0 0 0 0 0 0 0 0 0 .4 0"/><feOffset dx="4.0" dy="4.0" in="blurOut2" result="blurOut3"/><feBlend in="SourceGraphic" in2="blurOut3" mode="normal"/></filter></defs><g><!--MD5=[a60570e4b426f702ccbb0d459e3b9417]
cluster models--><polygon fill="#FFFFFF" filter="url(#f1pumthg35rs12)" points="438,6,495,6,502,29.6094,530,29.6094,530,108,438,108,438,6" style="stroke:#000000;stroke-width:1.5;"/><line style="stroke:#000000;stroke-width:1.5;" x1="438" x2="502" y1="29.6094" y2="29.6094"/><text fill="#000000" font-family="sans-serif" font-size="14" font-weight="bold" lengthAdjust="spacing" textLength="51" x="442" y="22.5332">models</text><!--MD5=[f4e70ef68289585296b9045165e58692]
cluster controllers--><polygon fill="#FFFFFF" filter="url(#f1pumthg35rs12)" points="16,6,99,6,106,29.6094,414,29.6094,414,218,16,218,16,6" style="stroke:#000000;stroke-width:1.5;"/><line style="stroke:#000000;stroke-width:1.5;" x1="16" x2="106" y1="29.6094" y2="29.6094"/><text fill="#000000" font-family="sans-serif" font-size="14" font-weight="bold" lengthAdjust="spacing" textLength="77" x="20" y="22.5332">controllers</text><!--MD5=[e2a75efa8a0f57c2afae8bf75386f79c]
cluster views--><polygon fill="#FFFFFF" filter="url(#f1pumthg35rs12)" points="554,6,601,6,608,29.6094,1211,29.6094,1211,218,554,218,554,6" style="stroke:#000000;stroke-width:1.5;"/><line style="stroke:#000000;stroke-width:1.5;" x1="554" x2="608" y1="29.6094" y2="29.6094"/><text fill="#000000" font-family="sans-serif" font-size="14" font-weight="bold" lengthAdjust="spacing" textLength="41" x="558" y="22.5332">views</text><!--MD5=[d9d97fb087edb23fa2cf69ae7cf5153c]
entity Company--><ellipse cx="484" cy="58" fill="#FEFECE" filter="url(#f1pumthg35rs12)" rx="12" ry="12" style="stroke:#A80036;stroke-width:1.5;"/><line style="stroke:#A80036;stroke-width:1.5;" x1="472" x2="496" y1="72" y2="72"/><text fill="#000000" font-family="sans-serif" font-size="14" lengthAdjust="spacing" textLength="60" x="454" y="88.5332">Company</text><!--MD5=[1aff173c868ede422c18cd48e69ef48c]
entity CreateCompanyController--><ellipse cx="116" cy="58" fill="#FEFECE" filter="url(#f1pumthg35rs12)" rx="12" ry="12" style="stroke:#A80036;stroke-width:1.5;"/><polygon fill="#A80036" points="112,46,118,41,116,46,118,51,112,46" style="stroke:#A80036;stroke-width:1.0;"/><text fill="#000000" font-family="sans-serif" font-size="14" lengthAdjust="spacing" textLength="165" x="33.5" y="88.5332">CreateCompanyController</text><!--MD5=[f232f20c3e01e7aba1072c1becddffc9]
entity ReadCompanyController--><ellipse cx="312" cy="58" fill="#FEFECE" filter="url(#f1pumthg35rs12)" rx="12" ry="12" style="stroke:#A80036;stroke-width:1.5;"/><polygon fill="#A80036" points="308,46,314,41,312,46,314,51,308,46" style="stroke:#A80036;stroke-width:1.0;"/><text fill="#000000" font-family="sans-serif" font-size="14" lengthAdjust="spacing" textLength="156" x="234" y="88.5332">ReadCompanyController</text><!--MD5=[512598c51f2bf96d7f1e6a2529747291]
entity UpdateCompanyController--><ellipse cx="116" cy="168" fill="#FEFECE" filter="url(#f1pumthg35rs12)" rx="12" ry="12" style="stroke:#A80036;stroke-width:1.5;"/><polygon fill="#A80036" points="112,156,118,151,116,156,118,161,112,156" style="stroke:#A80036;stroke-width:1.0;"/><text fill="#000000" font-family="sans-serif" font-size="14" lengthAdjust="spacing" textLength="167" x="32.5" y="198.5332">UpdateCompanyController</text><!--MD5=[a8d9fc76b4d5253057ebb5881013fc37]
entity DeleteCompanyController--><ellipse cx="316" cy="168" fill="#FEFECE" filter="url(#f1pumthg35rs12)" rx="12" ry="12" style="stroke:#A80036;stroke-width:1.5;"/><polygon fill="#A80036" points="312,156,318,151,316,156,318,161,312,156" style="stroke:#A80036;stroke-width:1.0;"/><text fill="#000000" font-family="sans-serif" font-size="14" lengthAdjust="spacing" textLength="163" x="234.5" y="198.5332">DeleteCompanyController</text><!--MD5=[5471d17d05e3afc584d1aa14e7e5fc72]
entity CompanyView--><path d="M860.5,46 L860.5,70 M860.5,58 L877.5,58 " fill="none" filter="url(#f1pumthg35rs12)" style="stroke:#A80036;stroke-width:1.5;"/><ellipse cx="889.5" cy="58" fill="#FEFECE" filter="url(#f1pumthg35rs12)" rx="12" ry="12" style="stroke:#A80036;stroke-width:1.5;"/><text fill="#000000" font-family="sans-serif" font-size="14" lengthAdjust="spacing" textLength="89" x="836.5" y="88.5332">CompanyView</text><!--MD5=[041d18acd91a1b87b795fb20172e71b5]
entity CreateCompanyView--><path d="M615.5,156 L615.5,180 M615.5,168 L632.5,168 " fill="none" filter="url(#f1pumthg35rs12)" style="stroke:#A80036;stroke-width:1.5;"/><ellipse cx="644.5" cy="168" fill="#FEFECE" filter="url(#f1pumthg35rs12)" rx="12" ry="12" style="stroke:#A80036;stroke-width:1.5;"/><text fill="#000000" font-family="sans-serif" font-size="14" lengthAdjust="spacing" textLength="132" x="570" y="198.5332">CreateCompanyView</text><!--MD5=[c3162bcc1cd1d19d18cc0fd87b07c78f]
entity ReadCompanyView--><path d="M778.5,156 L778.5,180 M778.5,168 L795.5,168 " fill="none" filter="url(#f1pumthg35rs12)" style="stroke:#A80036;stroke-width:1.5;"/><ellipse cx="807.5" cy="168" fill="#FEFECE" filter="url(#f1pumthg35rs12)" rx="12" ry="12" style="stroke:#A80036;stroke-width:1.5;"/><text fill="#000000" font-family="sans-serif" font-size="14" lengthAdjust="spacing" textLength="123" x="737.5" y="198.5332">ReadCompanyView</text><!--MD5=[45ba8ba2113807f56d71483f28e9c8df]
entity UpdateCompanyView--><path d="M942.5,156 L942.5,180 M942.5,168 L959.5,168 " fill="none" filter="url(#f1pumthg35rs12)" style="stroke:#A80036;stroke-width:1.5;"/><ellipse cx="971.5" cy="168" fill="#FEFECE" filter="url(#f1pumthg35rs12)" rx="12" ry="12" style="stroke:#A80036;stroke-width:1.5;"/><text fill="#000000" font-family="sans-serif" font-size="14" lengthAdjust="spacing" textLength="134" x="896" y="198.5332">UpdateCompanyView</text><!--MD5=[926fbe7c186146ef15348e5a60558bd5]
entity DeleteCompanyView--><path d="M1109.5,156 L1109.5,180 M1109.5,168 L1126.5,168 " fill="none" filter="url(#f1pumthg35rs12)" style="stroke:#A80036;stroke-width:1.5;"/><ellipse cx="1138.5" cy="168" fill="#FEFECE" filter="url(#f1pumthg35rs12)" rx="12" ry="12" style="stroke:#A80036;stroke-width:1.5;"/><text fill="#000000" font-family="sans-serif" font-size="14" lengthAdjust="spacing" textLength="130" x="1065" y="198.5332">DeleteCompanyView</text><!--MD5=[505e65e9bf07d3835122675bedfcc3f9]
link CompanyView to CreateCompanyView--><path d="M825.3686,92.5182 C825.3686,92.5182 740.75,129.82 702.65,146.62 " fill="none" id="CompanyView-CreateCompanyView" style="stroke:#A80036;stroke-width:1.0;"/><polygon fill="#A80036" points="690.63,151.92,700.4788,151.9519,695.2056,149.9041,697.2534,144.6309,690.63,151.92" style="stroke:#A80036;stroke-width:1.0;"/><line style="stroke:#A80036;stroke-width:1.0;" x1="695.2056" x2="702.525" y1="149.9041" y2="146.675"/><polygon fill="#FFFFFF" points="836.35,87.68,829.2466,86.4386,825.3686,92.5182,832.472,93.7596,836.35,87.68" style="stroke:#A80036;stroke-width:1.0;"/><!--MD5=[cb7d8b3c82e4905715e489fe9f4b3923]
link CompanyView to ReadCompanyView--><path d="M855.3474,101.8003 C855.3474,101.8003 834.6,129.12 825.22,141.47 " fill="none" id="CompanyView-ReadCompanyView" style="stroke:#A80036;stroke-width:1.0;"/><polygon fill="#A80036" points="817.34,151.84,825.9662,147.0873,820.3619,147.8565,819.5927,142.2522,817.34,151.84" style="stroke:#A80036;stroke-width:1.0;"/><line style="stroke:#A80036;stroke-width:1.0;" x1="820.3619" x2="825.205" y1="147.8565" y2="141.49"/><polygon fill="#FFFFFF" points="862.6,92.24,855.7869,94.6026,855.3474,101.8003,862.1604,99.4377,862.6,92.24" style="stroke:#A80036;stroke-width:1.0;"/><!--MD5=[a1095254f984fdf2782acb7a27683014]
link CompanyView to UpdateCompanyView--><path d="M906.6526,101.8003 C906.6526,101.8003 927.4,129.12 936.78,141.47 " fill="none" id="CompanyView-UpdateCompanyView" style="stroke:#A80036;stroke-width:1.0;"/><polygon fill="#A80036" points="944.66,151.84,942.4073,142.2522,941.6381,147.8565,936.0338,147.0873,944.66,151.84" style="stroke:#A80036;stroke-width:1.0;"/><line style="stroke:#A80036;stroke-width:1.0;" x1="941.6381" x2="936.795" y1="147.8565" y2="141.49"/><polygon fill="#FFFFFF" points="899.4,92.24,899.8396,99.4377,906.6526,101.8003,906.2131,94.6026,899.4,92.24" style="stroke:#A80036;stroke-width:1.0;"/><!--MD5=[e3acde48097fc0318fff71b95f5c1403]
link CompanyView to DeleteCompanyView--><path d="M936.5299,92.0831 C936.5299,92.0831 1023.31,129.73 1062.46,146.71 " fill="none" id="CompanyView-DeleteCompanyView" style="stroke:#A80036;stroke-width:1.0;"/><polygon fill="#A80036" points="1074.54,151.95,1067.8736,144.7002,1069.9526,149.9612,1064.6916,152.0401,1074.54,151.95" style="stroke:#A80036;stroke-width:1.0;"/><line style="stroke:#A80036;stroke-width:1.0;" x1="1069.9526" x2="1062.61" y1="149.9612" y2="146.775"/><polygon fill="#FFFFFF" points="925.52,87.31,929.4339,93.3665,936.5299,92.0831,932.616,86.0266,925.52,87.31" style="stroke:#A80036;stroke-width:1.0;"/><!--MD5=[754b91dc1bfc1c9ee8da160403827a2d]
link CreateCompanyController to ReadCompanyController--><!--MD5=[0335073b9ea988e0614a233263a2f91d]
link CreateCompanyController to UpdateCompanyController--><!--MD5=[554106872a7d5c27eeb14d93d74189cc]
link UpdateCompanyController to DeleteCompanyController--><!--MD5=[f173c32666d00aa5129ad7fe556c028a]
@startuml Packages

 package models{
      entity Company
    }

  package controllers{
    control CreateCompanyController
    control ReadCompanyController
    control UpdateCompanyController
    control DeleteCompanyController
  }

  package views{
    boundary CompanyView
    boundary CreateCompanyView
    boundary ReadCompanyView
    boundary UpdateCompanyView
    boundary DeleteCompanyView
    CompanyView o- ->CreateCompanyView
    CompanyView o- ->ReadCompanyView
    CompanyView o- ->UpdateCompanyView
    CompanyView o- ->DeleteCompanyView
  }

@enduml

PlantUML version 1.2021.16(Wed Dec 08 18:25:22 CET 2021)
(GPL source distribution)
Java Runtime: OpenJDK Runtime Environment
JVM: OpenJDK 64-Bit Server VM
Default Encoding: Cp1252
Language: es
Country: ES
--></g></svg>