<?xml version="1.0" encoding="UTF-8" standalone="no"?><svg xmlns="http://www.w3.org/2000/svg" xmlns:xlink="http://www.w3.org/1999/xlink" contentScriptType="application/ecmascript" contentStyleType="text/css" height="225px" preserveAspectRatio="none" style="width:1400px;height:225px;background:#FFFFFF;" version="1.1" viewBox="0 0 1400 225" width="1400px" zoomAndPan="magnify"><defs><filter height="300%" id="f3tm1cgd3p5xj" width="300%" x="-1" y="-1"><feGaussianBlur result="blurOut" stdDeviation="2.0"/><feColorMatrix in="blurOut" result="blurOut2" type="matrix" values="0 0 0 0 0 0 0 0 0 0 0 0 0 0 0 0 0 0 .4 0"/><feOffset dx="4.0" dy="4.0" in="blurOut2" result="blurOut3"/><feBlend in="SourceGraphic" in2="blurOut3" mode="normal"/></filter></defs><g><!--MD5=[91ff603deb7aaca258930deb7c8c410d]
cluster apps.shared.views--><polygon fill="#FFFFFF" filter="url(#f3tm1cgd3p5xj)" points="438,6,576,6,583,29.6094,586,29.6094,586,108,438,108,438,6" style="stroke:#000000;stroke-width:1.5;"/><line style="stroke:#000000;stroke-width:1.5;" x1="438" x2="583" y1="29.6094" y2="29.6094"/><text fill="#000000" font-family="sans-serif" font-size="14" font-weight="bold" lengthAdjust="spacing" textLength="132" x="442" y="22.5332">apps.shared.views</text><!--MD5=[a60570e4b426f702ccbb0d459e3b9417]
cluster models--><polygon fill="#FFFFFF" filter="url(#f3tm1cgd3p5xj)" points="610,6,667,6,674,29.6094,702,29.6094,702,108,610,108,610,6" style="stroke:#000000;stroke-width:1.5;"/><line style="stroke:#000000;stroke-width:1.5;" x1="610" x2="674" y1="29.6094" y2="29.6094"/><text fill="#000000" font-family="sans-serif" font-size="14" font-weight="bold" lengthAdjust="spacing" textLength="51" x="614" y="22.5332">models</text><!--MD5=[f4e70ef68289585296b9045165e58692]
cluster controllers--><polygon fill="#FFFFFF" filter="url(#f3tm1cgd3p5xj)" points="16,6,99,6,106,29.6094,414,29.6094,414,218,16,218,16,6" style="stroke:#000000;stroke-width:1.5;"/><line style="stroke:#000000;stroke-width:1.5;" x1="16" x2="106" y1="29.6094" y2="29.6094"/><text fill="#000000" font-family="sans-serif" font-size="14" font-weight="bold" lengthAdjust="spacing" textLength="77" x="20" y="22.5332">controllers</text><!--MD5=[e2a75efa8a0f57c2afae8bf75386f79c]
cluster views--><polygon fill="#FFFFFF" filter="url(#f3tm1cgd3p5xj)" points="726,6,773,6,780,29.6094,1383,29.6094,1383,218,726,218,726,6" style="stroke:#000000;stroke-width:1.5;"/><line style="stroke:#000000;stroke-width:1.5;" x1="726" x2="780" y1="29.6094" y2="29.6094"/><text fill="#000000" font-family="sans-serif" font-size="14" font-weight="bold" lengthAdjust="spacing" textLength="41" x="730" y="22.5332">views</text><!--MD5=[c7300ace4561a9d5ba38378fdca5fe3a]
entity Menu--><path d="M491.5,46 L491.5,70 M491.5,58 L508.5,58 " fill="none" filter="url(#f3tm1cgd3p5xj)" style="stroke:#A80036;stroke-width:1.5;"/><ellipse cx="520.5" cy="58" fill="#FEFECE" filter="url(#f3tm1cgd3p5xj)" rx="12" ry="12" style="stroke:#A80036;stroke-width:1.5;"/><text fill="#000000" font-family="sans-serif" font-size="14" lengthAdjust="spacing" textLength="35" x="494.5" y="88.5332">Menu</text><!--MD5=[d9d97fb087edb23fa2cf69ae7cf5153c]
entity Company--><ellipse cx="656" cy="58" fill="#FEFECE" filter="url(#f3tm1cgd3p5xj)" rx="12" ry="12" style="stroke:#A80036;stroke-width:1.5;"/><line style="stroke:#A80036;stroke-width:1.5;" x1="644" x2="668" y1="72" y2="72"/><text fill="#000000" font-family="sans-serif" font-size="14" lengthAdjust="spacing" textLength="60" x="626" y="88.5332">Company</text><!--MD5=[1aff173c868ede422c18cd48e69ef48c]
entity CreateCompanyController--><ellipse cx="116" cy="58" fill="#FEFECE" filter="url(#f3tm1cgd3p5xj)" rx="12" ry="12" style="stroke:#A80036;stroke-width:1.5;"/><polygon fill="#A80036" points="112,46,118,41,116,46,118,51,112,46" style="stroke:#A80036;stroke-width:1.0;"/><text fill="#000000" font-family="sans-serif" font-size="14" lengthAdjust="spacing" textLength="165" x="33.5" y="88.5332">CreateCompanyController</text><!--MD5=[f232f20c3e01e7aba1072c1becddffc9]
entity ReadCompanyController--><ellipse cx="312" cy="58" fill="#FEFECE" filter="url(#f3tm1cgd3p5xj)" rx="12" ry="12" style="stroke:#A80036;stroke-width:1.5;"/><polygon fill="#A80036" points="308,46,314,41,312,46,314,51,308,46" style="stroke:#A80036;stroke-width:1.0;"/><text fill="#000000" font-family="sans-serif" font-size="14" lengthAdjust="spacing" textLength="156" x="234" y="88.5332">ReadCompanyController</text><!--MD5=[512598c51f2bf96d7f1e6a2529747291]
entity UpdateCompanyController--><ellipse cx="116" cy="168" fill="#FEFECE" filter="url(#f3tm1cgd3p5xj)" rx="12" ry="12" style="stroke:#A80036;stroke-width:1.5;"/><polygon fill="#A80036" points="112,156,118,151,116,156,118,161,112,156" style="stroke:#A80036;stroke-width:1.0;"/><text fill="#000000" font-family="sans-serif" font-size="14" lengthAdjust="spacing" textLength="167" x="32.5" y="198.5332">UpdateCompanyController</text><!--MD5=[a8d9fc76b4d5253057ebb5881013fc37]
entity DeleteCompanyController--><ellipse cx="316" cy="168" fill="#FEFECE" filter="url(#f3tm1cgd3p5xj)" rx="12" ry="12" style="stroke:#A80036;stroke-width:1.5;"/><polygon fill="#A80036" points="312,156,318,151,316,156,318,161,312,156" style="stroke:#A80036;stroke-width:1.0;"/><text fill="#000000" font-family="sans-serif" font-size="14" lengthAdjust="spacing" textLength="163" x="234.5" y="198.5332">DeleteCompanyController</text><!--MD5=[5471d17d05e3afc584d1aa14e7e5fc72]
entity CompanyView--><path d="M1032.5,46 L1032.5,70 M1032.5,58 L1049.5,58 " fill="none" filter="url(#f3tm1cgd3p5xj)" style="stroke:#A80036;stroke-width:1.5;"/><ellipse cx="1061.5" cy="58" fill="#FEFECE" filter="url(#f3tm1cgd3p5xj)" rx="12" ry="12" style="stroke:#A80036;stroke-width:1.5;"/><text fill="#000000" font-family="sans-serif" font-size="14" lengthAdjust="spacing" textLength="89" x="1008.5" y="88.5332">CompanyView</text><!--MD5=[041d18acd91a1b87b795fb20172e71b5]
entity CreateCompanyView--><path d="M787.5,156 L787.5,180 M787.5,168 L804.5,168 " fill="none" filter="url(#f3tm1cgd3p5xj)" style="stroke:#A80036;stroke-width:1.5;"/><ellipse cx="816.5" cy="168" fill="#FEFECE" filter="url(#f3tm1cgd3p5xj)" rx="12" ry="12" style="stroke:#A80036;stroke-width:1.5;"/><text fill="#000000" font-family="sans-serif" font-size="14" lengthAdjust="spacing" textLength="132" x="742" y="198.5332">CreateCompanyView</text><!--MD5=[c3162bcc1cd1d19d18cc0fd87b07c78f]
entity ReadCompanyView--><path d="M950.5,156 L950.5,180 M950.5,168 L967.5,168 " fill="none" filter="url(#f3tm1cgd3p5xj)" style="stroke:#A80036;stroke-width:1.5;"/><ellipse cx="979.5" cy="168" fill="#FEFECE" filter="url(#f3tm1cgd3p5xj)" rx="12" ry="12" style="stroke:#A80036;stroke-width:1.5;"/><text fill="#000000" font-family="sans-serif" font-size="14" lengthAdjust="spacing" textLength="123" x="909.5" y="198.5332">ReadCompanyView</text><!--MD5=[45ba8ba2113807f56d71483f28e9c8df]
entity UpdateCompanyView--><path d="M1114.5,156 L1114.5,180 M1114.5,168 L1131.5,168 " fill="none" filter="url(#f3tm1cgd3p5xj)" style="stroke:#A80036;stroke-width:1.5;"/><ellipse cx="1143.5" cy="168" fill="#FEFECE" filter="url(#f3tm1cgd3p5xj)" rx="12" ry="12" style="stroke:#A80036;stroke-width:1.5;"/><text fill="#000000" font-family="sans-serif" font-size="14" lengthAdjust="spacing" textLength="134" x="1068" y="198.5332">UpdateCompanyView</text><!--MD5=[926fbe7c186146ef15348e5a60558bd5]
entity DeleteCompanyView--><path d="M1281.5,156 L1281.5,180 M1281.5,168 L1298.5,168 " fill="none" filter="url(#f3tm1cgd3p5xj)" style="stroke:#A80036;stroke-width:1.5;"/><ellipse cx="1310.5" cy="168" fill="#FEFECE" filter="url(#f3tm1cgd3p5xj)" rx="12" ry="12" style="stroke:#A80036;stroke-width:1.5;"/><text fill="#000000" font-family="sans-serif" font-size="14" lengthAdjust="spacing" textLength="130" x="1237" y="198.5332">DeleteCompanyView</text><!--MD5=[505e65e9bf07d3835122675bedfcc3f9]
link CompanyView to CreateCompanyView--><path d="M997.3686,92.5182 C997.3686,92.5182 912.75,129.82 874.65,146.62 " fill="none" id="CompanyView-CreateCompanyView" style="stroke:#A80036;stroke-width:1.0;"/><polygon fill="#A80036" points="862.63,151.92,872.4788,151.9519,867.2056,149.9041,869.2534,144.6309,862.63,151.92" style="stroke:#A80036;stroke-width:1.0;"/><line style="stroke:#A80036;stroke-width:1.0;" x1="867.2056" x2="874.525" y1="149.9041" y2="146.675"/><polygon fill="#FFFFFF" points="1008.35,87.68,1001.2466,86.4386,997.3686,92.5182,1004.472,93.7596,1008.35,87.68" style="stroke:#A80036;stroke-width:1.0;"/><!--MD5=[cb7d8b3c82e4905715e489fe9f4b3923]
link CompanyView to ReadCompanyView--><path d="M1027.3474,101.8003 C1027.3474,101.8003 1006.6,129.12 997.22,141.47 " fill="none" id="CompanyView-ReadCompanyView" style="stroke:#A80036;stroke-width:1.0;"/><polygon fill="#A80036" points="989.34,151.84,997.9662,147.0873,992.3619,147.8565,991.5927,142.2522,989.34,151.84" style="stroke:#A80036;stroke-width:1.0;"/><line style="stroke:#A80036;stroke-width:1.0;" x1="992.3619" x2="997.205" y1="147.8565" y2="141.49"/><polygon fill="#FFFFFF" points="1034.6,92.24,1027.7869,94.6026,1027.3474,101.8003,1034.1604,99.4377,1034.6,92.24" style="stroke:#A80036;stroke-width:1.0;"/><!--MD5=[a1095254f984fdf2782acb7a27683014]
link CompanyView to UpdateCompanyView--><path d="M1078.6526,101.8003 C1078.6526,101.8003 1099.4,129.12 1108.78,141.47 " fill="none" id="CompanyView-UpdateCompanyView" style="stroke:#A80036;stroke-width:1.0;"/><polygon fill="#A80036" points="1116.66,151.84,1114.4073,142.2522,1113.6381,147.8565,1108.0338,147.0873,1116.66,151.84" style="stroke:#A80036;stroke-width:1.0;"/><line style="stroke:#A80036;stroke-width:1.0;" x1="1113.6381" x2="1108.795" y1="147.8565" y2="141.49"/><polygon fill="#FFFFFF" points="1071.4,92.24,1071.8396,99.4377,1078.6526,101.8003,1078.2131,94.6026,1071.4,92.24" style="stroke:#A80036;stroke-width:1.0;"/><!--MD5=[e3acde48097fc0318fff71b95f5c1403]
link CompanyView to DeleteCompanyView--><path d="M1108.5299,92.0831 C1108.5299,92.0831 1195.31,129.73 1234.46,146.71 " fill="none" id="CompanyView-DeleteCompanyView" style="stroke:#A80036;stroke-width:1.0;"/><polygon fill="#A80036" points="1246.54,151.95,1239.8736,144.7002,1241.9526,149.9612,1236.6916,152.0401,1246.54,151.95" style="stroke:#A80036;stroke-width:1.0;"/><line style="stroke:#A80036;stroke-width:1.0;" x1="1241.9526" x2="1234.61" y1="149.9612" y2="146.775"/><polygon fill="#FFFFFF" points="1097.52,87.31,1101.4339,93.3665,1108.5299,92.0831,1104.616,86.0266,1097.52,87.31" style="stroke:#A80036;stroke-width:1.0;"/><!--MD5=[754b91dc1bfc1c9ee8da160403827a2d]
link CreateCompanyController to ReadCompanyController--><!--MD5=[0335073b9ea988e0614a233263a2f91d]
link CreateCompanyController to UpdateCompanyController--><!--MD5=[554106872a7d5c27eeb14d93d74189cc]
link UpdateCompanyController to DeleteCompanyController--><!--MD5=[1ac19dd61ff81f380939a8afd36c53ba]
@startuml Packages
  package apps.shared.views {
    boundary Menu
  }

 package models{
      entity Company
    }

  package controllers{
    control CreateCompanyController
    control ReadCompanyController
    control UpdateCompanyController
    control DeleteCompanyController
  }

  package views{
    boundary CompanyView
    boundary CreateCompanyView
    boundary ReadCompanyView
    boundary UpdateCompanyView
    boundary DeleteCompanyView
    CompanyView o- ->CreateCompanyView
    CompanyView o- ->ReadCompanyView
    CompanyView o- ->UpdateCompanyView
    CompanyView o- ->DeleteCompanyView
  }

@enduml

PlantUML version 1.2021.16(Wed Dec 08 18:25:22 CET 2021)
(GPL source distribution)
Java Runtime: OpenJDK Runtime Environment
JVM: OpenJDK 64-Bit Server VM
Default Encoding: Cp1252
Language: es
Country: ES
--></g></svg>