<?xml version="1.0" encoding="UTF-8" standalone="no"?><svg xmlns="http://www.w3.org/2000/svg" xmlns:xlink="http://www.w3.org/1999/xlink" contentScriptType="application/ecmascript" contentStyleType="text/css" height="1181px" preserveAspectRatio="none" style="width:551px;height:1181px;background:#FFFFFF;" version="1.1" viewBox="0 0 551 1181" width="551px" zoomAndPan="magnify"><defs><filter height="300%" id="f5lyxpvsuwpo4" width="300%" x="-1" y="-1"><feGaussianBlur result="blurOut" stdDeviation="2.0"/><feColorMatrix in="blurOut" result="blurOut2" type="matrix" values="0 0 0 0 0 0 0 0 0 0 0 0 0 0 0 0 0 0 .4 0"/><feOffset dx="4.0" dy="4.0" in="blurOut2" result="blurOut3"/><feBlend in="SourceGraphic" in2="blurOut3" mode="normal"/></filter></defs><g><text fill="#000000" font-family="sans-serif" font-size="18" lengthAdjust="spacing" textLength="83" x="227.9775" y="18.6855">UseCases</text><!--MD5=[fee662a292a0353a69bd162820bae93b]
entity User--><ellipse cx="20.5" cy="562.1406" fill="#FEFECE" filter="url(#f5lyxpvsuwpo4)" rx="8" ry="8" style="stroke:#A80036;stroke-width:1.5;"/><path d="M20.5,570.1406 L20.5,597.1406 M7.5,578.1406 L33.5,578.1406 M20.5,597.1406 L7.5,612.1406 M20.5,597.1406 L33.5,612.1406 " fill="none" filter="url(#f5lyxpvsuwpo4)" style="stroke:#A80036;stroke-width:1.5;"/><text fill="#000000" font-family="sans-serif" font-size="14" lengthAdjust="spacing" textLength="29" x="6" y="632.1738">User</text><ellipse cx="180.1531" cy="45.0712" fill="#FEFECE" filter="url(#f5lyxpvsuwpo4)" rx="70.1531" ry="16.4306" style="stroke:#A80036;stroke-width:1.5;"/><text fill="#000000" font-family="sans-serif" font-size="14" lengthAdjust="spacing" textLength="88" x="133.1531" y="49.5878">CreateSensor</text><ellipse cx="460.5842" cy="112.9575" fill="#FEFECE" filter="url(#f5lyxpvsuwpo4)" rx="67.0842" ry="15.8168" style="stroke:#A80036;stroke-width:1.5;"/><text fill="#000000" font-family="sans-serif" font-size="14" lengthAdjust="spacing" textLength="79" x="418.0842" y="117.4741">ReadSensor</text><ellipse cx="179.8567" cy="113.212" fill="#FEFECE" filter="url(#f5lyxpvsuwpo4)" rx="70.8567" ry="16.5713" style="stroke:#A80036;stroke-width:1.5;"/><text fill="#000000" font-family="sans-serif" font-size="14" lengthAdjust="spacing" textLength="90" x="131.8567" y="117.7286">UpdateSensor</text><ellipse cx="179.957" cy="180.932" fill="#FEFECE" filter="url(#f5lyxpvsuwpo4)" rx="69.457" ry="16.2914" style="stroke:#A80036;stroke-width:1.5;"/><text fill="#000000" font-family="sans-serif" font-size="14" lengthAdjust="spacing" textLength="86" x="133.957" y="185.4486">DeleteSensor</text><ellipse cx="179.8789" cy="251.0164" fill="#FEFECE" filter="url(#f5lyxpvsuwpo4)" rx="79.8789" ry="18.3758" style="stroke:#A80036;stroke-width:1.5;"/><text fill="#000000" font-family="sans-serif" font-size="14" lengthAdjust="spacing" textLength="114" x="121.8373" y="255.043">AddSensorToMap</text><ellipse cx="180.169" cy="324.1744" fill="#FEFECE" filter="url(#f5lyxpvsuwpo4)" rx="83.169" ry="19.0338" style="stroke:#A80036;stroke-width:1.5;"/><text fill="#000000" font-family="sans-serif" font-size="14" lengthAdjust="spacing" textLength="122" x="119.169" y="327.9029">AddSensorToStock</text><ellipse cx="179.9297" cy="394.219" fill="#FEFECE" filter="url(#f5lyxpvsuwpo4)" rx="59.4297" ry="15.5784" style="stroke:#A80036;stroke-width:1.5;"/><text fill="#000000" font-family="sans-serif" font-size="14" lengthAdjust="spacing" textLength="67" x="143.4297" y="398.7356">ShowState</text><ellipse cx="180.2356" cy="460.1898" fill="#FEFECE" filter="url(#f5lyxpvsuwpo4)" rx="55.7356" ry="15.5492" style="stroke:#A80036;stroke-width:1.5;"/><text fill="#000000" font-family="sans-serif" font-size="14" lengthAdjust="spacing" textLength="62" x="146.2356" y="464.7064">PrintState</text><ellipse cx="180.1908" cy="526.2135" fill="#FEFECE" filter="url(#f5lyxpvsuwpo4)" rx="58.6908" ry="15.5728" style="stroke:#A80036;stroke-width:1.5;"/><text fill="#000000" font-family="sans-serif" font-size="14" lengthAdjust="spacing" textLength="66" x="144.1908" y="530.7301">SendState</text><ellipse cx="180.1002" cy="594.1607" fill="#FEFECE" filter="url(#f5lyxpvsuwpo4)" rx="75.6002" ry="17.52" style="stroke:#A80036;stroke-width:1.5;"/><text fill="#000000" font-family="sans-serif" font-size="14" lengthAdjust="spacing" textLength="103" x="125.6002" y="598.6773">CreateCompany</text><ellipse cx="460.2859" cy="663.9978" fill="#FEFECE" filter="url(#f5lyxpvsuwpo4)" rx="72.2859" ry="16.8572" style="stroke:#A80036;stroke-width:1.5;"/><text fill="#000000" font-family="sans-serif" font-size="14" lengthAdjust="spacing" textLength="94" x="410.2859" y="668.5144">ReadCompany</text><ellipse cx="179.855" cy="664.3116" fill="#FEFECE" filter="url(#f5lyxpvsuwpo4)" rx="76.355" ry="17.671" style="stroke:#A80036;stroke-width:1.5;"/><text fill="#000000" font-family="sans-serif" font-size="14" lengthAdjust="spacing" textLength="105" x="124.6233" y="668.7661">UpdateCompany</text><ellipse cx="179.8525" cy="734.0111" fill="#FEFECE" filter="url(#f5lyxpvsuwpo4)" rx="74.8525" ry="17.3705" style="stroke:#A80036;stroke-width:1.5;"/><text fill="#000000" font-family="sans-serif" font-size="14" lengthAdjust="spacing" textLength="101" x="126.3525" y="738.5277">DeleteCompany</text><ellipse cx="180.169" cy="806.1744" fill="#FEFECE" filter="url(#f5lyxpvsuwpo4)" rx="83.169" ry="19.0338" style="stroke:#A80036;stroke-width:1.5;"/><text fill="#000000" font-family="sans-serif" font-size="14" lengthAdjust="spacing" textLength="122" x="119.169" y="809.9029">CreateHeadquarter</text><ellipse cx="460.4775" cy="878.9361" fill="#FEFECE" filter="url(#f5lyxpvsuwpo4)" rx="79.4775" ry="18.2955" style="stroke:#A80036;stroke-width:1.5;"/><text fill="#000000" font-family="sans-serif" font-size="14" lengthAdjust="spacing" textLength="113" x="402.756" y="883.0115">ReadHeadquarter</text><ellipse cx="180.0066" cy="879.3419" fill="#FEFECE" filter="url(#f5lyxpvsuwpo4)" rx="84.0066" ry="19.2013" style="stroke:#A80036;stroke-width:1.5;"/><text fill="#000000" font-family="sans-serif" font-size="14" lengthAdjust="spacing" textLength="124" x="118.0066" y="883.0705">UpdateHeadquarter</text><ellipse cx="179.8351" cy="952.0077" fill="#FEFECE" filter="url(#f5lyxpvsuwpo4)" rx="82.3351" ry="18.867" style="stroke:#A80036;stroke-width:1.5;"/><text fill="#000000" font-family="sans-serif" font-size="14" lengthAdjust="spacing" textLength="120" x="119.8351" y="955.7362">DeleteHeadquarter</text><ellipse cx="180.1463" cy="1022.2348" fill="#FEFECE" filter="url(#f5lyxpvsuwpo4)" rx="61.6463" ry="15.5942" style="stroke:#A80036;stroke-width:1.5;"/><text fill="#000000" font-family="sans-serif" font-size="14" lengthAdjust="spacing" textLength="70" x="142.1463" y="1026.7514">CreateMap</text><ellipse cx="460.4968" cy="1088.1835" fill="#FEFECE" filter="url(#f5lyxpvsuwpo4)" rx="54.9968" ry="15.5429" style="stroke:#A80036;stroke-width:1.5;"/><text fill="#000000" font-family="sans-serif" font-size="14" lengthAdjust="spacing" textLength="61" x="426.9968" y="1092.7001">ReadMap</text><ellipse cx="180.1242" cy="1088.2448" fill="#FEFECE" filter="url(#f5lyxpvsuwpo4)" rx="63.1242" ry="15.6042" style="stroke:#A80036;stroke-width:1.5;"/><text fill="#000000" font-family="sans-serif" font-size="14" lengthAdjust="spacing" textLength="72" x="141.1242" y="1092.7614">UpdateMap</text><ellipse cx="180.1685" cy="1154.2244" fill="#FEFECE" filter="url(#f5lyxpvsuwpo4)" rx="60.1685" ry="15.5838" style="stroke:#A80036;stroke-width:1.5;"/><text fill="#000000" font-family="sans-serif" font-size="14" lengthAdjust="spacing" textLength="68" x="143.1685" y="1158.741">DeleteMap</text><!--MD5=[b92698f1e23482974d7182b61e82bc01]
link User to CreateSensor--><path d="M21.78,552.4106 C23.4,442.5106 33.59,148.7706 96,79.1406 C103.91,70.3106 114.46,63.7306 125.37,58.8306 " fill="none" id="User-to-CreateSensor" style="stroke:#A80036;stroke-width:1.0;"/><polygon fill="#A80036" points="130.06,56.8406,120.2124,56.6835,125.4591,58.7981,123.3444,64.0449,130.06,56.8406" style="stroke:#A80036;stroke-width:1.0;"/><!--MD5=[04631db35cc2553db957e7e166975fd6]
link CreateSensor to ReadSensor--><path d="M229.19,56.9106 C279.11,69.1006 356.84,88.0706 407.96,100.5606 " fill="none" id="CreateSensor-to-ReadSensor" style="stroke:#A80036;stroke-width:1.0;stroke-dasharray:7.0,7.0;"/><polygon fill="#A80036" points="412.82,101.7406,405.0254,95.7204,407.9626,100.5549,403.1281,103.4921,412.82,101.7406" style="stroke:#A80036;stroke-width:1.0;"/><text fill="#000000" font-family="sans-serif" font-size="13" lengthAdjust="spacing" textLength="55" x="295" y="69.6357">«include»</text><!--MD5=[8ca85c4e4cfbf2dc2c2bee0ba0501b46]
link User to UpdateSensor--><path d="M22.92,552.6306 C27.14,453.5206 42.85,206.8706 96,147.1406 C103.79,138.3906 114.17,131.8406 124.95,126.9606 " fill="none" id="User-to-UpdateSensor" style="stroke:#A80036;stroke-width:1.0;"/><polygon fill="#A80036" points="129.58,124.9706,119.7319,124.8504,124.9865,126.9454,122.8915,132.2,129.58,124.9706" style="stroke:#A80036;stroke-width:1.0;"/><!--MD5=[69ff530d038647cba136257ba7a3c3c7]
link UpdateSensor to ReadSensor--><path d="M251.28,113.1406 C293.09,113.1406 345.99,113.1406 388.01,113.1406 " fill="none" id="UpdateSensor-to-ReadSensor" style="stroke:#A80036;stroke-width:1.0;stroke-dasharray:7.0,7.0;"/><polygon fill="#A80036" points="393.08,113.1406,384.08,109.1406,388.08,113.1406,384.08,117.1406,393.08,113.1406" style="stroke:#A80036;stroke-width:1.0;"/><text fill="#000000" font-family="sans-serif" font-size="13" lengthAdjust="spacing" textLength="55" x="295" y="109.6357">«include»</text><!--MD5=[7e4926daeca51387cc70678757fa21c0]
link User to DeleteSensor--><path d="M24.43,552.5806 C31.44,464.8806 51.93,264.9006 96,215.1406 C103.86,206.2706 114.38,199.6606 125.29,194.7706 " fill="none" id="User-to-DeleteSensor" style="stroke:#A80036;stroke-width:1.0;"/><polygon fill="#A80036" points="129.99,192.7706,120.1424,192.6135,125.3891,194.7281,123.2744,199.9749,129.99,192.7706" style="stroke:#A80036;stroke-width:1.0;"/><!--MD5=[f333aa09365d3f7e70c1785c5f1994ea]
link DeleteSensor to ReadSensor--><path d="M229.19,169.3706 C279.11,157.1806 356.84,138.2106 407.96,125.7206 " fill="none" id="DeleteSensor-to-ReadSensor" style="stroke:#A80036;stroke-width:1.0;stroke-dasharray:7.0,7.0;"/><polygon fill="#A80036" points="412.82,124.5406,403.1281,122.7891,407.9626,125.7264,405.0254,130.5609,412.82,124.5406" style="stroke:#A80036;stroke-width:1.0;"/><text fill="#000000" font-family="sans-serif" font-size="13" lengthAdjust="spacing" textLength="55" x="295" y="137.6357">«include»</text><!--MD5=[bb2ed686be5f7b51c3c94592751ab5c7]
link User to AddSensorToMap--><path d="M26.56,552.5506 C36.43,477.9806 60.45,325.6906 96,287.1406 C103.57,278.9306 113.34,272.5006 123.5,267.5006 " fill="none" id="User-to-AddSensorToMap" style="stroke:#A80036;stroke-width:1.0;"/><polygon fill="#A80036" points="128.19,265.3006,118.3433,265.509,123.6649,267.4275,121.7464,272.7491,128.19,265.3006" style="stroke:#A80036;stroke-width:1.0;"/><!--MD5=[e8878dad2101c5e8448074b5702a073a]
link User to AddSensorToStock--><path d="M24,552.4006 C29.25,500.9806 45.53,413.9506 96,361.1406 C103.75,353.0306 113.6,346.5706 123.78,341.4706 " fill="none" id="User-to-AddSensorToStock" style="stroke:#A80036;stroke-width:1.0;"/><polygon fill="#A80036" points="128.48,339.2206,118.6356,339.5172,123.9742,341.388,122.1034,346.7265,128.48,339.2206" style="stroke:#A80036;stroke-width:1.0;"/><!--MD5=[c42a9e4125e55caa0d9e124265415bab]
link User to CreateCompany--><path d="M35.2,594.1406 C49.87,594.1406 74.4,594.1406 99.07,594.1406 " fill="none" id="User-to-CreateCompany" style="stroke:#A80036;stroke-width:1.0;"/><polygon fill="#A80036" points="104.33,594.1406,95.33,590.1406,99.33,594.1406,95.33,598.1406,104.33,594.1406" style="stroke:#A80036;stroke-width:1.0;"/><!--MD5=[a7265d09297b62df9f605e447ff38f57]
link CreateCompany to ReadCompany--><path d="M231.76,606.9006 C280.9,619.2506 355.16,637.9106 405.4,650.5406 " fill="none" id="CreateCompany-to-ReadCompany" style="stroke:#A80036;stroke-width:1.0;stroke-dasharray:7.0,7.0;"/><polygon fill="#A80036" points="410.49,651.8206,402.7331,645.7518,405.6401,650.6046,400.7874,653.5116,410.49,651.8206" style="stroke:#A80036;stroke-width:1.0;"/><text fill="#000000" font-family="sans-serif" font-size="13" lengthAdjust="spacing" textLength="55" x="295" y="619.6357">«include»</text><!--MD5=[3ef266a90aeafe566ec3bb53b08b9d11]
link User to UpdateCompany--><path d="M35.16,600.7606 C50.04,607.9206 74.59,619.6006 96,629.1406 C109.23,635.0306 123.75,641.2506 136.9,646.7706 " fill="none" id="User-to-UpdateCompany" style="stroke:#A80036;stroke-width:1.0;"/><polygon fill="#A80036" points="141.68,648.7806,134.9186,641.6193,137.0667,646.8525,131.8336,649.0006,141.68,648.7806" style="stroke:#A80036;stroke-width:1.0;"/><!--MD5=[82b6bef1b8599d0d2e8bcc21c9c287f9]
link UpdateCompany to ReadCompany--><path d="M256.73,664.1406 C295.73,664.1406 343.19,664.1406 382.39,664.1406 " fill="none" id="UpdateCompany-to-ReadCompany" style="stroke:#A80036;stroke-width:1.0;stroke-dasharray:7.0,7.0;"/><polygon fill="#A80036" points="387.62,664.1406,378.62,660.1406,382.62,664.1406,378.62,668.1406,387.62,664.1406" style="stroke:#A80036;stroke-width:1.0;"/><text fill="#000000" font-family="sans-serif" font-size="13" lengthAdjust="spacing" textLength="55" x="295" y="660.6357">«include»</text><!--MD5=[1e8515fb17bd71a63edb4f4738ace3d2]
link User to DeleteCompany--><path d="M35.02,621.0606 C47.93,644.4106 69.33,677.7306 96,699.1406 C105.6,706.8506 117.15,713.1306 128.54,718.1306 " fill="none" id="User-to-DeleteCompany" style="stroke:#A80036;stroke-width:1.0;"/><polygon fill="#A80036" points="133.41,720.1906,126.6944,712.9864,128.8091,718.2331,123.5624,720.3478,133.41,720.1906" style="stroke:#A80036;stroke-width:1.0;"/><!--MD5=[47dfd7ffde06a2c62c8beaff823017d7]
link DeleteCompany to ReadCompany--><path d="M231.76,721.3806 C280.9,709.0306 355.16,690.3706 405.4,677.7406 " fill="none" id="DeleteCompany-to-ReadCompany" style="stroke:#A80036;stroke-width:1.0;stroke-dasharray:7.0,7.0;"/><polygon fill="#A80036" points="410.49,676.4606,400.7874,674.7696,405.6401,677.6767,402.7331,682.5294,410.49,676.4606" style="stroke:#A80036;stroke-width:1.0;"/><text fill="#000000" font-family="sans-serif" font-size="13" lengthAdjust="spacing" textLength="55" x="295" y="689.6357">«include»</text><!--MD5=[33f2aea30f0d171682bb1b02943c3d26]
link User to CreateHeadquarter--><path d="M30,635.8306 C39.87,674.7306 59.65,732.1706 96,769.1406 C103.96,777.2406 114.01,783.7106 124.34,788.8206 " fill="none" id="User-to-CreateHeadquarter" style="stroke:#A80036;stroke-width:1.0;"/><polygon fill="#A80036" points="129.1,791.0806,122.6757,783.6155,124.5804,788.942,119.2539,790.8468,129.1,791.0806" style="stroke:#A80036;stroke-width:1.0;"/><!--MD5=[74ac568a3079b3f9e72cdc67b6885e1a]
link CreateHeadquarter to ReadHeadquarter--><path d="M235.36,820.3906 C283.26,832.9406 352.84,851.1806 401.73,864.0006 " fill="none" id="CreateHeadquarter-to-ReadHeadquarter" style="stroke:#A80036;stroke-width:1.0;stroke-dasharray:7.0,7.0;"/><polygon fill="#A80036" points="406.7,865.3006,398.9982,859.1621,401.8613,864.0408,396.9825,866.904,406.7,865.3006" style="stroke:#A80036;stroke-width:1.0;"/><text fill="#000000" font-family="sans-serif" font-size="13" lengthAdjust="spacing" textLength="55" x="295" y="832.6357">«include»</text><!--MD5=[b9ec8268ba33dc83598a135efcbba8c6]
link User to UpdateHeadquarter--><path d="M23.63,636.1006 C28.48,689.9506 44.32,783.4206 96,842.1406 C103.23,850.3606 112.64,856.8406 122.51,861.9206 " fill="none" id="User-to-UpdateHeadquarter" style="stroke:#A80036;stroke-width:1.0;"/><polygon fill="#A80036" points="127.07,864.1606,120.7414,856.6142,122.5781,861.9646,117.2277,863.8013,127.07,864.1606" style="stroke:#A80036;stroke-width:1.0;"/><!--MD5=[39b70e773b7f224fe3738183fb637857]
link UpdateHeadquarter to ReadHeadquarter--><path d="M264.18,879.1406 C299.32,879.1406 340.17,879.1406 375.41,879.1406 " fill="none" id="UpdateHeadquarter-to-ReadHeadquarter" style="stroke:#A80036;stroke-width:1.0;stroke-dasharray:7.0,7.0;"/><polygon fill="#A80036" points="380.56,879.1406,371.56,875.1406,375.56,879.1406,371.56,883.1406,380.56,879.1406" style="stroke:#A80036;stroke-width:1.0;"/><text fill="#000000" font-family="sans-serif" font-size="13" lengthAdjust="spacing" textLength="55" x="295" y="875.6357">«include»</text><!--MD5=[a30760316af21f98c30f6ff6deffed31]
link User to DeleteHeadquarter--><path d="M26.34,635.9006 C36.03,712.9506 60.03,873.4506 96,915.1406 C103.24,923.5306 112.75,930.1006 122.75,935.2206 " fill="none" id="User-to-DeleteHeadquarter" style="stroke:#A80036;stroke-width:1.0;"/><polygon fill="#A80036" points="127.37,937.4706,121.022,929.9405,122.8725,935.2861,117.5268,937.1365,127.37,937.4706" style="stroke:#A80036;stroke-width:1.0;"/><!--MD5=[eac218056cec3259be23ef64a1bd3ae1]
link DeleteHeadquarter to ReadHeadquarter--><path d="M235.03,937.9806 C283.05,925.3906 353.04,907.0506 402.06,894.2006 " fill="none" id="DeleteHeadquarter-to-ReadHeadquarter" style="stroke:#A80036;stroke-width:1.0;stroke-dasharray:7.0,7.0;"/><polygon fill="#A80036" points="407.04,892.8906,397.3181,891.3142,402.2048,894.1638,399.3552,899.0505,407.04,892.8906" style="stroke:#A80036;stroke-width:1.0;"/><text fill="#000000" font-family="sans-serif" font-size="13" lengthAdjust="spacing" textLength="55" x="295" y="905.6357">«include»</text><!--MD5=[ac93ef03d40fbbe5d390fd99ec55eb21]
link User to CreateMap--><path d="M24.24,635.8506 C30.95,726.0406 51.07,935.3006 96,988.1406 C104.46,998.0906 116.28,1005.1706 128.36,1010.1906 " fill="none" id="User-to-CreateMap" style="stroke:#A80036;stroke-width:1.0;"/><polygon fill="#A80036" points="133.18,1012.0806,126.2719,1005.0608,128.5278,1010.2484,123.3403,1012.5043,133.18,1012.0806" style="stroke:#A80036;stroke-width:1.0;"/><!--MD5=[1f43eab89bbf7e1b03b5afc47284c313]
link CreateMap to ReadMap--><path d="M225.44,1032.6706 C276.76,1044.8306 360.82,1064.7506 413,1077.1206 " fill="none" id="CreateMap-to-ReadMap" style="stroke:#A80036;stroke-width:1.0;stroke-dasharray:7.0,7.0;"/><polygon fill="#A80036" points="417.95,1078.2906,410.122,1072.3138,413.0861,1077.1319,408.268,1080.096,417.95,1078.2906" style="stroke:#A80036;stroke-width:1.0;"/><text fill="#000000" font-family="sans-serif" font-size="13" lengthAdjust="spacing" textLength="55" x="295" y="1046.6357">«include»</text><!--MD5=[d4161b734182b61ab89160b113a5da06]
link User to UpdateMap--><path d="M22.76,635.7506 C26.67,737.0306 41.78,992.7006 96,1055.1406 C104.1,1064.4606 115.18,1071.1806 126.62,1076.0106 " fill="none" id="User-to-UpdateMap" style="stroke:#A80036;stroke-width:1.0;"/><polygon fill="#A80036" points="131.54,1077.9606,124.6693,1070.9042,126.8976,1076.1037,121.6981,1078.332,131.54,1077.9606" style="stroke:#A80036;stroke-width:1.0;"/><!--MD5=[6d3f8f9dd51cf0c4f76abbdd8ca7d63c]
link UpdateMap to ReadMap--><path d="M243.15,1088.1406 C289.93,1088.1406 353.64,1088.1406 399.81,1088.1406 " fill="none" id="UpdateMap-to-ReadMap" style="stroke:#A80036;stroke-width:1.0;stroke-dasharray:7.0,7.0;"/><polygon fill="#A80036" points="405.06,1088.1406,396.06,1084.1406,400.06,1088.1406,396.06,1092.1406,405.06,1088.1406" style="stroke:#A80036;stroke-width:1.0;"/><text fill="#000000" font-family="sans-serif" font-size="13" lengthAdjust="spacing" textLength="55" x="295" y="1084.6357">«include»</text><!--MD5=[4d54404d05c167f2b0aa623da6f83179]
link User to DeleteMap--><path d="M21.7,635.9606 C23.11,747.5906 32.81,1049.0406 96,1121.1406 C104.48,1130.8206 116.19,1137.6906 128.13,1142.5606 " fill="none" id="User-to-DeleteMap" style="stroke:#A80036;stroke-width:1.0;"/><polygon fill="#A80036" points="132.9,1144.3906,125.9401,1137.4222,128.2344,1142.5929,123.0637,1144.8872,132.9,1144.3906" style="stroke:#A80036;stroke-width:1.0;"/><!--MD5=[c9b1f4dc837b13fb2f18a1d4579e8df6]
link DeleteMap to ReadMap--><path d="M225.04,1143.8306 C259.37,1135.7806 308.23,1124.3006 351,1114.1406 C371.24,1109.3306 393.6,1103.9806 412.73,1099.3906 " fill="none" id="DeleteMap-to-ReadMap" style="stroke:#A80036;stroke-width:1.0;stroke-dasharray:7.0,7.0;"/><polygon fill="#A80036" points="418.03,1098.1206,408.3442,1096.3357,413.1686,1099.2896,410.2147,1104.114,418.03,1098.1206" style="stroke:#A80036;stroke-width:1.0;"/><text fill="#000000" font-family="sans-serif" font-size="13" lengthAdjust="spacing" textLength="55" x="295" y="1110.6357">«include»</text><!--MD5=[87b7235427475e1aa704dc99a83c5cf3]
link User to ShowState--><path d="M30.56,552.5806 C40.67,515.2506 60.5,461.2106 96,427.1406 C105.58,417.9506 118.04,411.2106 130.38,406.3206 " fill="none" id="User-to-ShowState" style="stroke:#A80036;stroke-width:1.0;"/><polygon fill="#A80036" points="135.28,404.4606,125.4465,403.9116,130.6048,406.2335,128.283,411.3919,135.28,404.4606" style="stroke:#A80036;stroke-width:1.0;"/><!--MD5=[077a8af348e2049e6df015fdd3338951]
link User to PrintState--><path d="M35.15,568.1306 C48.15,545.6006 69.6,513.5006 96,493.1406 C107.37,484.3706 121.38,477.6306 134.63,472.5906 " fill="none" id="User-to-PrintState" style="stroke:#A80036;stroke-width:1.0;"/><polygon fill="#A80036" points="139.47,470.8106,129.6442,470.1367,134.7727,472.5239,132.3855,477.6524,139.47,470.8106" style="stroke:#A80036;stroke-width:1.0;"/><!--MD5=[118bf11816bb7dfe45a7e728bb31ea0b]
link User to SendState--><path d="M35.24,585.0306 C43.62,579.7006 54.68,573.0706 65,568.1406 C88.09,557.1006 114.9,547.1006 136.71,539.6206 " fill="none" id="User-to-SendState" style="stroke:#A80036;stroke-width:1.0;"/><polygon fill="#A80036" points="141.58,537.9706,131.7727,537.0663,136.8438,539.5732,134.3369,544.6443,141.58,537.9706" style="stroke:#A80036;stroke-width:1.0;"/><!--MD5=[b47a8c4c2b908a660ad2f2fa6bce141b]
@startuml
title UseCases
left to right direction
actor User

usecase CreateSensor
usecase ReadSensor
usecase UpdateSensor
usecase DeleteSensor
usecase AddSensorToMap
usecase AddSensorToStock

usecase ShowState
usecase PrintState
usecase SendState

usecase CreateCompany
usecase ReadCompany
usecase UpdateCompany
usecase DeleteCompany

usecase CreateHeadquarter
usecase ReadHeadquarter
usecase UpdateHeadquarter
usecase DeleteHeadquarter

usecase CreateMap
usecase ReadMap
usecase UpdateMap
usecase DeleteMap

User - -> CreateSensor
CreateSensor ..> ReadSensor  : "<<include>>"
User - -> UpdateSensor
UpdateSensor ..> ReadSensor  : "<<include>>"
User - -> DeleteSensor
DeleteSensor ..> ReadSensor  : "<<include>>"

User - -> AddSensorToMap
User - -> AddSensorToStock

User - -> CreateCompany
CreateCompany ..> ReadCompany : "<<include>>"
User - -> UpdateCompany
UpdateCompany ..> ReadCompany : "<<include>>"
User - -> DeleteCompany
DeleteCompany ..> ReadCompany : "<<include>>"

User - -> CreateHeadquarter
CreateHeadquarter ..> ReadHeadquarter : "<<include>>"
User - -> UpdateHeadquarter
UpdateHeadquarter ..> ReadHeadquarter : "<<include>>"
User - -> DeleteHeadquarter
DeleteHeadquarter ..> ReadHeadquarter : "<<include>>"

User - -> CreateMap
CreateMap  ..> ReadMap : "<<include>>"
User - -> UpdateMap
UpdateMap  ..> ReadMap : "<<include>>"
User - -> DeleteMap
DeleteMap  ..> ReadMap : "<<include>>"

User - -> ShowState
User - -> PrintState
User - -> SendState
@enduml

PlantUML version 1.2021.16(Wed Dec 08 18:25:22 CET 2021)
(GPL source distribution)
Java Runtime: OpenJDK Runtime Environment
JVM: OpenJDK 64-Bit Server VM
Default Encoding: Cp1252
Language: es
Country: ES
--></g></svg>