<?xml version="1.0" encoding="UTF-8" standalone="no"?><svg xmlns="http://www.w3.org/2000/svg" xmlns:xlink="http://www.w3.org/1999/xlink" contentScriptType="application/ecmascript" contentStyleType="text/css" height="948px" preserveAspectRatio="none" style="width:539px;height:948px;background:#FFFFFF;" version="1.1" viewBox="0 0 539 948" width="539.2px" zoomAndPan="magnify"><defs><filter height="300%" id="f1ldu60apsewuv" width="300%" x="-1" y="-1"><feGaussianBlur result="blurOut" stdDeviation="1.6000000000000003"/><feColorMatrix in="blurOut" result="blurOut2" type="matrix" values="0 0 0 0 0 0 0 0 0 0 0 0 0 0 0 0 0 0 .4 0"/><feOffset dx="3.2000000000000006" dy="3.2000000000000006" in="blurOut2" result="blurOut3"/><feBlend in="SourceGraphic" in2="blurOut3" mode="normal"/></filter></defs><g><text fill="#000000" font-family="sans-serif" font-size="14.4" lengthAdjust="spacing" textLength="66.4" x="231.4287" y="14.9484">UseCases</text><!--MD5=[fee662a292a0353a69bd162820bae93b]
entity User--><ellipse cx="71.2" cy="373.7125" fill="#FEFECE" filter="url(#f1ldu60apsewuv)" rx="6.4" ry="6.4" style="stroke:#A80036;stroke-width:1.2000000000000002;"/><path d="M71.2,380.1125 L71.2,401.7125 M60.8,386.5125 L81.6,386.5125 M71.2,401.7125 L60.8,413.7125 M71.2,401.7125 L81.6,413.7125 " fill="none" filter="url(#f1ldu60apsewuv)" style="stroke:#A80036;stroke-width:1.2000000000000002;"/><text fill="#000000" font-family="sans-serif" font-size="11.2" lengthAdjust="spacing" textLength="23.2" x="59.6" y="429.7391">User</text><ellipse cx="253.7224" cy="36.057" fill="#FEFECE" filter="url(#f1ldu60apsewuv)" rx="56.1224" ry="13.1445" style="stroke:#A80036;stroke-width:1.2000000000000002;"/><text fill="#000000" font-family="sans-serif" font-size="11.2" lengthAdjust="spacing" textLength="70.4" x="216.1224" y="39.6703">CreateSensor</text><ellipse cx="472.4673" cy="90.366" fill="#FEFECE" filter="url(#f1ldu60apsewuv)" rx="53.6673" ry="12.6535" style="stroke:#A80036;stroke-width:1.2000000000000002;"/><text fill="#000000" font-family="sans-serif" font-size="11.2" lengthAdjust="spacing" textLength="63.2" x="438.4673" y="93.9793">ReadSensor</text><ellipse cx="253.4854" cy="90.5696" fill="#FEFECE" filter="url(#f1ldu60apsewuv)" rx="56.6854" ry="13.2571" style="stroke:#A80036;stroke-width:1.2000000000000002;"/><text fill="#000000" font-family="sans-serif" font-size="11.2" lengthAdjust="spacing" textLength="72" x="215.0854" y="94.1829">UpdateSensor</text><ellipse cx="253.5656" cy="144.7456" fill="#FEFECE" filter="url(#f1ldu60apsewuv)" rx="55.5656" ry="13.0331" style="stroke:#A80036;stroke-width:1.2000000000000002;"/><text fill="#000000" font-family="sans-serif" font-size="11.2" lengthAdjust="spacing" textLength="68.8" x="216.7656" y="148.3589">DeleteSensor</text><ellipse cx="71.1031" cy="812.0131" fill="#FEFECE" filter="url(#f1ldu60apsewuv)" rx="63.9031" ry="14.7006" style="stroke:#A80036;stroke-width:1.2000000000000002;"/><text fill="#000000" font-family="sans-serif" font-size="11.2" lengthAdjust="spacing" textLength="91.2" x="24.6699" y="815.2344">AddSensorToMap</text><ellipse cx="71.3352" cy="870.5395" fill="#FEFECE" filter="url(#f1ldu60apsewuv)" rx="66.5352" ry="15.227" style="stroke:#A80036;stroke-width:1.2000000000000002;"/><text fill="#000000" font-family="sans-serif" font-size="11.2" lengthAdjust="spacing" textLength="97.6" x="22.5352" y="873.5223">AddSensorToStock</text><ellipse cx="71.1437" cy="926.5752" fill="#FEFECE" filter="url(#f1ldu60apsewuv)" rx="47.5437" ry="12.4627" style="stroke:#A80036;stroke-width:1.2000000000000002;"/><text fill="#000000" font-family="sans-serif" font-size="11.2" lengthAdjust="spacing" textLength="53.6" x="41.9437" y="930.1885">ShowState</text><ellipse cx="253.7884" cy="812.1519" fill="#FEFECE" filter="url(#f1ldu60apsewuv)" rx="44.5884" ry="12.4394" style="stroke:#A80036;stroke-width:1.2000000000000002;"/><text fill="#000000" font-family="sans-serif" font-size="11.2" lengthAdjust="spacing" textLength="49.6" x="226.5884" y="815.7651">PrintState</text><ellipse cx="253.7527" cy="864.9708" fill="#FEFECE" filter="url(#f1ldu60apsewuv)" rx="46.9527" ry="12.4583" style="stroke:#A80036;stroke-width:1.2000000000000002;"/><text fill="#000000" font-family="sans-serif" font-size="11.2" lengthAdjust="spacing" textLength="52.8" x="224.9527" y="868.584">SendState</text><ellipse cx="253.6801" cy="200.1285" fill="#FEFECE" filter="url(#f1ldu60apsewuv)" rx="60.4801" ry="14.016" style="stroke:#A80036;stroke-width:1.2000000000000002;"/><text fill="#000000" font-family="sans-serif" font-size="11.2" lengthAdjust="spacing" textLength="82.4" x="210.0801" y="203.7418">CreateCompany</text><ellipse cx="472.2287" cy="255.9982" fill="#FEFECE" filter="url(#f1ldu60apsewuv)" rx="57.8287" ry="13.4857" style="stroke:#A80036;stroke-width:1.2000000000000002;"/><text fill="#000000" font-family="sans-serif" font-size="11.2" lengthAdjust="spacing" textLength="75.2" x="432.2287" y="259.6115">ReadCompany</text><ellipse cx="253.484" cy="256.2493" fill="#FEFECE" filter="url(#f1ldu60apsewuv)" rx="61.084" ry="14.1368" style="stroke:#A80036;stroke-width:1.2000000000000002;"/><text fill="#000000" font-family="sans-serif" font-size="11.2" lengthAdjust="spacing" textLength="84" x="209.2987" y="259.8129">UpdateCompany</text><ellipse cx="253.482" cy="312.0089" fill="#FEFECE" filter="url(#f1ldu60apsewuv)" rx="59.882" ry="13.8964" style="stroke:#A80036;stroke-width:1.2000000000000002;"/><text fill="#000000" font-family="sans-serif" font-size="11.2" lengthAdjust="spacing" textLength="80.8" x="210.682" y="315.6222">DeleteCompany</text><ellipse cx="253.7352" cy="369.7395" fill="#FEFECE" filter="url(#f1ldu60apsewuv)" rx="66.5352" ry="15.227" style="stroke:#A80036;stroke-width:1.2000000000000002;"/><text fill="#000000" font-family="sans-serif" font-size="11.2" lengthAdjust="spacing" textLength="97.6" x="204.9352" y="372.7223">CreateHeadquarter</text><ellipse cx="253.582" cy="427.9489" fill="#FEFECE" filter="url(#f1ldu60apsewuv)" rx="63.582" ry="14.6364" style="stroke:#A80036;stroke-width:1.2000000000000002;"/><text fill="#000000" font-family="sans-serif" font-size="11.2" lengthAdjust="spacing" textLength="90.4" x="207.4048" y="431.2092">ReadHeadquarter</text><ellipse cx="253.6052" cy="486.6735" fill="#FEFECE" filter="url(#f1ldu60apsewuv)" rx="67.2052" ry="15.361" style="stroke:#A80036;stroke-width:1.2000000000000002;"/><text fill="#000000" font-family="sans-serif" font-size="11.2" lengthAdjust="spacing" textLength="99.2" x="204.0052" y="489.6564">UpdateHeadquarter</text><ellipse cx="253.4681" cy="544.8061" fill="#FEFECE" filter="url(#f1ldu60apsewuv)" rx="65.8681" ry="15.0936" style="stroke:#A80036;stroke-width:1.2000000000000002;"/><text fill="#000000" font-family="sans-serif" font-size="11.2" lengthAdjust="spacing" textLength="96" x="205.4681" y="547.7889">DeleteHeadquarter</text><ellipse cx="253.7171" cy="600.9879" fill="#FEFECE" filter="url(#f1ldu60apsewuv)" rx="49.3171" ry="12.4754" style="stroke:#A80036;stroke-width:1.2000000000000002;"/><text fill="#000000" font-family="sans-serif" font-size="11.2" lengthAdjust="spacing" textLength="56" x="223.3171" y="604.6011">CreateMap</text><ellipse cx="253.5974" cy="653.7468" fill="#FEFECE" filter="url(#f1ldu60apsewuv)" rx="43.9974" ry="12.4343" style="stroke:#A80036;stroke-width:1.2000000000000002;"/><text fill="#000000" font-family="sans-serif" font-size="11.2" lengthAdjust="spacing" textLength="48.8" x="226.7974" y="657.3601">ReadMap</text><ellipse cx="253.6993" cy="706.5958" fill="#FEFECE" filter="url(#f1ldu60apsewuv)" rx="50.4993" ry="12.4833" style="stroke:#A80036;stroke-width:1.2000000000000002;"/><text fill="#000000" font-family="sans-serif" font-size="11.2" lengthAdjust="spacing" textLength="57.6" x="222.4993" y="710.2091">UpdateMap</text><ellipse cx="253.7348" cy="759.3795" fill="#FEFECE" filter="url(#f1ldu60apsewuv)" rx="48.1348" ry="12.467" style="stroke:#A80036;stroke-width:1.2000000000000002;"/><text fill="#000000" font-family="sans-serif" font-size="11.2" lengthAdjust="spacing" textLength="54.4" x="224.1348" y="762.9928">DeleteMap</text><!--MD5=[b92698f1e23482974d7182b61e82bc01]
link User to CreateSensor--><path d="M73.936,365.9445 C79.6,299.2645 101.584,148.6485 186.4,63.3125 C193.24,56.4325 202.064,51.2245 211.032,47.2965 " fill="none" id="User-to-CreateSensor" style="stroke:#A80036;stroke-width:0.8000000000000002;"/><polygon fill="#A80036" points="214.872,45.6965,206.9949,45.5205,211.1814,47.239,209.4629,51.4255,214.872,45.6965" style="stroke:#A80036;stroke-width:0.8000000000000002;"/><!--MD5=[04631db35cc2553db957e7e166975fd6]
link CreateSensor to ReadSensor--><path d="M292.48,45.6485 C331.184,55.3445 390.928,70.3045 430.632,80.2485 " fill="none" id="CreateSensor-to-ReadSensor" style="stroke:#A80036;stroke-width:0.8000000000000002;stroke-dasharray:7.0,7.0;"/><polygon fill="#A80036" points="434.648,81.2565,428.4425,76.4015,430.7681,80.2837,426.8859,82.6093,434.648,81.2565" style="stroke:#A80036;stroke-width:0.8000000000000002;"/><text fill="#000000" font-family="sans-serif" font-size="10.4" lengthAdjust="spacing" textLength="44" x="345.6" y="57.3086">«include»</text><!--MD5=[8ca85c4e4cfbf2dc2c2bee0ba0501b46]
link User to UpdateSensor--><path d="M76.888,366.0085 C87.072,308.0565 115.768,188.1205 186.4,117.7125 C193.192,110.9365 201.904,105.7845 210.768,101.8805 " fill="none" id="User-to-UpdateSensor" style="stroke:#A80036;stroke-width:0.8000000000000002;"/><polygon fill="#A80036" points="214.576,100.2805,206.6984,100.1253,210.8895,101.8327,209.182,106.0237,214.576,100.2805" style="stroke:#A80036;stroke-width:0.8000000000000002;"/><!--MD5=[69ff530d038647cba136257ba7a3c3c7]
link UpdateSensor to ReadSensor--><path d="M310.616,90.5125 C342.496,90.5125 382.288,90.5125 414.336,90.5125 " fill="none" id="UpdateSensor-to-ReadSensor" style="stroke:#A80036;stroke-width:0.8000000000000002;stroke-dasharray:7.0,7.0;"/><polygon fill="#A80036" points="418.608,90.5125,411.408,87.3125,414.608,90.5125,411.408,93.7125,418.608,90.5125" style="stroke:#A80036;stroke-width:0.8000000000000002;"/><text fill="#000000" font-family="sans-serif" font-size="10.4" lengthAdjust="spacing" textLength="44" x="345.6" y="87.7086">«include»</text><!--MD5=[7e4926daeca51387cc70678757fa21c0]
link User to DeleteSensor--><path d="M80.656,366.0085 C94.92,317.2405 127.808,226.3205 186.4,172.1125 C193.68,165.3765 202.856,160.2005 212.04,156.2645 " fill="none" id="User-to-DeleteSensor" style="stroke:#A80036;stroke-width:0.8000000000000002;"/><polygon fill="#A80036" points="215.976,154.6485,208.1002,154.4224,212.2756,156.1675,210.5305,160.343,215.976,154.6485" style="stroke:#A80036;stroke-width:0.8000000000000002;"/><!--MD5=[f333aa09365d3f7e70c1785c5f1994ea]
link DeleteSensor to ReadSensor--><path d="M292.816,135.5125 C320.072,128.8245 357.496,119.5925 390.4,111.3125 C403.768,107.9525 418.352,104.2325 431.432,100.8725 " fill="none" id="DeleteSensor-to-ReadSensor" style="stroke:#A80036;stroke-width:0.8000000000000002;stroke-dasharray:7.0,7.0;"/><polygon fill="#A80036" points="435.44,99.8485,427.6705,98.5387,431.5656,100.8428,429.2615,104.7378,435.44,99.8485" style="stroke:#A80036;stroke-width:0.8000000000000002;"/><text fill="#000000" font-family="sans-serif" font-size="10.4" lengthAdjust="spacing" textLength="44" x="345.6" y="108.5086">«include»</text><!--MD5=[c42a9e4125e55caa0d9e124265415bab]
link User to CreateCompany--><path d="M82.856,374.4485 C99.984,337.8405 136.512,269.3205 186.4,228.1125 C194,221.8405 203.2,216.7765 212.312,212.7685 " fill="none" id="User-to-CreateCompany" style="stroke:#A80036;stroke-width:0.8000000000000002;"/><polygon fill="#A80036" points="216.2,211.1205,208.3219,210.9948,212.5193,212.6865,210.8275,216.8839,216.2,211.1205" style="stroke:#A80036;stroke-width:0.8000000000000002;"/><!--MD5=[a7265d09297b62df9f605e447ff38f57]
link CreateCompany to ReadCompany--><path d="M294.488,210.4485 C332.648,220.2885 389.88,235.0405 428.888,245.0965 " fill="none" id="CreateCompany-to-ReadCompany" style="stroke:#A80036;stroke-width:0.8000000000000002;stroke-dasharray:7.0,7.0;"/><polygon fill="#A80036" points="432.84,246.1205,426.6615,241.2312,428.9656,245.1262,425.0705,247.4303,432.84,246.1205" style="stroke:#A80036;stroke-width:0.8000000000000002;"/><text fill="#000000" font-family="sans-serif" font-size="10.4" lengthAdjust="spacing" textLength="44" x="345.6" y="222.1086">«include»</text><!--MD5=[3ef266a90aeafe566ec3bb53b08b9d11]
link User to UpdateCompany--><path d="M82.936,385.1445 C101.808,361.4805 142.72,313.6085 186.4,284.1125 C195,278.3045 205.008,273.3205 214.6,269.2325 " fill="none" id="User-to-UpdateCompany" style="stroke:#A80036;stroke-width:0.8000000000000002;"/><polygon fill="#A80036" points="218.392,267.6565,210.5149,267.4805,214.7014,269.199,212.9829,273.3855,218.392,267.6565" style="stroke:#A80036;stroke-width:0.8000000000000002;"/><!--MD5=[82b6bef1b8599d0d2e8bcc21c9c287f9]
link UpdateCompany to ReadCompany--><path d="M314.904,256.1125 C344.456,256.1125 379.96,256.1125 409.696,256.1125 " fill="none" id="UpdateCompany-to-ReadCompany" style="stroke:#A80036;stroke-width:0.8000000000000002;stroke-dasharray:7.0,7.0;"/><polygon fill="#A80036" points="414.04,256.1125,406.84,252.9125,410.04,256.1125,406.84,259.3125,414.04,256.1125" style="stroke:#A80036;stroke-width:0.8000000000000002;"/><text fill="#000000" font-family="sans-serif" font-size="10.4" lengthAdjust="spacing" textLength="44" x="345.6" y="253.3086">«include»</text><!--MD5=[1e8515fb17bd71a63edb4f4738ace3d2]
link User to DeleteCompany--><path d="M82.904,393.3045 C103.08,382.2725 147.728,358.2405 186.4,340.1125 C196.896,335.1925 208.488,330.1685 219.008,325.7605 " fill="none" id="User-to-DeleteCompany" style="stroke:#A80036;stroke-width:0.8000000000000002;"/><polygon fill="#A80036" points="222.832,324.1605,214.9549,323.9845,219.1414,325.703,217.4229,329.8895,222.832,324.1605" style="stroke:#A80036;stroke-width:0.8000000000000002;"/><!--MD5=[47dfd7ffde06a2c62c8beaff823017d7]
link DeleteCompany to ReadCompany--><path d="M294.488,301.7765 C332.648,291.9365 389.88,277.1845 428.888,267.1285 " fill="none" id="DeleteCompany-to-ReadCompany" style="stroke:#A80036;stroke-width:0.8000000000000002;stroke-dasharray:7.0,7.0;"/><polygon fill="#A80036" points="432.84,266.1045,425.0705,264.7947,428.9656,267.0988,426.6615,270.9938,432.84,266.1045" style="stroke:#A80036;stroke-width:0.8000000000000002;"/><text fill="#000000" font-family="sans-serif" font-size="10.4" lengthAdjust="spacing" textLength="44" x="345.6" y="274.9086">«include»</text><!--MD5=[33f2aea30f0d171682bb1b02943c3d26]
link User to CreateHeadquarter--><path d="M83.04,397.5045 C104.864,393.9285 154.912,385.7365 195.048,379.1685 " fill="none" id="User-to-CreateHeadquarter" style="stroke:#A80036;stroke-width:0.8000000000000002;"/><polygon fill="#A80036" points="199.144,378.4965,191.5243,376.4914,195.1957,379.1374,192.5497,382.8088,199.144,378.4965" style="stroke:#A80036;stroke-width:0.8000000000000002;"/><!--MD5=[a54806605d02dc8b695753960abdd830]
link User to ReadHeadquarter--><path d="M83.04,401.0725 C105.16,404.5925 156.28,412.7365 196.68,419.1765 " fill="none" id="User-to-ReadHeadquarter" style="stroke:#A80036;stroke-width:0.8000000000000002;"/><polygon fill="#A80036" points="200.8,419.8325,194.1916,415.5419,196.8496,419.2045,193.1869,421.8625,200.8,419.8325" style="stroke:#A80036;stroke-width:0.8000000000000002;"/><!--MD5=[b9ec8268ba33dc83598a135efcbba8c6]
link User to UpdateHeadquarter--><path d="M82.96,405.0485 C103.232,415.6085 148.024,438.7125 186.4,456.9125 C196.656,461.7765 207.904,466.8805 218.184,471.4485 " fill="none" id="User-to-UpdateHeadquarter" style="stroke:#A80036;stroke-width:0.8000000000000002;"/><polygon fill="#A80036" points="221.92,473.1045,216.6368,467.2592,218.2638,471.4821,214.0409,473.1091,221.92,473.1045" style="stroke:#A80036;stroke-width:0.8000000000000002;"/><!--MD5=[a30760316af21f98c30f6ff6deffed31]
link User to DeleteHeadquarter--><path d="M82.976,413.4885 C101.92,437.1765 142.92,485.1925 186.4,515.3125 C194.736,521.0885 204.376,526.1525 213.688,530.3845 " fill="none" id="User-to-DeleteHeadquarter" style="stroke:#A80036;stroke-width:0.8000000000000002;"/><polygon fill="#A80036" points="217.368,532.0245,212.0848,526.1792,213.7118,530.4021,209.4889,532.0291,217.368,532.0245" style="stroke:#A80036;stroke-width:0.8000000000000002;"/><!--MD5=[ac93ef03d40fbbe5d390fd99ec55eb21]
link User to CreateMap--><path d="M82.824,425.0245 C99.784,462.4885 135.968,532.1365 186.4,573.7125 C194.96,580.7685 205.6,586.2085 215.84,590.3045 " fill="none" id="User-to-CreateMap" style="stroke:#A80036;stroke-width:0.8000000000000002;"/><polygon fill="#A80036" points="219.584,591.7525,214.0161,586.1777,215.8515,590.3143,211.7149,592.1497,219.584,591.7525" style="stroke:#A80036;stroke-width:0.8000000000000002;"/><!--MD5=[d84e6a7a9fd72ed417ad30041d9c4715]
link User to ReadMap--><path d="M80.488,432.6085 C94.592,481.5925 127.32,573.1365 186.4,627.3125 C194.624,634.8565 205.264,640.3525 215.616,644.3205 " fill="none" id="User-to-ReadMap" style="stroke:#A80036;stroke-width:0.8000000000000002;"/><polygon fill="#A80036" points="219.408,645.7125,213.7551,640.2239,215.6538,644.3318,211.546,646.2306,219.408,645.7125" style="stroke:#A80036;stroke-width:0.8000000000000002;"/><!--MD5=[d4161b734182b61ab89160b113a5da06]
link User to UpdateMap--><path d="M76.888,432.5525 C87.064,490.3925 115.752,610.0565 186.4,680.1125 C193.712,687.3605 203.256,692.6805 212.824,696.5685 " fill="none" id="User-to-UpdateMap" style="stroke:#A80036;stroke-width:0.8000000000000002;"/><polygon fill="#A80036" points="216.632,698.0405,211.0789,692.4509,212.9033,696.5924,208.7619,698.4168,216.632,698.0405" style="stroke:#A80036;stroke-width:0.8000000000000002;"/><!--MD5=[4d54404d05c167f2b0aa623da6f83179]
link User to DeleteMap--><path d="M74.384,432.6405 C80.832,498.5445 104.136,646.5925 186.4,732.9125 C193.576,740.4405 203.176,745.8725 212.848,749.7685 " fill="none" id="User-to-DeleteMap" style="stroke:#A80036;stroke-width:0.8000000000000002;"/><polygon fill="#A80036" points="216.696,751.2405,211.1132,745.6806,212.9597,749.8122,208.828,751.6587,216.696,751.2405" style="stroke:#A80036;stroke-width:0.8000000000000002;"/><!--MD5=[127d053b71b25f403f4011a193689f43]
link AddSensorToMap to AddSensorToStock--><!--MD5=[fb36c23df09a1504d45ffd0029c65995]
link AddSensorToStock to ShowState--><!--MD5=[41b7d114c36f556fe5aacad2be32c88a]
link AddSensorToMap to PrintState--><!--MD5=[08f262e73c89dfbae2f0de6c58e6b85c]
link PrintState to SendState--><!--MD5=[0162e1d65a59581e474b86f986b4a85e]
@startuml
title UseCases
left to right direction
actor User

usecase CreateSensor
usecase ReadSensor
usecase UpdateSensor
usecase DeleteSensor
usecase AddSensorToMap
usecase AddSensorToStock

usecase ShowState
usecase PrintState
usecase SendState

usecase CreateCompany
usecase ReadCompany
usecase UpdateCompany
usecase DeleteCompany

usecase CreateHeadquarter
usecase ReadHeadquarter
usecase UpdateHeadquarter
usecase DeleteHeadquarter

usecase CreateMap
usecase ReadMap
usecase UpdateMap
usecase DeleteMap


User - -> CreateSensor
CreateSensor ..> ReadSensor  : "<<include>>"
User - -> UpdateSensor
UpdateSensor ..> ReadSensor  : "<<include>>"
User - -> DeleteSensor
DeleteSensor ..> ReadSensor  : "<<include>>"


User - -> CreateCompany
CreateCompany ..> ReadCompany : "<<include>>"
User - -> UpdateCompany
UpdateCompany ..> ReadCompany : "<<include>>"
User - -> DeleteCompany
DeleteCompany ..> ReadCompany : "<<include>>"

User - -> CreateHeadquarter
User - -> ReadHeadquarter
User - -> UpdateHeadquarter
User - -> DeleteHeadquarter

User - -> CreateMap
User - -> ReadMap
User - -> UpdateMap
User - -> DeleteMap
@enduml

PlantUML version 1.2021.16(Wed Dec 08 18:25:22 CET 2021)
(GPL source distribution)
Java Runtime: OpenJDK Runtime Environment
JVM: OpenJDK 64-Bit Server VM
Default Encoding: Cp1252
Language: es
Country: ES
--></g></svg>