<?xml version="1.0" encoding="UTF-8" standalone="no"?><svg xmlns="http://www.w3.org/2000/svg" xmlns:xlink="http://www.w3.org/1999/xlink" contentScriptType="application/ecmascript" contentStyleType="text/css" height="1035px" preserveAspectRatio="none" style="width:1096px;height:1035px;background:#FFFFFF;" version="1.1" viewBox="0 0 1096 1035" width="1096px" zoomAndPan="magnify"><defs><filter height="300%" id="fyuit53ym9qmh" width="300%" x="-1" y="-1"><feGaussianBlur result="blurOut" stdDeviation="2.0"/><feColorMatrix in="blurOut" result="blurOut2" type="matrix" values="0 0 0 0 0 0 0 0 0 0 0 0 0 0 0 0 0 0 .4 0"/><feOffset dx="4.0" dy="4.0" in="blurOut2" result="blurOut3"/><feBlend in="SourceGraphic" in2="blurOut3" mode="normal"/></filter></defs><g><text fill="#000000" font-family="sans-serif" font-size="18" lengthAdjust="spacing" textLength="135" x="473" y="18.6855">UseCaseContext</text><g id="INITIAL"><rect fill="#FEFECE" filter="url(#fyuit53ym9qmh)" height="50" rx="12.5" ry="12.5" style="stroke:#A80036;stroke-width:1.5;" width="64" x="635.5" y="109.6406"/><line style="stroke:#A80036;stroke-width:1.5;" x1="635.5" x2="699.5" y1="137.25" y2="137.25"/><text fill="#000000" font-family="sans-serif" font-size="14" lengthAdjust="spacing" textLength="44" x="645.5" y="129.1738">INITIAL</text></g><g id="OPENED_APPLICATION"><rect fill="#FEFECE" filter="url(#fyuit53ym9qmh)" height="50" rx="12.5" ry="12.5" style="stroke:#A80036;stroke-width:1.5;" width="174" x="580.5" y="259.6406"/><line style="stroke:#A80036;stroke-width:1.5;" x1="580.5" x2="754.5" y1="287.25" y2="287.25"/><text fill="#000000" font-family="sans-serif" font-size="14" lengthAdjust="spacing" textLength="154" x="590.5" y="279.1738">OPENED_APPLICATION</text></g><g id="COMPANY_CREATED"><rect fill="#FEFECE" filter="url(#fyuit53ym9qmh)" height="50" rx="12.5" ry="12.5" style="stroke:#A80036;stroke-width:1.5;" width="162" x="416.5" y="437.1406"/><line style="stroke:#A80036;stroke-width:1.5;" x1="416.5" x2="578.5" y1="464.75" y2="464.75"/><text fill="#000000" font-family="sans-serif" font-size="14" lengthAdjust="spacing" textLength="142" x="426.5" y="456.6738">COMPANY_CREATED</text></g><g id="HEADQUARTER_CREATED"><rect fill="#FEFECE" filter="url(#fyuit53ym9qmh)" height="50" rx="12.5" ry="12.5" style="stroke:#A80036;stroke-width:1.5;" width="198" x="148.5" y="659.1406"/><line style="stroke:#A80036;stroke-width:1.5;" x1="148.5" x2="346.5" y1="686.75" y2="686.75"/><text fill="#000000" font-family="sans-serif" font-size="14" lengthAdjust="spacing" textLength="178" x="158.5" y="678.6738">HEADQUARTER_CREATED</text></g><g id="MAP_CREATED"><rect fill="#FEFECE" filter="url(#fyuit53ym9qmh)" height="50" rx="12.5" ry="12.5" style="stroke:#A80036;stroke-width:1.5;" width="123" x="7" y="842.1406"/><line style="stroke:#A80036;stroke-width:1.5;" x1="7" x2="130" y1="869.75" y2="869.75"/><text fill="#000000" font-family="sans-serif" font-size="14" lengthAdjust="spacing" textLength="103" x="17" y="861.6738">MAP_CREATED</text></g><g id="SENSOR_CREATED"><rect fill="#FEFECE" filter="url(#fyuit53ym9qmh)" height="50" rx="12.5" ry="12.5" style="stroke:#A80036;stroke-width:1.5;" width="151" x="763" y="437.1406"/><line style="stroke:#A80036;stroke-width:1.5;" x1="763" x2="914" y1="464.75" y2="464.75"/><text fill="#000000" font-family="sans-serif" font-size="14" lengthAdjust="spacing" textLength="131" x="773" y="456.6738">SENSOR_CREATED</text></g><g id="STATS_GENERATED"><rect fill="#FEFECE" filter="url(#fyuit53ym9qmh)" height="50" rx="12.5" ry="12.5" style="stroke:#A80036;stroke-width:1.5;" width="158" x="759.5" y="750.6406"/><line style="stroke:#A80036;stroke-width:1.5;" x1="759.5" x2="917.5" y1="778.25" y2="778.25"/><text fill="#000000" font-family="sans-serif" font-size="14" lengthAdjust="spacing" textLength="138" x="769.5" y="770.1738">STATS_GENERATED</text></g><ellipse cx="667.5" cy="38.6406" fill="#000000" filter="url(#fyuit53ym9qmh)" rx="10" ry="10" style="stroke:none;stroke-width:1.0;"/><ellipse cx="441.5" cy="1013.6406" filter="url(#fyuit53ym9qmh)" rx="10" ry="10" style="stroke:#000000;stroke-width:1.0;fill:none;"/><ellipse cx="442" cy="1014.1406" fill="#000000" rx="6" ry="6" style="stroke:none;stroke-width:1.0;"/><!--MD5=[06c3f2024f4ea60966e79307ee69ec5f]
link *start to INITIAL--><path d="M667.5,48.6506 C667.5,61.3406 667.5,85.0506 667.5,104.2106 " fill="none" id="*start-to-INITIAL" style="stroke:#A80036;stroke-width:1.0;"/><polygon fill="#A80036" points="667.5,109.4806,671.5,100.4806,667.5,104.4806,663.5,100.4806,667.5,109.4806" style="stroke:#A80036;stroke-width:1.0;"/><!--MD5=[b018d4858215390e1e25566560874e02]
link INITIAL to OPENED_APPLICATION--><path d="M667.5,159.7506 C667.5,185.6606 667.5,226.8406 667.5,254.5306 " fill="none" id="INITIAL-to-OPENED_APPLICATION" style="stroke:#A80036;stroke-width:1.0;"/><polygon fill="#A80036" points="667.5,259.5406,671.5,250.5406,667.5,254.5406,663.5,250.5406,667.5,259.5406" style="stroke:#A80036;stroke-width:1.0;"/><path d="M672.5,194.6406 L672.5,220.6406 L841.5,220.6406 L841.5,204.6406 L831.5,194.6406 L672.5,194.6406 " fill="#FBFB77" filter="url(#fyuit53ym9qmh)" style="stroke:#A80036;stroke-width:1.0;"/><path d="M831.5,194.6406 L831.5,204.6406 L841.5,204.6406 L831.5,194.6406 " fill="#FBFB77" style="stroke:#A80036;stroke-width:1.0;"/><text fill="#000000" font-family="sans-serif" font-size="13" lengthAdjust="spacing" textLength="148" x="678.5" y="213.1357">Login (not on this version)</text><!--MD5=[fa56e13fca415027c0b9d2dd45ca1f01]
link OPENED_APPLICATION to COMPANY_CREATED--><path d="M644.22,309.6706 C612.9,342.0106 557.31,399.3906 524.29,433.4806 " fill="none" id="OPENED_APPLICATION-to-COMPANY_CREATED" style="stroke:#A80036;stroke-width:1.0;"/><polygon fill="#A80036" points="520.77,437.1106,529.8966,433.4086,524.2407,433.5114,524.1378,427.8555,520.77,437.1106" style="stroke:#A80036;stroke-width:1.0;"/><path d="M618.5,344.6406 L618.5,370.6406 L732.5,370.6406 L732.5,354.6406 L722.5,344.6406 L618.5,344.6406 " fill="#FBFB77" filter="url(#fyuit53ym9qmh)" style="stroke:#A80036;stroke-width:1.0;"/><path d="M722.5,344.6406 L722.5,354.6406 L732.5,354.6406 L722.5,344.6406 " fill="#FBFB77" style="stroke:#A80036;stroke-width:1.0;"/><text fill="#000000" font-family="sans-serif" font-size="13" lengthAdjust="spacing" textLength="93" x="624.5" y="363.1357">CreateCompany</text><!--MD5=[35882d49840eea2c0077b26f6001aaf9]
link COMPANY_CREATED to COMPANY_CREATED--><path d="M578.54,443.3006 C598.57,444.6506 613.5,450.9306 613.5,462.1406 C613.5,472.3806 601.02,478.5106 583.58,480.5306 " fill="none" id="COMPANY_CREATED-to-COMPANY_CREATED" style="stroke:#A80036;stroke-width:1.0;"/><polygon fill="#A80036" points="578.54,480.9806,587.8685,484.1397,583.519,480.5228,587.1359,476.1733,578.54,480.9806" style="stroke:#A80036;stroke-width:1.0;"/><path d="M618.5,430.6406 L618.5,489.6406 L735.5,489.6406 L735.5,440.6406 L725.5,430.6406 L618.5,430.6406 " fill="#FBFB77" filter="url(#fyuit53ym9qmh)" style="stroke:#A80036;stroke-width:1.0;"/><path d="M725.5,430.6406 L725.5,440.6406 L735.5,440.6406 L725.5,430.6406 " fill="#FBFB77" style="stroke:#A80036;stroke-width:1.0;"/><text fill="#000000" font-family="sans-serif" font-size="13" lengthAdjust="spacing" textLength="85" x="624.5" y="449.1357">ReadCompany</text><text fill="#000000" font-family="sans-serif" font-size="13" lengthAdjust="spacing" textLength="96" x="624.5" y="465.4873">UpdateCompany</text><text fill="#000000" font-family="sans-serif" font-size="13" lengthAdjust="spacing" textLength="92" x="624.5" y="481.8389">DeleteCompany</text><!--MD5=[9847800d6c7c5a2210a57fd464861734]
link COMPANY_CREATED to HEADQUARTER_CREATED--><path d="M465.37,487.4206 C444.76,503.2706 417.62,524.6606 394.5,544.6406 C351.84,581.5006 304.78,626.6906 275.68,655.2106 " fill="none" id="COMPANY_CREATED-to-HEADQUARTER_CREATED" style="stroke:#A80036;stroke-width:1.0;"/><polygon fill="#A80036" points="271.87,658.9506,281.0976,655.5081,275.4411,655.451,275.4982,649.7944,271.87,658.9506" style="stroke:#A80036;stroke-width:1.0;"/><path d="M399.5,566.1406 L399.5,592.1406 L528.5,592.1406 L528.5,576.1406 L518.5,566.1406 L399.5,566.1406 " fill="#FBFB77" filter="url(#fyuit53ym9qmh)" style="stroke:#A80036;stroke-width:1.0;"/><path d="M518.5,566.1406 L518.5,576.1406 L528.5,576.1406 L518.5,566.1406 " fill="#FBFB77" style="stroke:#A80036;stroke-width:1.0;"/><text fill="#000000" font-family="sans-serif" font-size="13" lengthAdjust="spacing" textLength="108" x="405.5" y="584.6357">CreateHeadquarter</text><!--MD5=[ac0a97c6d46e142a7af651248aed14c3]
link HEADQUARTER_CREATED to HEADQUARTER_CREATED--><path d="M346.55,667.8806 C366.9,669.6206 381.5,675.0406 381.5,684.1406 C381.5,692.4506 369.3,697.7006 351.66,699.8706 " fill="none" id="HEADQUARTER_CREATED-to-HEADQUARTER_CREATED" style="stroke:#A80036;stroke-width:1.0;"/><polygon fill="#A80036" points="346.55,700.4006,355.9138,703.4533,351.5235,699.8861,355.0906,695.4958,346.55,700.4006" style="stroke:#A80036;stroke-width:1.0;"/><path d="M386.5,652.6406 L386.5,711.6406 L518.5,711.6406 L518.5,662.6406 L508.5,652.6406 L386.5,652.6406 " fill="#FBFB77" filter="url(#fyuit53ym9qmh)" style="stroke:#A80036;stroke-width:1.0;"/><path d="M508.5,652.6406 L508.5,662.6406 L518.5,662.6406 L508.5,652.6406 " fill="#FBFB77" style="stroke:#A80036;stroke-width:1.0;"/><text fill="#000000" font-family="sans-serif" font-size="13" lengthAdjust="spacing" textLength="100" x="392.5" y="671.1357">ReadHeadquarter</text><text fill="#000000" font-family="sans-serif" font-size="13" lengthAdjust="spacing" textLength="111" x="392.5" y="687.4873">UpdateHeadquarter</text><text fill="#000000" font-family="sans-serif" font-size="13" lengthAdjust="spacing" textLength="107" x="392.5" y="703.8389">DeleteHeadquarter</text><!--MD5=[5f0bce078ba03990d6d4e1092cb8839a]
link HEADQUARTER_CREATED to MAP_CREATED--><path d="M223.73,709.1806 C190.7,742.5806 131.04,802.9006 96.09,838.2406 " fill="none" id="HEADQUARTER_CREATED-to-MAP_CREATED" style="stroke:#A80036;stroke-width:1.0;"/><polygon fill="#A80036" points="92.37,842.0106,101.5408,838.4194,95.884,838.4537,95.8498,832.797,92.37,842.0106" style="stroke:#A80036;stroke-width:1.0;"/><path d="M184.5,760.6406 L184.5,786.6406 L268.5,786.6406 L268.5,770.6406 L258.5,760.6406 L184.5,760.6406 " fill="#FBFB77" filter="url(#fyuit53ym9qmh)" style="stroke:#A80036;stroke-width:1.0;"/><path d="M258.5,760.6406 L258.5,770.6406 L268.5,770.6406 L258.5,760.6406 " fill="#FBFB77" style="stroke:#A80036;stroke-width:1.0;"/><text fill="#000000" font-family="sans-serif" font-size="13" lengthAdjust="spacing" textLength="63" x="190.5" y="779.1357">CreateMap</text><!--MD5=[993225077c6b5fd60a0242ba1286f913]
link MAP_CREATED to MAP_CREATED--><path d="M130.22,851.0206 C149.66,851.2706 165,856.6406 165,867.1406 C165,876.6506 152.4,881.9606 135.57,883.0506 " fill="none" id="MAP_CREATED-to-MAP_CREATED" style="stroke:#A80036;stroke-width:1.0;"/><polygon fill="#A80036" points="130.22,883.2606,139.3627,886.9228,135.2165,883.0745,139.0649,878.9284,130.22,883.2606" style="stroke:#A80036;stroke-width:1.0;"/><path d="M170,835.6406 L170,894.6406 L257,894.6406 L257,845.6406 L247,835.6406 L170,835.6406 " fill="#FBFB77" filter="url(#fyuit53ym9qmh)" style="stroke:#A80036;stroke-width:1.0;"/><path d="M247,835.6406 L247,845.6406 L257,845.6406 L247,835.6406 " fill="#FBFB77" style="stroke:#A80036;stroke-width:1.0;"/><text fill="#000000" font-family="sans-serif" font-size="13" lengthAdjust="spacing" textLength="55" x="176" y="854.1357">ReadMap</text><text fill="#000000" font-family="sans-serif" font-size="13" lengthAdjust="spacing" textLength="66" x="176" y="870.4873">UpdateMap</text><text fill="#000000" font-family="sans-serif" font-size="13" lengthAdjust="spacing" textLength="62" x="176" y="886.8389">DeleteMap</text><!--MD5=[766a1363d58e32be58d8c32e0be58eab]
link OPENED_APPLICATION to SENSOR_CREATED--><path d="M710.51,309.8806 C723.75,318.3806 737.89,328.6006 749.5,339.6406 C778.87,367.5806 805.31,406.2406 821.59,432.3906 " fill="none" id="OPENED_APPLICATION-to-SENSOR_CREATED" style="stroke:#A80036;stroke-width:1.0;"/><polygon fill="#A80036" points="824.32,436.7906,822.9952,427.0313,821.6931,432.5363,816.1882,431.2343,824.32,436.7906" style="stroke:#A80036;stroke-width:1.0;"/><path d="M788.5,344.6406 L788.5,370.6406 L888.5,370.6406 L888.5,354.6406 L878.5,344.6406 L788.5,344.6406 " fill="#FBFB77" filter="url(#fyuit53ym9qmh)" style="stroke:#A80036;stroke-width:1.0;"/><path d="M878.5,344.6406 L878.5,354.6406 L888.5,354.6406 L878.5,344.6406 " fill="#FBFB77" style="stroke:#A80036;stroke-width:1.0;"/><text fill="#000000" font-family="sans-serif" font-size="13" lengthAdjust="spacing" textLength="79" x="794.5" y="363.1357">CreateSensor</text><!--MD5=[a190cf97c4f7354415dda548de13690d]
link SENSOR_CREATED to SENSOR_CREATED--><path d="M914.16,443.2006 C934,444.3206 949,450.6406 949,462.1406 C949,472.6606 936.47,478.8406 919.16,480.6806 " fill="none" id="SENSOR_CREATED-to-SENSOR_CREATED" style="stroke:#A80036;stroke-width:1.0;"/><polygon fill="#A80036" points="914.16,481.0806,923.4611,484.3194,919.1427,480.6654,922.7967,476.347,914.16,481.0806" style="stroke:#A80036;stroke-width:1.0;"/><path d="M954,414.6406 L954,505.6406 L1087,505.6406 L1087,424.6406 L1077,414.6406 L954,414.6406 " fill="#FBFB77" filter="url(#fyuit53ym9qmh)" style="stroke:#A80036;stroke-width:1.0;"/><path d="M1077,414.6406 L1077,424.6406 L1087,424.6406 L1077,414.6406 " fill="#FBFB77" style="stroke:#A80036;stroke-width:1.0;"/><text fill="#000000" font-family="sans-serif" font-size="13" lengthAdjust="spacing" textLength="71" x="960" y="433.1357">ReadSensor</text><text fill="#000000" font-family="sans-serif" font-size="13" lengthAdjust="spacing" textLength="82" x="960" y="449.4873">UpdateSensor</text><text fill="#000000" font-family="sans-serif" font-size="13" lengthAdjust="spacing" textLength="78" x="960" y="465.8389">DeleteSensor</text><text fill="#000000" font-family="sans-serif" font-size="13" lengthAdjust="spacing" textLength="103" x="960" y="482.1904">AddSensorToMap</text><text fill="#000000" font-family="sans-serif" font-size="13" lengthAdjust="spacing" textLength="112" x="960" y="498.542">AddSensorToStock</text><!--MD5=[92b3523958754127b757e700955aac7e]
link COMPANY_CREATED to *end--><path d="M514.58,487.1406 C524.59,502.7206 536.26,523.9106 541.5,544.6406 C546.39,563.9806 548.73,885.0506 541.5,903.6406 C523.6,949.6306 476.22,988.0006 453.71,1004.2706 " fill="none" id="COMPANY_CREATED-to-*end" style="stroke:#A80036;stroke-width:1.0;"/><polygon fill="#A80036" points="449.55,1007.2306,459.2012,1005.2672,453.6225,1004.3298,454.5599,998.7512,449.55,1007.2306" style="stroke:#A80036;stroke-width:1.0;"/><path d="M551.5,760.6406 L551.5,786.6406 L728.5,786.6406 L728.5,770.6406 L718.5,760.6406 L551.5,760.6406 " fill="#FBFB77" filter="url(#fyuit53ym9qmh)" style="stroke:#A80036;stroke-width:1.0;"/><path d="M718.5,760.6406 L718.5,770.6406 L728.5,770.6406 L718.5,760.6406 " fill="#FBFB77" style="stroke:#A80036;stroke-width:1.0;"/><text fill="#000000" font-family="sans-serif" font-size="13" lengthAdjust="spacing" textLength="156" x="557.5" y="779.1357">Logout (not on this version)</text><!--MD5=[6422ae0d995ab2236496d8f2a215ac8d]
link HEADQUARTER_CREATED to *end--><path d="M262.62,709.2506 C269.97,721.4306 278.66,736.5706 285.5,750.6406 C317.51,816.4806 308.35,841.1606 346.5,903.6406 C371.19,944.0706 411.11,984.1306 430.38,1002.3906 " fill="none" id="HEADQUARTER_CREATED-to-*end" style="stroke:#A80036;stroke-width:1.0;"/><polygon fill="#A80036" points="434.38,1006.1506,430.5677,997.0695,430.739,1002.7238,425.0847,1002.8951,434.38,1006.1506" style="stroke:#A80036;stroke-width:1.0;"/><path d="M351.5,852.1406 L351.5,878.1406 L528.5,878.1406 L528.5,862.1406 L518.5,852.1406 L351.5,852.1406 " fill="#FBFB77" filter="url(#fyuit53ym9qmh)" style="stroke:#A80036;stroke-width:1.0;"/><path d="M518.5,852.1406 L518.5,862.1406 L528.5,862.1406 L518.5,852.1406 " fill="#FBFB77" style="stroke:#A80036;stroke-width:1.0;"/><text fill="#000000" font-family="sans-serif" font-size="13" lengthAdjust="spacing" textLength="156" x="357.5" y="870.6357">Logout (not on this version)</text><!--MD5=[400d723ceed96febb9ed112b19b71649]
link MAP_CREATED to *end--><path d="M69.14,892.3706 C71.18,916.8806 78.39,953.8706 102.5,973.6406 C152.87,1014.9406 366.85,1014.0606 426.19,1013.0006 " fill="none" id="MAP_CREATED-to-*end" style="stroke:#A80036;stroke-width:1.0;"/><polygon fill="#A80036" points="431.44,1012.8906,422.3618,1009.0714,426.441,1012.9906,422.5218,1017.0698,431.44,1012.8906" style="stroke:#A80036;stroke-width:1.0;"/><path d="M107.5,938.6406 L107.5,964.6406 L284.5,964.6406 L284.5,948.6406 L274.5,938.6406 L107.5,938.6406 " fill="#FBFB77" filter="url(#fyuit53ym9qmh)" style="stroke:#A80036;stroke-width:1.0;"/><path d="M274.5,938.6406 L274.5,948.6406 L284.5,948.6406 L274.5,938.6406 " fill="#FBFB77" style="stroke:#A80036;stroke-width:1.0;"/><text fill="#000000" font-family="sans-serif" font-size="13" lengthAdjust="spacing" textLength="156" x="113.5" y="957.1357">Logout (not on this version)</text><!--MD5=[84e0b3b84ec07514403377676cd4d02e]
link SENSOR_CREATED to STATS_GENERATED--><path d="M838.5,487.3206 C838.5,543.6606 838.5,683.5006 838.5,744.9206 " fill="none" id="SENSOR_CREATED-to-STATS_GENERATED" style="stroke:#A80036;stroke-width:1.0;"/><polygon fill="#A80036" points="838.5,750.2606,842.5,741.2606,838.5,745.2606,834.5,741.2606,838.5,750.2606" style="stroke:#A80036;stroke-width:1.0;"/><path d="M843.5,549.6406 L843.5,608.6406 L927.5,608.6406 L927.5,559.6406 L917.5,549.6406 L843.5,549.6406 " fill="#FBFB77" filter="url(#fyuit53ym9qmh)" style="stroke:#A80036;stroke-width:1.0;"/><path d="M917.5,549.6406 L917.5,559.6406 L927.5,559.6406 L917.5,549.6406 " fill="#FBFB77" style="stroke:#A80036;stroke-width:1.0;"/><text fill="#000000" font-family="sans-serif" font-size="13" lengthAdjust="spacing" textLength="63" x="849.5" y="568.1357">ShowState</text><text fill="#000000" font-family="sans-serif" font-size="13" lengthAdjust="spacing" textLength="58" x="849.5" y="584.4873">PrintState</text><text fill="#000000" font-family="sans-serif" font-size="13" lengthAdjust="spacing" textLength="61" x="849.5" y="600.8389">SendState</text><!--MD5=[47909c42bd19c15bba265428d18a2733]
link STATS_GENERATED to *end--><path d="M815.08,800.8206 C773.52,842.3306 682.44,927.1906 589.5,973.6406 C544.04,996.3606 483.9,1006.9006 456.39,1010.7806 " fill="none" id="STATS_GENERATED-to-*end" style="stroke:#A80036;stroke-width:1.0;"/><polygon fill="#A80036" points="451.34,1011.4706,460.8032,1014.1997,456.2928,1010.7855,459.707,1006.2751,451.34,1011.4706" style="stroke:#A80036;stroke-width:1.0;"/><path d="M789.5,852.1406 L789.5,878.1406 L966.5,878.1406 L966.5,862.1406 L956.5,852.1406 L789.5,852.1406 " fill="#FBFB77" filter="url(#fyuit53ym9qmh)" style="stroke:#A80036;stroke-width:1.0;"/><path d="M956.5,852.1406 L956.5,862.1406 L966.5,862.1406 L956.5,852.1406 " fill="#FBFB77" style="stroke:#A80036;stroke-width:1.0;"/><text fill="#000000" font-family="sans-serif" font-size="13" lengthAdjust="spacing" textLength="156" x="795.5" y="870.6357">Logout (not on this version)</text><!--MD5=[203e162a93858bf44e8915d461f239d6]
@startuml
title UseCaseContext

state INITIAL
state OPENED_APPLICATION
state COMPANY_CREATED
state HEADQUARTER_CREATED
state MAP_CREATED
state SENSOR_CREATED
state STATS_GENERATED

[*] - -> INITIAL

INITIAL - -> OPENED_APPLICATION
note on link
    Login (not on this version)
end note

OPENED_APPLICATION - -> COMPANY_CREATED
    note on link
        CreateCompany
    end note
COMPANY_CREATED - -> COMPANY_CREATED
note on link
    ReadCompany
    UpdateCompany
    DeleteCompany
end note

COMPANY_CREATED - -> HEADQUARTER_CREATED
    note on link
        CreateHeadquarter
    end note

HEADQUARTER_CREATED - -> HEADQUARTER_CREATED
    note on link
        ReadHeadquarter
        UpdateHeadquarter
        DeleteHeadquarter
    end note

HEADQUARTER_CREATED - -> MAP_CREATED
    note on link
        CreateMap
    end note

MAP_CREATED - -> MAP_CREATED
    note on link
        ReadMap
        UpdateMap
        DeleteMap
    end note

OPENED_APPLICATION - -> SENSOR_CREATED
    note on link
        CreateSensor
    end note

SENSOR_CREATED - -> SENSOR_CREATED
    note on link
        ReadSensor
        UpdateSensor
        DeleteSensor
        AddSensorToMap
        AddSensorToStock
    end note

COMPANY_CREATED - -> [*]
      note on link
          Logout (not on this version)
      end note

HEADQUARTER_CREATED - -> [*]
      note on link
          Logout (not on this version)
      end note

MAP_CREATED - -> [*]
      note on link
          Logout (not on this version)
      end note

SENSOR_CREATED - -> STATS_GENERATED
       note on link
           ShowState
           PrintState
           SendState
       end note

STATS_GENERATED - -> [*]
      note on link
          Logout (not on this version)
      end note
@enduml

PlantUML version 1.2021.16(Wed Dec 08 18:25:22 CET 2021)
(GPL source distribution)
Java Runtime: OpenJDK Runtime Environment
JVM: OpenJDK 64-Bit Server VM
Default Encoding: Cp1252
Language: es
Country: ES
--></g></svg>