<?xml version="1.0" encoding="UTF-8" standalone="no"?><svg xmlns="http://www.w3.org/2000/svg" xmlns:xlink="http://www.w3.org/1999/xlink" contentScriptType="application/ecmascript" contentStyleType="text/css" height="984.8px" preserveAspectRatio="none" style="width:770px;height:984px;background:#FFFFFF;" version="1.1" viewBox="0 0 770 984" width="770.4px" zoomAndPan="magnify"><defs><filter height="300%" id="f1hbyjx7o2s3qz" width="300%" x="-1" y="-1"><feGaussianBlur result="blurOut" stdDeviation="1.6000000000000003"/><feColorMatrix in="blurOut" result="blurOut2" type="matrix" values="0 0 0 0 0 0 0 0 0 0 0 0 0 0 0 0 0 0 .4 0"/><feOffset dx="3.2000000000000006" dy="3.2000000000000006" in="blurOut2" result="blurOut3"/><feBlend in="SourceGraphic" in2="blurOut3" mode="normal"/></filter></defs><g><text fill="#000000" font-family="sans-serif" font-size="14.4" lengthAdjust="spacing" textLength="108" x="325.2" y="14.9484">UseCaseContext</text><g id="INITIAL"><rect fill="#FEFECE" filter="url(#f1hbyjx7o2s3qz)" height="40" rx="10" ry="10" style="stroke:#A80036;stroke-width:1.2000000000000002;" width="51.2" x="360.8" y="87.7125"/><line style="stroke:#A80036;stroke-width:1.2000000000000002;" x1="360.8" x2="412" y1="109.8" y2="109.8"/><text fill="#000000" font-family="sans-serif" font-size="11.2" lengthAdjust="spacing" textLength="35.2" x="368.8" y="103.3391">INITIAL</text></g><g id="OPENED_APPLICATION"><rect fill="#FEFECE" filter="url(#f1hbyjx7o2s3qz)" height="40" rx="10" ry="10" style="stroke:#A80036;stroke-width:1.2000000000000002;" width="139.2" x="316.8" y="207.7125"/><line style="stroke:#A80036;stroke-width:1.2000000000000002;" x1="316.8" x2="456" y1="229.8" y2="229.8"/><text fill="#000000" font-family="sans-serif" font-size="11.2" lengthAdjust="spacing" textLength="123.2" x="324.8" y="223.3391">OPENED_APPLICATION</text></g><g id="COMPANY_CREATED"><rect fill="#FEFECE" filter="url(#f1hbyjx7o2s3qz)" height="40" rx="10" ry="10" style="stroke:#A80036;stroke-width:1.2000000000000002;" width="129.6" x="172" y="336.9125"/><line style="stroke:#A80036;stroke-width:1.2000000000000002;" x1="172" x2="301.6" y1="359" y2="359"/><text fill="#000000" font-family="sans-serif" font-size="11.2" lengthAdjust="spacing" textLength="113.6" x="180" y="352.5391">COMPANY_CREATED</text></g><g id="HEADQUARTER_CREATED"><rect fill="#FEFECE" filter="url(#f1hbyjx7o2s3qz)" height="40" rx="10" ry="10" style="stroke:#A80036;stroke-width:1.2000000000000002;" width="158.4" x="157.6" y="527.3125"/><line style="stroke:#A80036;stroke-width:1.2000000000000002;" x1="157.6" x2="316" y1="549.4" y2="549.4"/><text fill="#000000" font-family="sans-serif" font-size="11.2" lengthAdjust="spacing" textLength="142.4" x="165.6" y="542.9391">HEADQUARTER_CREATED</text></g><g id="MAP_CREATED"><rect fill="#FEFECE" filter="url(#f1hbyjx7o2s3qz)" height="40" rx="10" ry="10" style="stroke:#A80036;stroke-width:1.2000000000000002;" width="98.4" x="322" y="692.1125"/><line style="stroke:#A80036;stroke-width:1.2000000000000002;" x1="322" x2="420.4" y1="714.2" y2="714.2"/><text fill="#000000" font-family="sans-serif" font-size="11.2" lengthAdjust="spacing" textLength="82.4" x="330" y="707.7391">MAP_CREATED</text></g><g id="SENSOR_CREATED"><rect fill="#FEFECE" filter="url(#f1hbyjx7o2s3qz)" height="40" rx="10" ry="10" style="stroke:#A80036;stroke-width:1.2000000000000002;" width="120.8" x="494" y="432.1125"/><line style="stroke:#A80036;stroke-width:1.2000000000000002;" x1="494" x2="614.8" y1="454.2" y2="454.2"/><text fill="#000000" font-family="sans-serif" font-size="11.2" lengthAdjust="spacing" textLength="104.8" x="502" y="447.7391">SENSOR_CREATED</text></g><g id="STATS_GENERATED"><rect fill="#FEFECE" filter="url(#f1hbyjx7o2s3qz)" height="40" rx="10" ry="10" style="stroke:#A80036;stroke-width:1.2000000000000002;" width="126.4" x="537.6" y="830.5125"/><line style="stroke:#A80036;stroke-width:1.2000000000000002;" x1="537.6" x2="664" y1="852.6" y2="852.6"/><text fill="#000000" font-family="sans-serif" font-size="11.2" lengthAdjust="spacing" textLength="110.4" x="545.6" y="846.1391">STATS_GENERATED</text></g><ellipse cx="386.4" cy="30.9125" fill="#000000" filter="url(#f1hbyjx7o2s3qz)" rx="8" ry="8" style="stroke:none;stroke-width:0.8000000000000002;"/><ellipse cx="256.8" cy="967.7125" filter="url(#f1hbyjx7o2s3qz)" rx="8" ry="8" style="stroke:#000000;stroke-width:0.8000000000000002;fill:none;"/><ellipse cx="257.2" cy="968.1125" fill="#000000" rx="4.8" ry="4.8" style="stroke:none;stroke-width:0.8000000000000002;"/><!--MD5=[06c3f2024f4ea60966e79307ee69ec5f]
link *start to INITIAL--><path d="M386.4,38.9205 C386.4,49.0725 386.4,68.0405 386.4,83.3685 " fill="none" id="*start-to-INITIAL" style="stroke:#A80036;stroke-width:0.8000000000000002;"/><polygon fill="#A80036" points="386.4,87.5845,389.6,80.3845,386.4,83.5845,383.2,80.3845,386.4,87.5845" style="stroke:#A80036;stroke-width:0.8000000000000002;"/><!--MD5=[b018d4858215390e1e25566560874e02]
link INITIAL to OPENED_APPLICATION--><path d="M386.4,127.8005 C386.4,148.5285 386.4,181.4725 386.4,203.6245 " fill="none" id="INITIAL-to-OPENED_APPLICATION" style="stroke:#A80036;stroke-width:0.8000000000000002;"/><polygon fill="#A80036" points="386.4,207.6325,389.6,200.4325,386.4,203.6325,383.2,200.4325,386.4,207.6325" style="stroke:#A80036;stroke-width:0.8000000000000002;"/><path d="M390.4,155.7125 L390.4,176.5125 L525.6,176.5125 L525.6,163.7125 L517.6,155.7125 L390.4,155.7125 " fill="#FBFB77" filter="url(#f1hbyjx7o2s3qz)" style="stroke:#A80036;stroke-width:0.8000000000000002;"/><path d="M517.6,155.7125 L517.6,163.7125 L525.6,163.7125 L517.6,155.7125 " fill="#FBFB77" style="stroke:#A80036;stroke-width:0.8000000000000002;"/><text fill="#000000" font-family="sans-serif" font-size="10.4" lengthAdjust="spacing" textLength="118.4" x="395.2" y="170.5086">Login (not on this version)</text><!--MD5=[fa56e13fca415027c0b9d2dd45ca1f01]
link OPENED_APPLICATION to COMPANY_CREATED--><path d="M363.68,247.8885 C336.472,271.0965 291.008,309.8725 262.536,334.1605 " fill="none" id="OPENED_APPLICATION-to-COMPANY_CREATED" style="stroke:#A80036;stroke-width:0.8000000000000002;"/><polygon fill="#A80036" points="259.488,336.7605,267.0462,334.5348,262.5355,334.1696,262.9007,329.6589,259.488,336.7605" style="stroke:#A80036;stroke-width:0.8000000000000002;"/><path d="M338.4,275.7125 L338.4,296.5125 L429.6,296.5125 L429.6,283.7125 L421.6,275.7125 L338.4,275.7125 " fill="#FBFB77" filter="url(#f1hbyjx7o2s3qz)" style="stroke:#A80036;stroke-width:0.8000000000000002;"/><path d="M421.6,275.7125 L421.6,283.7125 L429.6,283.7125 L421.6,275.7125 " fill="#FBFB77" style="stroke:#A80036;stroke-width:0.8000000000000002;"/><text fill="#000000" font-family="sans-serif" font-size="10.4" lengthAdjust="spacing" textLength="74.4" x="343.2" y="290.5086">CreateCompany</text><!--MD5=[35882d49840eea2c0077b26f6001aaf9]
link COMPANY_CREATED to COMPANY_CREATED--><path d="M301.632,344.2005 C317.656,345.1205 329.6,349.3525 329.6,356.9125 C329.6,363.8245 319.616,367.9525 305.664,369.3125 " fill="none" id="COMPANY_CREATED-to-COMPANY_CREATED" style="stroke:#A80036;stroke-width:0.8000000000000002;"/><polygon fill="#A80036" points="301.632,369.6245,309.0574,372.2596,305.6201,369.316,308.5637,365.8787,301.632,369.6245" style="stroke:#A80036;stroke-width:0.8000000000000002;"/><path d="M333.6,331.7125 L333.6,378.9125 L427.2,378.9125 L427.2,339.7125 L419.2,331.7125 L333.6,331.7125 " fill="#FBFB77" filter="url(#f1hbyjx7o2s3qz)" style="stroke:#A80036;stroke-width:0.8000000000000002;"/><path d="M419.2,331.7125 L419.2,339.7125 L427.2,339.7125 L419.2,331.7125 " fill="#FBFB77" style="stroke:#A80036;stroke-width:0.8000000000000002;"/><text fill="#000000" font-family="sans-serif" font-size="10.4" lengthAdjust="spacing" textLength="68" x="338.4" y="346.5086">ReadCompany</text><text fill="#000000" font-family="sans-serif" font-size="10.4" lengthAdjust="spacing" textLength="76.8" x="338.4" y="359.5898">UpdateCompany</text><text fill="#000000" font-family="sans-serif" font-size="10.4" lengthAdjust="spacing" textLength="73.6" x="338.4" y="372.6711">DeleteCompany</text><!--MD5=[9847800d6c7c5a2210a57fd464861734]
link COMPANY_CREATED to HEADQUARTER_CREATED--><path d="M236.8,377.2085 C236.8,412.1365 236.8,485.2405 236.8,522.9285 " fill="none" id="COMPANY_CREATED-to-HEADQUARTER_CREATED" style="stroke:#A80036;stroke-width:0.8000000000000002;"/><polygon fill="#A80036" points="236.8,527.1285,240,519.9285,236.8,523.1285,233.6,519.9285,236.8,527.1285" style="stroke:#A80036;stroke-width:0.8000000000000002;"/><path d="M240.8,440.1125 L240.8,460.9125 L344,460.9125 L344,448.1125 L336,440.1125 L240.8,440.1125 " fill="#FBFB77" filter="url(#f1hbyjx7o2s3qz)" style="stroke:#A80036;stroke-width:0.8000000000000002;"/><path d="M336,440.1125 L336,448.1125 L344,448.1125 L336,440.1125 " fill="#FBFB77" style="stroke:#A80036;stroke-width:0.8000000000000002;"/><text fill="#000000" font-family="sans-serif" font-size="10.4" lengthAdjust="spacing" textLength="86.4" x="245.6" y="454.9086">CreateHeadquarter</text><!--MD5=[ac0a97c6d46e142a7af651248aed14c3]
link HEADQUARTER_CREATED to HEADQUARTER_CREATED--><path d="M316.04,532.5765 C332.32,534.1525 344,539.0645 344,547.3125 C344,554.8485 334.24,559.6005 320.128,561.5685 " fill="none" id="HEADQUARTER_CREATED-to-HEADQUARTER_CREATED" style="stroke:#A80036;stroke-width:0.8000000000000002;"/><polygon fill="#A80036" points="316.04,562.0485,323.565,564.3841,320.0125,561.5805,322.8161,558.028,316.04,562.0485" style="stroke:#A80036;stroke-width:0.8000000000000002;"/><path d="M348,522.1125 L348,569.3125 L453.6,569.3125 L453.6,530.1125 L445.6,522.1125 L348,522.1125 " fill="#FBFB77" filter="url(#f1hbyjx7o2s3qz)" style="stroke:#A80036;stroke-width:0.8000000000000002;"/><path d="M445.6,522.1125 L445.6,530.1125 L453.6,530.1125 L445.6,522.1125 " fill="#FBFB77" style="stroke:#A80036;stroke-width:0.8000000000000002;"/><text fill="#000000" font-family="sans-serif" font-size="10.4" lengthAdjust="spacing" textLength="80" x="352.8" y="536.9086">ReadHeadquarter</text><text fill="#000000" font-family="sans-serif" font-size="10.4" lengthAdjust="spacing" textLength="88.8" x="352.8" y="549.9898">UpdateHeadquarter</text><text fill="#000000" font-family="sans-serif" font-size="10.4" lengthAdjust="spacing" textLength="85.6" x="352.8" y="563.0711">DeleteHeadquarter</text><!--MD5=[5f0bce078ba03990d6d4e1092cb8839a]
link HEADQUARTER_CREATED to MAP_CREATED--><path d="M252.744,567.4725 C277.704,597.7765 325.88,656.2805 352.456,688.5525 " fill="none" id="HEADQUARTER_CREATED-to-MAP_CREATED" style="stroke:#A80036;stroke-width:0.8000000000000002;"/><polygon fill="#A80036" points="355.272,691.9765,353.1848,684.3789,352.7372,688.8822,348.2339,688.4346,355.272,691.9765" style="stroke:#A80036;stroke-width:0.8000000000000002;"/><path d="M332,617.7125 L332,638.5125 L399.2,638.5125 L399.2,625.7125 L391.2,617.7125 L332,617.7125 " fill="#FBFB77" filter="url(#f1hbyjx7o2s3qz)" style="stroke:#A80036;stroke-width:0.8000000000000002;"/><path d="M391.2,617.7125 L391.2,625.7125 L399.2,625.7125 L391.2,617.7125 " fill="#FBFB77" style="stroke:#A80036;stroke-width:0.8000000000000002;"/><text fill="#000000" font-family="sans-serif" font-size="10.4" lengthAdjust="spacing" textLength="50.4" x="336.8" y="632.5086">CreateMap</text><!--MD5=[993225077c6b5fd60a0242ba1286f913]
link MAP_CREATED to MAP_CREATED--><path d="M420.576,699.2165 C436.128,699.4165 448.4,703.7125 448.4,712.1125 C448.4,719.7205 438.32,723.9685 424.856,724.8405 " fill="none" id="MAP_CREATED-to-MAP_CREATED" style="stroke:#A80036;stroke-width:0.8000000000000002;"/><polygon fill="#A80036" points="420.576,725.0085,427.8901,727.9383,424.5732,724.8596,427.6519,721.5427,420.576,725.0085" style="stroke:#A80036;stroke-width:0.8000000000000002;"/><path d="M452.4,686.9125 L452.4,734.1125 L522,734.1125 L522,694.9125 L514,686.9125 L452.4,686.9125 " fill="#FBFB77" filter="url(#f1hbyjx7o2s3qz)" style="stroke:#A80036;stroke-width:0.8000000000000002;"/><path d="M514,686.9125 L514,694.9125 L522,694.9125 L514,686.9125 " fill="#FBFB77" style="stroke:#A80036;stroke-width:0.8000000000000002;"/><text fill="#000000" font-family="sans-serif" font-size="10.4" lengthAdjust="spacing" textLength="44" x="457.2" y="701.7086">ReadMap</text><text fill="#000000" font-family="sans-serif" font-size="10.4" lengthAdjust="spacing" textLength="52.8" x="457.2" y="714.7898">UpdateMap</text><text fill="#000000" font-family="sans-serif" font-size="10.4" lengthAdjust="spacing" textLength="49.6" x="457.2" y="727.8711">DeleteMap</text><!--MD5=[84e5dabd7f4d2038add9115a268f9b39]
link MAP_CREATED to STATS_GENERATED--><path d="M403.608,732.2245 C446.168,757.5845 520.672,801.9685 564.896,828.3205 " fill="none" id="MAP_CREATED-to-STATS_GENERATED" style="stroke:#A80036;stroke-width:0.8000000000000002;"/><polygon fill="#A80036" points="568.552,830.5045,564.015,824.0628,565.119,828.4516,560.7303,829.5556,568.552,830.5045" style="stroke:#A80036;stroke-width:0.8000000000000002;"/><!--MD5=[766a1363d58e32be58d8c32e0be58eab]
link OPENED_APPLICATION to SENSOR_CREATED--><path d="M415.856,247.7285 C425.216,254.6325 435.2,262.9125 443.2,271.7125 C488.408,321.4725 525.888,392.0645 543.528,428.1365 " fill="none" id="OPENED_APPLICATION-to-SENSOR_CREATED" style="stroke:#A80036;stroke-width:0.8000000000000002;"/><polygon fill="#A80036" points="545.384,431.9365,545.1069,424.0623,543.6319,428.3407,539.3535,426.8657,545.384,431.9365" style="stroke:#A80036;stroke-width:0.8000000000000002;"/><path d="M473.6,275.7125 L473.6,296.5125 L553.6,296.5125 L553.6,283.7125 L545.6,275.7125 L473.6,275.7125 " fill="#FBFB77" filter="url(#f1hbyjx7o2s3qz)" style="stroke:#A80036;stroke-width:0.8000000000000002;"/><path d="M545.6,275.7125 L545.6,283.7125 L553.6,283.7125 L545.6,275.7125 " fill="#FBFB77" style="stroke:#A80036;stroke-width:0.8000000000000002;"/><text fill="#000000" font-family="sans-serif" font-size="10.4" lengthAdjust="spacing" textLength="63.2" x="478.4" y="290.5086">CreateSensor</text><!--MD5=[a190cf97c4f7354415dda548de13690d]
link SENSOR_CREATED to SENSOR_CREATED--><path d="M614.928,434.5845 C630.8,435.6245 642.8,441.4645 642.8,452.1125 C642.8,461.8485 632.776,467.5605 618.928,469.2725 " fill="none" id="SENSOR_CREATED-to-SENSOR_CREATED" style="stroke:#A80036;stroke-width:0.8000000000000002;"/><polygon fill="#A80036" points="614.928,469.6405,622.3908,472.1678,618.9112,469.2742,621.8047,465.7947,614.928,469.6405" style="stroke:#A80036;stroke-width:0.8000000000000002;"/><path d="M646.8,414.1125 L646.8,486.9125 L753.2,486.9125 L753.2,422.1125 L745.2,414.1125 L646.8,414.1125 " fill="#FBFB77" filter="url(#f1hbyjx7o2s3qz)" style="stroke:#A80036;stroke-width:0.8000000000000002;"/><path d="M745.2,414.1125 L745.2,422.1125 L753.2,422.1125 L745.2,414.1125 " fill="#FBFB77" style="stroke:#A80036;stroke-width:0.8000000000000002;"/><text fill="#000000" font-family="sans-serif" font-size="10.4" lengthAdjust="spacing" textLength="56.8" x="651.6" y="428.9086">ReadSensor</text><text fill="#000000" font-family="sans-serif" font-size="10.4" lengthAdjust="spacing" textLength="65.6" x="651.6" y="441.9898">UpdateSensor</text><text fill="#000000" font-family="sans-serif" font-size="10.4" lengthAdjust="spacing" textLength="62.4" x="651.6" y="455.0711">DeleteSensor</text><text fill="#000000" font-family="sans-serif" font-size="10.4" lengthAdjust="spacing" textLength="82.4" x="651.6" y="468.1523">AddSensorToMap</text><text fill="#000000" font-family="sans-serif" font-size="10.4" lengthAdjust="spacing" textLength="89.6" x="651.6" y="481.2336">AddSensorToStock</text><!--MD5=[92b3523958754127b757e700955aac7e]
link COMPANY_CREATED to *end--><path d="M177.056,376.9605 C108.312,403.3045 4.8,457.7125 4.8,546.5125 C4.8,546.5125 4.8,546.5125 4.8,851.3125 C4.8,958.0725 193.976,966.6165 244.512,966.9925 " fill="none" id="COMPANY_CREATED-to-*end" style="stroke:#A80036;stroke-width:0.8000000000000002;"/><polygon fill="#A80036" points="248.704,967.0085,241.5132,963.7879,244.704,966.9971,241.4949,970.1879,248.704,967.0085" style="stroke:#A80036;stroke-width:0.8000000000000002;"/><path d="M8.8,700.1125 L8.8,720.9125 L150.4,720.9125 L150.4,708.1125 L142.4,700.1125 L8.8,700.1125 " fill="#FBFB77" filter="url(#f1hbyjx7o2s3qz)" style="stroke:#A80036;stroke-width:0.8000000000000002;"/><path d="M142.4,700.1125 L142.4,708.1125 L150.4,708.1125 L142.4,700.1125 " fill="#FBFB77" style="stroke:#A80036;stroke-width:0.8000000000000002;"/><text fill="#000000" font-family="sans-serif" font-size="10.4" lengthAdjust="spacing" textLength="124.8" x="13.6" y="714.9086">Logout (not on this version)</text><!--MD5=[6422ae0d995ab2236496d8f2a215ac8d]
link HEADQUARTER_CREATED to *end--><path d="M228.912,567.5205 C212.856,609.4725 179.16,711.7685 194.4,797.3125 C205.632,860.3525 238.608,930.6645 251.528,956.5925 " fill="none" id="HEADQUARTER_CREATED-to-*end" style="stroke:#A80036;stroke-width:0.8000000000000002;"/><polygon fill="#A80036" points="253.424,960.3685,253.0562,952.498,251.6306,956.7931,247.3355,955.3675,253.424,960.3685" style="stroke:#A80036;stroke-width:0.8000000000000002;"/><path d="M198.4,769.3125 L198.4,790.1125 L340,790.1125 L340,777.3125 L332,769.3125 L198.4,769.3125 " fill="#FBFB77" filter="url(#f1hbyjx7o2s3qz)" style="stroke:#A80036;stroke-width:0.8000000000000002;"/><path d="M332,769.3125 L332,777.3125 L340,777.3125 L332,769.3125 " fill="#FBFB77" style="stroke:#A80036;stroke-width:0.8000000000000002;"/><text fill="#000000" font-family="sans-serif" font-size="10.4" lengthAdjust="spacing" textLength="124.8" x="203.2" y="784.1086">Logout (not on this version)</text><!--MD5=[400d723ceed96febb9ed112b19b71649]
link MAP_CREATED to *end--><path d="M368.936,732.1685 C366.48,749.5925 361.768,775.7605 353.6,797.3125 C328.872,862.5845 281.312,932.5605 263.64,957.4565 " fill="none" id="MAP_CREATED-to-*end" style="stroke:#A80036;stroke-width:0.8000000000000002;"/><polygon fill="#A80036" points="261.248,960.8005,268.0408,956.8083,263.5762,957.5479,262.8366,953.0832,261.248,960.8005" style="stroke:#A80036;stroke-width:0.8000000000000002;"/><path d="M348,838.5125 L348,859.3125 L489.6,859.3125 L489.6,846.5125 L481.6,838.5125 L348,838.5125 " fill="#FBFB77" filter="url(#f1hbyjx7o2s3qz)" style="stroke:#A80036;stroke-width:0.8000000000000002;"/><path d="M481.6,838.5125 L481.6,846.5125 L489.6,846.5125 L481.6,838.5125 " fill="#FBFB77" style="stroke:#A80036;stroke-width:0.8000000000000002;"/><text fill="#000000" font-family="sans-serif" font-size="10.4" lengthAdjust="spacing" textLength="124.8" x="352.8" y="853.3086">Logout (not on this version)</text><!--MD5=[84e0b3b84ec07514403377676cd4d02e]
link SENSOR_CREATED to STATS_GENERATED--><path d="M556.672,472.3205 C564.392,538.3765 589.648,754.3605 598.056,826.2245 " fill="none" id="SENSOR_CREATED-to-STATS_GENERATED" style="stroke:#A80036;stroke-width:0.8000000000000002;"/><polygon fill="#A80036" points="598.536,830.3445,600.8929,822.8262,598.0792,826.3707,594.5348,823.557,598.536,830.3445" style="stroke:#A80036;stroke-width:0.8000000000000002;"/><path d="M581.6,604.5125 L581.6,651.7125 L648.8,651.7125 L648.8,612.5125 L640.8,604.5125 L581.6,604.5125 " fill="#FBFB77" filter="url(#f1hbyjx7o2s3qz)" style="stroke:#A80036;stroke-width:0.8000000000000002;"/><path d="M640.8,604.5125 L640.8,612.5125 L648.8,612.5125 L640.8,604.5125 " fill="#FBFB77" style="stroke:#A80036;stroke-width:0.8000000000000002;"/><text fill="#000000" font-family="sans-serif" font-size="10.4" lengthAdjust="spacing" textLength="50.4" x="586.4" y="619.3086">ShowState</text><text fill="#000000" font-family="sans-serif" font-size="10.4" lengthAdjust="spacing" textLength="46.4" x="586.4" y="632.3898">PrintState</text><text fill="#000000" font-family="sans-serif" font-size="10.4" lengthAdjust="spacing" textLength="48.8" x="586.4" y="645.4711">SendState</text><!--MD5=[b0a3cebe3f57c0fa4cb413997934ee30]
link STATS_GENERATED to STATS_GENERATED--><path d="M664.096,837.7765 C680.048,838.6405 692,842.8885 692,850.5125 C692,857.4805 682.016,861.6325 668.112,862.9525 " fill="none" id="STATS_GENERATED-to-STATS_GENERATED" style="stroke:#A80036;stroke-width:0.8000000000000002;"/><polygon fill="#A80036" points="664.096,863.2485,671.5138,865.9047,668.0849,862.9513,671.0384,859.5224,664.096,863.2485" style="stroke:#A80036;stroke-width:0.8000000000000002;"/><path d="M696,825.3125 L696,872.5125 L763.2,872.5125 L763.2,833.3125 L755.2,825.3125 L696,825.3125 " fill="#FBFB77" filter="url(#f1hbyjx7o2s3qz)" style="stroke:#A80036;stroke-width:0.8000000000000002;"/><path d="M755.2,825.3125 L755.2,833.3125 L763.2,833.3125 L755.2,825.3125 " fill="#FBFB77" style="stroke:#A80036;stroke-width:0.8000000000000002;"/><text fill="#000000" font-family="sans-serif" font-size="10.4" lengthAdjust="spacing" textLength="48.8" x="700.8" y="840.1086">SendState</text><text fill="#000000" font-family="sans-serif" font-size="10.4" lengthAdjust="spacing" textLength="50.4" x="700.8" y="853.1898">ShowState</text><text fill="#000000" font-family="sans-serif" font-size="10.4" lengthAdjust="spacing" textLength="46.4" x="700.8" y="866.2711">PrintState</text><!--MD5=[47909c42bd19c15bba265428d18a2733]
link STATS_GENERATED to *end--><path d="M554.296,870.5925 C509.504,888.7605 439.6,916.0485 377.6,935.7125 C338.112,948.2405 290.208,959.4645 268.496,964.3365 " fill="none" id="STATS_GENERATED-to-*end" style="stroke:#A80036;stroke-width:0.8000000000000002;"/><polygon fill="#A80036" points="264.512,965.2245,272.2357,966.7816,268.4162,964.3544,270.8435,960.5349,264.512,965.2245" style="stroke:#A80036;stroke-width:0.8000000000000002;"/><path d="M468.8,907.7125 L468.8,928.5125 L610.4,928.5125 L610.4,915.7125 L602.4,907.7125 L468.8,907.7125 " fill="#FBFB77" filter="url(#f1hbyjx7o2s3qz)" style="stroke:#A80036;stroke-width:0.8000000000000002;"/><path d="M602.4,907.7125 L602.4,915.7125 L610.4,915.7125 L602.4,907.7125 " fill="#FBFB77" style="stroke:#A80036;stroke-width:0.8000000000000002;"/><text fill="#000000" font-family="sans-serif" font-size="10.4" lengthAdjust="spacing" textLength="124.8" x="473.6" y="922.5086">Logout (not on this version)</text><!--MD5=[21e4bc33ee67187c615eac6c181152b5]
@startuml
title UseCaseContext

state INITIAL
state OPENED_APPLICATION
state COMPANY_CREATED
state HEADQUARTER_CREATED
state MAP_CREATED
state SENSOR_CREATED
state STATS_GENERATED

[*] - -> INITIAL

INITIAL - -> OPENED_APPLICATION
note on link
    Login (not on this version)
end note

OPENED_APPLICATION - -> COMPANY_CREATED
    note on link
        CreateCompany
    end note
COMPANY_CREATED - -> COMPANY_CREATED
note on link
    ReadCompany
    UpdateCompany
    DeleteCompany
end note

COMPANY_CREATED - -> HEADQUARTER_CREATED
    note on link
        CreateHeadquarter
    end note

HEADQUARTER_CREATED - -> HEADQUARTER_CREATED
    note on link
        ReadHeadquarter
        UpdateHeadquarter
        DeleteHeadquarter
    end note

HEADQUARTER_CREATED - -> MAP_CREATED
    note on link
        CreateMap
    end note

MAP_CREATED - -> MAP_CREATED
    note on link
        ReadMap
        UpdateMap
        DeleteMap
    end note

MAP_CREATED - -> STATS_GENERATED

OPENED_APPLICATION - -> SENSOR_CREATED
    note on link
        CreateSensor
    end note

SENSOR_CREATED - -> SENSOR_CREATED
    note on link
        ReadSensor
        UpdateSensor
        DeleteSensor
        AddSensorToMap
        AddSensorToStock
    end note

COMPANY_CREATED - -> [*]
      note on link
          Logout (not on this version)
      end note

HEADQUARTER_CREATED - -> [*]
      note on link
          Logout (not on this version)
      end note

MAP_CREATED - -> [*]
      note on link
          Logout (not on this version)
      end note

SENSOR_CREATED - -> STATS_GENERATED
       note on link
           ShowState
           PrintState
           SendState
       end note

STATS_GENERATED - -> STATS_GENERATED
    note on link
        SendState
        ShowState
        PrintState
    end note

STATS_GENERATED - -> [*]
      note on link
          Logout (not on this version)
      end note
@enduml

PlantUML version 1.2021.16(Wed Dec 08 18:25:22 CET 2021)
(GPL source distribution)
Java Runtime: OpenJDK Runtime Environment
JVM: OpenJDK 64-Bit Server VM
Default Encoding: Cp1252
Language: es
Country: ES
--></g></svg>