<?xml version="1.0" encoding="UTF-8" standalone="no"?><svg xmlns="http://www.w3.org/2000/svg" xmlns:xlink="http://www.w3.org/1999/xlink" contentScriptType="application/ecmascript" contentStyleType="text/css" height="997.6px" preserveAspectRatio="none" style="width:770px;height:997px;background:#FFFFFF;" version="1.1" viewBox="0 0 770 997" width="770.4px" zoomAndPan="magnify"><defs><filter height="300%" id="f1hd1e0exampe9" width="300%" x="-1" y="-1"><feGaussianBlur result="blurOut" stdDeviation="1.6000000000000003"/><feColorMatrix in="blurOut" result="blurOut2" type="matrix" values="0 0 0 0 0 0 0 0 0 0 0 0 0 0 0 0 0 0 .4 0"/><feOffset dx="3.2000000000000006" dy="3.2000000000000006" in="blurOut2" result="blurOut3"/><feBlend in="SourceGraphic" in2="blurOut3" mode="normal"/></filter></defs><g><text fill="#000000" font-family="sans-serif" font-size="14.4" lengthAdjust="spacing" textLength="108" x="325.2" y="14.9484">UseCaseContext</text><g id="INITIAL"><rect fill="#FEFECE" filter="url(#f1hd1e0exampe9)" height="40" rx="10" ry="10" style="stroke:#A80036;stroke-width:1.2000000000000002;" width="51.2" x="360.8" y="87.7125"/><line style="stroke:#A80036;stroke-width:1.2000000000000002;" x1="360.8" x2="412" y1="109.8" y2="109.8"/><text fill="#000000" font-family="sans-serif" font-size="11.2" lengthAdjust="spacing" textLength="35.2" x="368.8" y="103.3391">INITIAL</text></g><g id="OPENED_APPLICATION"><rect fill="#FEFECE" filter="url(#f1hd1e0exampe9)" height="40" rx="10" ry="10" style="stroke:#A80036;stroke-width:1.2000000000000002;" width="139.2" x="316.8" y="207.7125"/><line style="stroke:#A80036;stroke-width:1.2000000000000002;" x1="316.8" x2="456" y1="229.8" y2="229.8"/><text fill="#000000" font-family="sans-serif" font-size="11.2" lengthAdjust="spacing" textLength="123.2" x="324.8" y="223.3391">OPENED_APPLICATION</text></g><g id="COMPANY_CREATED"><rect fill="#FEFECE" filter="url(#f1hd1e0exampe9)" height="40" rx="10" ry="10" style="stroke:#A80036;stroke-width:1.2000000000000002;" width="129.6" x="172" y="336.9125"/><line style="stroke:#A80036;stroke-width:1.2000000000000002;" x1="172" x2="301.6" y1="359" y2="359"/><text fill="#000000" font-family="sans-serif" font-size="11.2" lengthAdjust="spacing" textLength="113.6" x="180" y="352.5391">COMPANY_CREATED</text></g><g id="HEADQUARTER_CREATED"><rect fill="#FEFECE" filter="url(#f1hd1e0exampe9)" height="40" rx="10" ry="10" style="stroke:#A80036;stroke-width:1.2000000000000002;" width="158.4" x="157.6" y="527.3125"/><line style="stroke:#A80036;stroke-width:1.2000000000000002;" x1="157.6" x2="316" y1="549.4" y2="549.4"/><text fill="#000000" font-family="sans-serif" font-size="11.2" lengthAdjust="spacing" textLength="142.4" x="165.6" y="542.9391">HEADQUARTER_CREATED</text></g><g id="MAP_CREATED"><rect fill="#FEFECE" filter="url(#f1hd1e0exampe9)" height="40" rx="10" ry="10" style="stroke:#A80036;stroke-width:1.2000000000000002;" width="98.4" x="322" y="665.7125"/><line style="stroke:#A80036;stroke-width:1.2000000000000002;" x1="322" x2="420.4" y1="687.8" y2="687.8"/><text fill="#000000" font-family="sans-serif" font-size="11.2" lengthAdjust="spacing" textLength="82.4" x="330" y="681.3391">MAP_CREATED</text></g><g id="SENSOR_CREATED"><rect fill="#FEFECE" filter="url(#f1hd1e0exampe9)" height="40" rx="10" ry="10" style="stroke:#A80036;stroke-width:1.2000000000000002;" width="120.8" x="494" y="432.1125"/><line style="stroke:#A80036;stroke-width:1.2000000000000002;" x1="494" x2="614.8" y1="454.2" y2="454.2"/><text fill="#000000" font-family="sans-serif" font-size="11.2" lengthAdjust="spacing" textLength="104.8" x="502" y="447.7391">SENSOR_CREATED</text></g><g id="STATS_GENERATED"><rect fill="#FEFECE" filter="url(#f1hd1e0exampe9)" height="40" rx="10" ry="10" style="stroke:#A80036;stroke-width:1.2000000000000002;" width="126.4" x="537.6" y="823.7125"/><line style="stroke:#A80036;stroke-width:1.2000000000000002;" x1="537.6" x2="664" y1="845.8" y2="845.8"/><text fill="#000000" font-family="sans-serif" font-size="11.2" lengthAdjust="spacing" textLength="110.4" x="545.6" y="839.3391">STATS_GENERATED</text></g><ellipse cx="386.4" cy="30.9125" fill="#000000" filter="url(#f1hd1e0exampe9)" rx="8" ry="8" style="stroke:none;stroke-width:0.8000000000000002;"/><ellipse cx="256.8" cy="980.5125" filter="url(#f1hd1e0exampe9)" rx="8" ry="8" style="stroke:#000000;stroke-width:0.8000000000000002;fill:none;"/><ellipse cx="257.2" cy="980.9125" fill="#000000" rx="4.8" ry="4.8" style="stroke:none;stroke-width:0.8000000000000002;"/><!--MD5=[06c3f2024f4ea60966e79307ee69ec5f]
link *start to INITIAL--><path d="M386.4,38.9205 C386.4,49.0725 386.4,68.0405 386.4,83.3685 " fill="none" id="*start-to-INITIAL" style="stroke:#A80036;stroke-width:0.8000000000000002;"/><polygon fill="#A80036" points="386.4,87.5845,389.6,80.3845,386.4,83.5845,383.2,80.3845,386.4,87.5845" style="stroke:#A80036;stroke-width:0.8000000000000002;"/><!--MD5=[b018d4858215390e1e25566560874e02]
link INITIAL to OPENED_APPLICATION--><path d="M386.4,127.8005 C386.4,148.5285 386.4,181.4725 386.4,203.6245 " fill="none" id="INITIAL-to-OPENED_APPLICATION" style="stroke:#A80036;stroke-width:0.8000000000000002;"/><polygon fill="#A80036" points="386.4,207.6325,389.6,200.4325,386.4,203.6325,383.2,200.4325,386.4,207.6325" style="stroke:#A80036;stroke-width:0.8000000000000002;"/><path d="M390.4,155.7125 L390.4,176.5125 L525.6,176.5125 L525.6,163.7125 L517.6,155.7125 L390.4,155.7125 " fill="#FBFB77" filter="url(#f1hd1e0exampe9)" style="stroke:#A80036;stroke-width:0.8000000000000002;"/><path d="M517.6,155.7125 L517.6,163.7125 L525.6,163.7125 L517.6,155.7125 " fill="#FBFB77" style="stroke:#A80036;stroke-width:0.8000000000000002;"/><text fill="#000000" font-family="sans-serif" font-size="10.4" lengthAdjust="spacing" textLength="118.4" x="395.2" y="170.5086">Login (not on this version)</text><!--MD5=[fa56e13fca415027c0b9d2dd45ca1f01]
link OPENED_APPLICATION to COMPANY_CREATED--><path d="M363.68,247.8885 C336.472,271.0965 291.008,309.8725 262.536,334.1605 " fill="none" id="OPENED_APPLICATION-to-COMPANY_CREATED" style="stroke:#A80036;stroke-width:0.8000000000000002;"/><polygon fill="#A80036" points="259.488,336.7605,267.0462,334.5348,262.5355,334.1696,262.9007,329.6589,259.488,336.7605" style="stroke:#A80036;stroke-width:0.8000000000000002;"/><path d="M338.4,275.7125 L338.4,296.5125 L429.6,296.5125 L429.6,283.7125 L421.6,275.7125 L338.4,275.7125 " fill="#FBFB77" filter="url(#f1hd1e0exampe9)" style="stroke:#A80036;stroke-width:0.8000000000000002;"/><path d="M421.6,275.7125 L421.6,283.7125 L429.6,283.7125 L421.6,275.7125 " fill="#FBFB77" style="stroke:#A80036;stroke-width:0.8000000000000002;"/><text fill="#000000" font-family="sans-serif" font-size="10.4" lengthAdjust="spacing" textLength="74.4" x="343.2" y="290.5086">CreateCompany</text><!--MD5=[35882d49840eea2c0077b26f6001aaf9]
link COMPANY_CREATED to COMPANY_CREATED--><path d="M301.632,344.2005 C317.656,345.1205 329.6,349.3525 329.6,356.9125 C329.6,363.8245 319.616,367.9525 305.664,369.3125 " fill="none" id="COMPANY_CREATED-to-COMPANY_CREATED" style="stroke:#A80036;stroke-width:0.8000000000000002;"/><polygon fill="#A80036" points="301.632,369.6245,309.0574,372.2596,305.6201,369.316,308.5637,365.8787,301.632,369.6245" style="stroke:#A80036;stroke-width:0.8000000000000002;"/><path d="M333.6,331.7125 L333.6,378.9125 L427.2,378.9125 L427.2,339.7125 L419.2,331.7125 L333.6,331.7125 " fill="#FBFB77" filter="url(#f1hd1e0exampe9)" style="stroke:#A80036;stroke-width:0.8000000000000002;"/><path d="M419.2,331.7125 L419.2,339.7125 L427.2,339.7125 L419.2,331.7125 " fill="#FBFB77" style="stroke:#A80036;stroke-width:0.8000000000000002;"/><text fill="#000000" font-family="sans-serif" font-size="10.4" lengthAdjust="spacing" textLength="68" x="338.4" y="346.5086">ReadCompany</text><text fill="#000000" font-family="sans-serif" font-size="10.4" lengthAdjust="spacing" textLength="76.8" x="338.4" y="359.5898">UpdateCompany</text><text fill="#000000" font-family="sans-serif" font-size="10.4" lengthAdjust="spacing" textLength="73.6" x="338.4" y="372.6711">DeleteCompany</text><!--MD5=[9847800d6c7c5a2210a57fd464861734]
link COMPANY_CREATED to HEADQUARTER_CREATED--><path d="M236.8,377.2085 C236.8,412.1365 236.8,485.2405 236.8,522.9285 " fill="none" id="COMPANY_CREATED-to-HEADQUARTER_CREATED" style="stroke:#A80036;stroke-width:0.8000000000000002;"/><polygon fill="#A80036" points="236.8,527.1285,240,519.9285,236.8,523.1285,233.6,519.9285,236.8,527.1285" style="stroke:#A80036;stroke-width:0.8000000000000002;"/><path d="M240.8,440.1125 L240.8,460.9125 L344,460.9125 L344,448.1125 L336,440.1125 L240.8,440.1125 " fill="#FBFB77" filter="url(#f1hd1e0exampe9)" style="stroke:#A80036;stroke-width:0.8000000000000002;"/><path d="M336,440.1125 L336,448.1125 L344,448.1125 L336,440.1125 " fill="#FBFB77" style="stroke:#A80036;stroke-width:0.8000000000000002;"/><text fill="#000000" font-family="sans-serif" font-size="10.4" lengthAdjust="spacing" textLength="86.4" x="245.6" y="454.9086">CreateHeadquarter</text><!--MD5=[ac0a97c6d46e142a7af651248aed14c3]
link HEADQUARTER_CREATED to HEADQUARTER_CREATED--><path d="M316.04,534.8885 C332.32,536.2165 344,540.3605 344,547.3125 C344,553.6725 334.24,557.6725 320.128,559.3365 " fill="none" id="HEADQUARTER_CREATED-to-HEADQUARTER_CREATED" style="stroke:#A80036;stroke-width:0.8000000000000002;"/><polygon fill="#A80036" points="316.04,559.7365,323.5241,562.1999,320.0199,559.3362,322.8836,555.8321,316.04,559.7365" style="stroke:#A80036;stroke-width:0.8000000000000002;"/><path d="M348,522.1125 L348,569.3125 L453.6,569.3125 L453.6,530.1125 L445.6,522.1125 L348,522.1125 " fill="#FBFB77" filter="url(#f1hd1e0exampe9)" style="stroke:#A80036;stroke-width:0.8000000000000002;"/><path d="M445.6,522.1125 L445.6,530.1125 L453.6,530.1125 L445.6,522.1125 " fill="#FBFB77" style="stroke:#A80036;stroke-width:0.8000000000000002;"/><text fill="#000000" font-family="sans-serif" font-size="10.4" lengthAdjust="spacing" textLength="80" x="352.8" y="536.9086">ReadHeadquarter</text><text fill="#000000" font-family="sans-serif" font-size="10.4" lengthAdjust="spacing" textLength="88.8" x="352.8" y="549.9898">UpdateHeadquarter</text><text fill="#000000" font-family="sans-serif" font-size="10.4" lengthAdjust="spacing" textLength="85.6" x="352.8" y="563.0711">DeleteHeadquarter</text><!--MD5=[5f0bce078ba03990d6d4e1092cb8839a]
link HEADQUARTER_CREATED to MAP_CREATED--><path d="M255.768,567.4245 C280.384,592.4725 323.248,636.1045 349.24,662.5605 " fill="none" id="HEADQUARTER_CREATED-to-MAP_CREATED" style="stroke:#A80036;stroke-width:0.8000000000000002;"/><polygon fill="#A80036" points="352.328,665.7045,349.559,658.328,349.5225,662.8534,344.9971,662.8169,352.328,665.7045" style="stroke:#A80036;stroke-width:0.8000000000000002;"/><path d="M320.8,604.5125 L320.8,625.3125 L388,625.3125 L388,612.5125 L380,604.5125 L320.8,604.5125 " fill="#FBFB77" filter="url(#f1hd1e0exampe9)" style="stroke:#A80036;stroke-width:0.8000000000000002;"/><path d="M380,604.5125 L380,612.5125 L388,612.5125 L380,604.5125 " fill="#FBFB77" style="stroke:#A80036;stroke-width:0.8000000000000002;"/><text fill="#000000" font-family="sans-serif" font-size="10.4" lengthAdjust="spacing" textLength="50.4" x="325.6" y="619.3086">CreateMap</text><!--MD5=[993225077c6b5fd60a0242ba1286f913]
link MAP_CREATED to MAP_CREATED--><path d="M420.576,672.8165 C436.128,673.0165 448.4,677.3125 448.4,685.7125 C448.4,693.3205 438.32,697.5685 424.856,698.4405 " fill="none" id="MAP_CREATED-to-MAP_CREATED" style="stroke:#A80036;stroke-width:0.8000000000000002;"/><polygon fill="#A80036" points="420.576,698.6085,427.8901,701.5383,424.5732,698.4596,427.6519,695.1427,420.576,698.6085" style="stroke:#A80036;stroke-width:0.8000000000000002;"/><path d="M452.4,660.5125 L452.4,707.7125 L522,707.7125 L522,668.5125 L514,660.5125 L452.4,660.5125 " fill="#FBFB77" filter="url(#f1hd1e0exampe9)" style="stroke:#A80036;stroke-width:0.8000000000000002;"/><path d="M514,660.5125 L514,668.5125 L522,668.5125 L514,660.5125 " fill="#FBFB77" style="stroke:#A80036;stroke-width:0.8000000000000002;"/><text fill="#000000" font-family="sans-serif" font-size="10.4" lengthAdjust="spacing" textLength="44" x="457.2" y="675.3086">ReadMap</text><text fill="#000000" font-family="sans-serif" font-size="10.4" lengthAdjust="spacing" textLength="52.8" x="457.2" y="688.3898">UpdateMap</text><text fill="#000000" font-family="sans-serif" font-size="10.4" lengthAdjust="spacing" textLength="49.6" x="457.2" y="701.4711">DeleteMap</text><!--MD5=[84e5dabd7f4d2038add9115a268f9b39]
link MAP_CREATED to STATS_GENERATED--><path d="M399.584,705.8485 C442.616,735.1605 524.096,790.6645 569.04,821.2805 " fill="none" id="MAP_CREATED-to-STATS_GENERATED" style="stroke:#A80036;stroke-width:0.8000000000000002;"/><polygon fill="#A80036" points="572.48,823.6245,568.3331,816.925,569.1748,821.3715,564.7283,822.2132,572.48,823.6245" style="stroke:#A80036;stroke-width:0.8000000000000002;"/><!--MD5=[766a1363d58e32be58d8c32e0be58eab]
link OPENED_APPLICATION to SENSOR_CREATED--><path d="M415.856,247.7285 C425.216,254.6325 435.2,262.9125 443.2,271.7125 C488.408,321.4725 525.888,392.0645 543.528,428.1365 " fill="none" id="OPENED_APPLICATION-to-SENSOR_CREATED" style="stroke:#A80036;stroke-width:0.8000000000000002;"/><polygon fill="#A80036" points="545.384,431.9365,545.1069,424.0623,543.6319,428.3407,539.3535,426.8657,545.384,431.9365" style="stroke:#A80036;stroke-width:0.8000000000000002;"/><path d="M473.6,275.7125 L473.6,296.5125 L553.6,296.5125 L553.6,283.7125 L545.6,275.7125 L473.6,275.7125 " fill="#FBFB77" filter="url(#f1hd1e0exampe9)" style="stroke:#A80036;stroke-width:0.8000000000000002;"/><path d="M545.6,275.7125 L545.6,283.7125 L553.6,283.7125 L545.6,275.7125 " fill="#FBFB77" style="stroke:#A80036;stroke-width:0.8000000000000002;"/><text fill="#000000" font-family="sans-serif" font-size="10.4" lengthAdjust="spacing" textLength="63.2" x="478.4" y="290.5086">CreateSensor</text><!--MD5=[a190cf97c4f7354415dda548de13690d]
link SENSOR_CREATED to SENSOR_CREATED--><path d="M614.928,434.5845 C630.8,435.6245 642.8,441.4645 642.8,452.1125 C642.8,461.8485 632.776,467.5605 618.928,469.2725 " fill="none" id="SENSOR_CREATED-to-SENSOR_CREATED" style="stroke:#A80036;stroke-width:0.8000000000000002;"/><polygon fill="#A80036" points="614.928,469.6405,622.3908,472.1678,618.9112,469.2742,621.8047,465.7947,614.928,469.6405" style="stroke:#A80036;stroke-width:0.8000000000000002;"/><path d="M646.8,414.1125 L646.8,486.9125 L753.2,486.9125 L753.2,422.1125 L745.2,414.1125 L646.8,414.1125 " fill="#FBFB77" filter="url(#f1hd1e0exampe9)" style="stroke:#A80036;stroke-width:0.8000000000000002;"/><path d="M745.2,414.1125 L745.2,422.1125 L753.2,422.1125 L745.2,414.1125 " fill="#FBFB77" style="stroke:#A80036;stroke-width:0.8000000000000002;"/><text fill="#000000" font-family="sans-serif" font-size="10.4" lengthAdjust="spacing" textLength="56.8" x="651.6" y="428.9086">ReadSensor</text><text fill="#000000" font-family="sans-serif" font-size="10.4" lengthAdjust="spacing" textLength="65.6" x="651.6" y="441.9898">UpdateSensor</text><text fill="#000000" font-family="sans-serif" font-size="10.4" lengthAdjust="spacing" textLength="62.4" x="651.6" y="455.0711">DeleteSensor</text><text fill="#000000" font-family="sans-serif" font-size="10.4" lengthAdjust="spacing" textLength="82.4" x="651.6" y="468.1523">AddSensorToMap</text><text fill="#000000" font-family="sans-serif" font-size="10.4" lengthAdjust="spacing" textLength="89.6" x="651.6" y="481.2336">AddSensorToStock</text><!--MD5=[92b3523958754127b757e700955aac7e]
link COMPANY_CREATED to *end--><path d="M177.056,376.9605 C108.312,403.3045 4.8,457.7125 4.8,546.5125 C4.8,546.5125 4.8,546.5125 4.8,844.5125 C4.8,954.6325 193.976,975.4245 244.512,979.0165 " fill="none" id="COMPANY_CREATED-to-*end" style="stroke:#A80036;stroke-width:0.8000000000000002;"/><polygon fill="#A80036" points="248.704,979.2965,241.73,975.63,244.7127,979.0335,241.3092,982.0161,248.704,979.2965" style="stroke:#A80036;stroke-width:0.8000000000000002;"/><path d="M8.8,673.7125 L8.8,694.5125 L150.4,694.5125 L150.4,681.7125 L142.4,673.7125 L8.8,673.7125 " fill="#FBFB77" filter="url(#f1hd1e0exampe9)" style="stroke:#A80036;stroke-width:0.8000000000000002;"/><path d="M142.4,673.7125 L142.4,681.7125 L150.4,681.7125 L142.4,673.7125 " fill="#FBFB77" style="stroke:#A80036;stroke-width:0.8000000000000002;"/><text fill="#000000" font-family="sans-serif" font-size="10.4" lengthAdjust="spacing" textLength="124.8" x="13.6" y="688.5086">Logout (not on this version)</text><!--MD5=[6422ae0d995ab2236496d8f2a215ac8d]
link HEADQUARTER_CREATED to *end--><path d="M228.72,567.3925 C213.552,605.8965 183.32,695.1365 194.4,770.9125 C205.824,849.0165 240.072,938.4965 252.352,968.9365 " fill="none" id="HEADQUARTER_CREATED-to-*end" style="stroke:#A80036;stroke-width:0.8000000000000002;"/><polygon fill="#A80036" points="253.872,972.6725,254.1398,964.798,252.3726,968.9641,248.2065,967.197,253.872,972.6725" style="stroke:#A80036;stroke-width:0.8000000000000002;"/><path d="M198.4,742.9125 L198.4,763.7125 L340,763.7125 L340,750.9125 L332,742.9125 L198.4,742.9125 " fill="#FBFB77" filter="url(#f1hd1e0exampe9)" style="stroke:#A80036;stroke-width:0.8000000000000002;"/><path d="M332,742.9125 L332,750.9125 L340,750.9125 L332,742.9125 " fill="#FBFB77" style="stroke:#A80036;stroke-width:0.8000000000000002;"/><text fill="#000000" font-family="sans-serif" font-size="10.4" lengthAdjust="spacing" textLength="124.8" x="203.2" y="757.7086">Logout (not on this version)</text><!--MD5=[400d723ceed96febb9ed112b19b71649]
link MAP_CREATED to *end--><path d="M368.44,705.9525 C365.68,723.2725 360.8,749.1765 353.6,770.9125 C327.272,850.4085 279.168,939.6885 262.592,969.4485 " fill="none" id="MAP_CREATED-to-*end" style="stroke:#A80036;stroke-width:0.8000000000000002;"/><polygon fill="#A80036" points="260.56,973.0965,266.8657,968.3723,262.5113,969.6047,261.2789,965.2503,260.56,973.0965" style="stroke:#A80036;stroke-width:0.8000000000000002;"/><path d="M348.8,831.7125 L348.8,852.5125 L490.4,852.5125 L490.4,839.7125 L482.4,831.7125 L348.8,831.7125 " fill="#FBFB77" filter="url(#f1hd1e0exampe9)" style="stroke:#A80036;stroke-width:0.8000000000000002;"/><path d="M482.4,831.7125 L482.4,839.7125 L490.4,839.7125 L482.4,831.7125 " fill="#FBFB77" style="stroke:#A80036;stroke-width:0.8000000000000002;"/><text fill="#000000" font-family="sans-serif" font-size="10.4" lengthAdjust="spacing" textLength="124.8" x="353.6" y="846.5086">Logout (not on this version)</text><!--MD5=[84e0b3b84ec07514403377676cd4d02e]
link SENSOR_CREATED to STATS_GENERATED--><path d="M556.704,472.2565 C564.456,537.4325 589.616,748.9045 598.032,819.6325 " fill="none" id="SENSOR_CREATED-to-STATS_GENERATED" style="stroke:#A80036;stroke-width:0.8000000000000002;"/><polygon fill="#A80036" points="598.512,823.6885,600.8476,816.1635,598.044,819.716,594.4915,816.9124,598.512,823.6885" style="stroke:#A80036;stroke-width:0.8000000000000002;"/><!--MD5=[b0a3cebe3f57c0fa4cb413997934ee30]
link STATS_GENERATED to STATS_GENERATED--><path d="M664.096,827.4245 C680.048,828.5285 692,833.9605 692,843.7125 C692,852.6245 682.016,857.9285 668.112,859.6165 " fill="none" id="STATS_GENERATED-to-STATS_GENERATED" style="stroke:#A80036;stroke-width:0.8000000000000002;"/><polygon fill="#A80036" points="664.096,860.0005,671.5659,862.5065,668.0781,859.6229,670.9618,856.1351,664.096,860.0005" style="stroke:#A80036;stroke-width:0.8000000000000002;"/><path d="M696,798.9125 L696,885.3125 L763.2,885.3125 L763.2,806.9125 L755.2,798.9125 L696,798.9125 " fill="#FBFB77" filter="url(#f1hd1e0exampe9)" style="stroke:#A80036;stroke-width:0.8000000000000002;"/><path d="M755.2,798.9125 L755.2,806.9125 L763.2,806.9125 L755.2,798.9125 " fill="#FBFB77" style="stroke:#A80036;stroke-width:0.8000000000000002;"/><text fill="#000000" font-family="sans-serif" font-size="10.4" lengthAdjust="spacing" textLength="48.8" x="700.8" y="813.7086">SendState</text><text fill="#000000" font-family="sans-serif" font-size="10.4" lengthAdjust="spacing" textLength="50.4" x="700.8" y="826.7898">ShowState</text><text fill="#000000" font-family="sans-serif" font-size="10.4" lengthAdjust="spacing" textLength="46.4" x="700.8" y="839.8711">PrintState</text><text fill="#000000" font-family="sans-serif" font-size="10.4" lengthAdjust="spacing" textLength="50.4" x="700.8" y="852.9523">ShowState</text><text fill="#000000" font-family="sans-serif" font-size="10.4" lengthAdjust="spacing" textLength="46.4" x="700.8" y="866.0336">PrintState</text><text fill="#000000" font-family="sans-serif" font-size="10.4" lengthAdjust="spacing" textLength="48.8" x="700.8" y="879.1148">SendState</text><!--MD5=[47909c42bd19c15bba265428d18a2733]
link STATS_GENERATED to *end--><path d="M569.112,863.7525 C553.4,872.9605 533.976,883.8325 516,892.5125 C456.24,921.3605 440.616,927.7285 377.6,948.5125 C338.256,961.4885 290.28,972.4885 268.528,977.2245 " fill="none" id="STATS_GENERATED-to-*end" style="stroke:#A80036;stroke-width:0.8000000000000002;"/><polygon fill="#A80036" points="264.536,978.0885,272.2499,979.6935,268.4455,977.2426,270.8964,973.4382,264.536,978.0885" style="stroke:#A80036;stroke-width:0.8000000000000002;"/><path d="M468.8,920.5125 L468.8,941.3125 L610.4,941.3125 L610.4,928.5125 L602.4,920.5125 L468.8,920.5125 " fill="#FBFB77" filter="url(#f1hd1e0exampe9)" style="stroke:#A80036;stroke-width:0.8000000000000002;"/><path d="M602.4,920.5125 L602.4,928.5125 L610.4,928.5125 L602.4,920.5125 " fill="#FBFB77" style="stroke:#A80036;stroke-width:0.8000000000000002;"/><text fill="#000000" font-family="sans-serif" font-size="10.4" lengthAdjust="spacing" textLength="124.8" x="473.6" y="935.3086">Logout (not on this version)</text><!--MD5=[4fcfe9ef6eeadc115a30adbf05f085d6]
@startuml
title UseCaseContext

state INITIAL
state OPENED_APPLICATION
state COMPANY_CREATED
state HEADQUARTER_CREATED
state MAP_CREATED
state SENSOR_CREATED
state STATS_GENERATED

[*] - -> INITIAL

INITIAL - -> OPENED_APPLICATION
note on link
    Login (not on this version)
end note

OPENED_APPLICATION - -> COMPANY_CREATED
    note on link
        CreateCompany
    end note
COMPANY_CREATED - -> COMPANY_CREATED
note on link
    ReadCompany
    UpdateCompany
    DeleteCompany
end note

COMPANY_CREATED - -> HEADQUARTER_CREATED
    note on link
        CreateHeadquarter
    end note

HEADQUARTER_CREATED - -> HEADQUARTER_CREATED
    note on link
        ReadHeadquarter
        UpdateHeadquarter
        DeleteHeadquarter
    end note

HEADQUARTER_CREATED - -> MAP_CREATED
    note on link
        CreateMap
    end note

MAP_CREATED - -> MAP_CREATED
    note on link
        ReadMap
        UpdateMap
        DeleteMap
    end note

MAP_CREATED - -> STATS_GENERATED

OPENED_APPLICATION - -> SENSOR_CREATED
    note on link
        CreateSensor
    end note

SENSOR_CREATED - -> SENSOR_CREATED
    note on link
        ReadSensor
        UpdateSensor
        DeleteSensor
        AddSensorToMap
        AddSensorToStock
    end note

COMPANY_CREATED - -> [*]
      note on link
          Logout (not on this version)
      end note

HEADQUARTER_CREATED - -> [*]
      note on link
          Logout (not on this version)
      end note

MAP_CREATED - -> [*]
      note on link
          Logout (not on this version)
      end note

SENSOR_CREATED - -> STATS_GENERATED
'       note on link
'           ShowState
'           PrintState
'           SendState'
'       end note

STATS_GENERATED - -> STATS_GENERATED
    note on link
        SendState
        ShowState
        PrintState
        ShowState
        PrintState
        SendState
    end note

STATS_GENERATED - -> [*]
      note on link
          Logout (not on this version)
      end note
@enduml

@startuml
title UseCaseContext

state INITIAL
state OPENED_APPLICATION
state COMPANY_CREATED
state HEADQUARTER_CREATED
state MAP_CREATED
state SENSOR_CREATED
state STATS_GENERATED

[*] - -> INITIAL

INITIAL - -> OPENED_APPLICATION
note on link
    Login (not on this version)
end note

OPENED_APPLICATION - -> COMPANY_CREATED
    note on link
        CreateCompany
    end note
COMPANY_CREATED - -> COMPANY_CREATED
note on link
    ReadCompany
    UpdateCompany
    DeleteCompany
end note

COMPANY_CREATED - -> HEADQUARTER_CREATED
    note on link
        CreateHeadquarter
    end note

HEADQUARTER_CREATED - -> HEADQUARTER_CREATED
    note on link
        ReadHeadquarter
        UpdateHeadquarter
        DeleteHeadquarter
    end note

HEADQUARTER_CREATED - -> MAP_CREATED
    note on link
        CreateMap
    end note

MAP_CREATED - -> MAP_CREATED
    note on link
        ReadMap
        UpdateMap
        DeleteMap
    end note

MAP_CREATED - -> STATS_GENERATED

OPENED_APPLICATION - -> SENSOR_CREATED
    note on link
        CreateSensor
    end note

SENSOR_CREATED - -> SENSOR_CREATED
    note on link
        ReadSensor
        UpdateSensor
        DeleteSensor
        AddSensorToMap
        AddSensorToStock
    end note

COMPANY_CREATED - -> [*]
      note on link
          Logout (not on this version)
      end note

HEADQUARTER_CREATED - -> [*]
      note on link
          Logout (not on this version)
      end note

MAP_CREATED - -> [*]
      note on link
          Logout (not on this version)
      end note

SENSOR_CREATED - -> STATS_GENERATED

STATS_GENERATED - -> STATS_GENERATED
    note on link
        SendState
        ShowState
        PrintState
        ShowState
        PrintState
        SendState
    end note

STATS_GENERATED - -> [*]
      note on link
          Logout (not on this version)
      end note
@enduml

PlantUML version 1.2021.16(Wed Dec 08 18:25:22 CET 2021)
(GPL source distribution)
Java Runtime: OpenJDK Runtime Environment
JVM: OpenJDK 64-Bit Server VM
Default Encoding: Cp1252
Language: es
Country: ES
--></g></svg>