<?xml version="1.0" encoding="UTF-8" standalone="no"?><svg xmlns="http://www.w3.org/2000/svg" xmlns:xlink="http://www.w3.org/1999/xlink" contentScriptType="application/ecmascript" contentStyleType="text/css" height="958.4px" preserveAspectRatio="none" style="width:777px;height:958px;background:#FFFFFF;" version="1.1" viewBox="0 0 777 958" width="777.6px" zoomAndPan="magnify"><defs><filter height="300%" id="f17clzhjjo1mx6" width="300%" x="-1" y="-1"><feGaussianBlur result="blurOut" stdDeviation="1.6000000000000003"/><feColorMatrix in="blurOut" result="blurOut2" type="matrix" values="0 0 0 0 0 0 0 0 0 0 0 0 0 0 0 0 0 0 .4 0"/><feOffset dx="3.2000000000000006" dy="3.2000000000000006" in="blurOut2" result="blurOut3"/><feBlend in="SourceGraphic" in2="blurOut3" mode="normal"/></filter></defs><g><text fill="#000000" font-family="sans-serif" font-size="14.4" lengthAdjust="spacing" textLength="108" x="328.8" y="14.9484">UseCaseContext</text><g id="INITIAL"><rect fill="#FEFECE" filter="url(#f17clzhjjo1mx6)" height="40" rx="10" ry="10" style="stroke:#A80036;stroke-width:1.2000000000000002;" width="51.2" x="308.8" y="87.7125"/><line style="stroke:#A80036;stroke-width:1.2000000000000002;" x1="308.8" x2="360" y1="109.8" y2="109.8"/><text fill="#000000" font-family="sans-serif" font-size="11.2" lengthAdjust="spacing" textLength="35.2" x="316.8" y="103.3391">INITIAL</text></g><g id="OPENED_APPLICATION"><rect fill="#FEFECE" filter="url(#f17clzhjjo1mx6)" height="40" rx="10" ry="10" style="stroke:#A80036;stroke-width:1.2000000000000002;" width="139.2" x="264.8" y="207.7125"/><line style="stroke:#A80036;stroke-width:1.2000000000000002;" x1="264.8" x2="404" y1="229.8" y2="229.8"/><text fill="#000000" font-family="sans-serif" font-size="11.2" lengthAdjust="spacing" textLength="123.2" x="272.8" y="223.3391">OPENED_APPLICATION</text></g><g id="COMPANY_CREATED"><rect fill="#FEFECE" filter="url(#f17clzhjjo1mx6)" height="40" rx="10" ry="10" style="stroke:#A80036;stroke-width:1.2000000000000002;" width="129.6" x="135.2" y="336.9125"/><line style="stroke:#A80036;stroke-width:1.2000000000000002;" x1="135.2" x2="264.8" y1="359" y2="359"/><text fill="#000000" font-family="sans-serif" font-size="11.2" lengthAdjust="spacing" textLength="113.6" x="143.2" y="352.5391">COMPANY_CREATED</text></g><g id="HEADQUARTER_CREATED"><rect fill="#FEFECE" filter="url(#f17clzhjjo1mx6)" height="40" rx="10" ry="10" style="stroke:#A80036;stroke-width:1.2000000000000002;" width="158.4" x="120.8" y="475.3125"/><line style="stroke:#A80036;stroke-width:1.2000000000000002;" x1="120.8" x2="279.2" y1="497.4" y2="497.4"/><text fill="#000000" font-family="sans-serif" font-size="11.2" lengthAdjust="spacing" textLength="142.4" x="128.8" y="490.9391">HEADQUARTER_CREATED</text></g><g id="MAP_CREATED"><rect fill="#FEFECE" filter="url(#f17clzhjjo1mx6)" height="40" rx="10" ry="10" style="stroke:#A80036;stroke-width:1.2000000000000002;" width="98.4" x="329.2" y="626.5125"/><line style="stroke:#A80036;stroke-width:1.2000000000000002;" x1="329.2" x2="427.6" y1="648.6" y2="648.6"/><text fill="#000000" font-family="sans-serif" font-size="11.2" lengthAdjust="spacing" textLength="82.4" x="337.2" y="642.1391">MAP_CREATED</text></g><g id="SENSOR_CREATED"><rect fill="#FEFECE" filter="url(#f17clzhjjo1mx6)" height="40" rx="10" ry="10" style="stroke:#A80036;stroke-width:1.2000000000000002;" width="120.8" x="438.8" y="475.3125"/><line style="stroke:#A80036;stroke-width:1.2000000000000002;" x1="438.8" x2="559.6" y1="497.4" y2="497.4"/><text fill="#000000" font-family="sans-serif" font-size="11.2" lengthAdjust="spacing" textLength="104.8" x="446.8" y="490.9391">SENSOR_CREATED</text></g><g id="STATS_GENERATED"><rect fill="#FEFECE" filter="url(#f17clzhjjo1mx6)" height="40" rx="10" ry="10" style="stroke:#A80036;stroke-width:1.2000000000000002;" width="126.4" x="544.8" y="784.5125"/><line style="stroke:#A80036;stroke-width:1.2000000000000002;" x1="544.8" x2="671.2" y1="806.6" y2="806.6"/><text fill="#000000" font-family="sans-serif" font-size="11.2" lengthAdjust="spacing" textLength="110.4" x="552.8" y="800.1391">STATS_GENERATED</text></g><ellipse cx="334.4" cy="30.9125" fill="#000000" filter="url(#f17clzhjjo1mx6)" rx="8" ry="8" style="stroke:none;stroke-width:0.8000000000000002;"/><ellipse cx="256.8" cy="941.3125" filter="url(#f17clzhjjo1mx6)" rx="8" ry="8" style="stroke:#000000;stroke-width:0.8000000000000002;fill:none;"/><ellipse cx="257.2" cy="941.7125" fill="#000000" rx="4.8" ry="4.8" style="stroke:none;stroke-width:0.8000000000000002;"/><!--MD5=[06c3f2024f4ea60966e79307ee69ec5f]
link *start to INITIAL--><path d="M334.4,38.9205 C334.4,49.0725 334.4,68.0405 334.4,83.3685 " fill="none" id="*start-to-INITIAL" style="stroke:#A80036;stroke-width:0.8000000000000002;"/><polygon fill="#A80036" points="334.4,87.5845,337.6,80.3845,334.4,83.5845,331.2,80.3845,334.4,87.5845" style="stroke:#A80036;stroke-width:0.8000000000000002;"/><!--MD5=[b018d4858215390e1e25566560874e02]
link INITIAL to OPENED_APPLICATION--><path d="M334.4,127.8005 C334.4,148.5285 334.4,181.4725 334.4,203.6245 " fill="none" id="INITIAL-to-OPENED_APPLICATION" style="stroke:#A80036;stroke-width:0.8000000000000002;"/><polygon fill="#A80036" points="334.4,207.6325,337.6,200.4325,334.4,203.6325,331.2,200.4325,334.4,207.6325" style="stroke:#A80036;stroke-width:0.8000000000000002;"/><path d="M338.4,155.7125 L338.4,176.5125 L473.6,176.5125 L473.6,163.7125 L465.6,155.7125 L338.4,155.7125 " fill="#FBFB77" filter="url(#f17clzhjjo1mx6)" style="stroke:#A80036;stroke-width:0.8000000000000002;"/><path d="M465.6,155.7125 L465.6,163.7125 L473.6,163.7125 L465.6,155.7125 " fill="#FBFB77" style="stroke:#A80036;stroke-width:0.8000000000000002;"/><text fill="#000000" font-family="sans-serif" font-size="10.4" lengthAdjust="spacing" textLength="118.4" x="343.2" y="170.5086">Login (not on this version)</text><!--MD5=[fa56e13fca415027c0b9d2dd45ca1f01]
link OPENED_APPLICATION to COMPANY_CREATED--><path d="M313.984,247.8885 C289.64,271.0085 249.032,309.5605 223.432,333.8645 " fill="none" id="OPENED_APPLICATION-to-COMPANY_CREATED" style="stroke:#A80036;stroke-width:0.8000000000000002;"/><polygon fill="#A80036" points="220.384,336.7605,227.8096,334.1261,223.2857,334.0073,223.4045,329.4834,220.384,336.7605" style="stroke:#A80036;stroke-width:0.8000000000000002;"/><path d="M291.2,275.7125 L291.2,296.5125 L382.4,296.5125 L382.4,283.7125 L374.4,275.7125 L291.2,275.7125 " fill="#FBFB77" filter="url(#f17clzhjjo1mx6)" style="stroke:#A80036;stroke-width:0.8000000000000002;"/><path d="M374.4,275.7125 L374.4,283.7125 L382.4,283.7125 L374.4,275.7125 " fill="#FBFB77" style="stroke:#A80036;stroke-width:0.8000000000000002;"/><text fill="#000000" font-family="sans-serif" font-size="10.4" lengthAdjust="spacing" textLength="74.4" x="296" y="290.5086">CreateCompany</text><!--MD5=[35882d49840eea2c0077b26f6001aaf9]
link COMPANY_CREATED to COMPANY_CREATED--><path d="M264.832,344.2005 C280.856,345.1205 292.8,349.3525 292.8,356.9125 C292.8,363.8245 282.816,367.9525 268.864,369.3125 " fill="none" id="COMPANY_CREATED-to-COMPANY_CREATED" style="stroke:#A80036;stroke-width:0.8000000000000002;"/><polygon fill="#A80036" points="264.832,369.6245,272.2574,372.2596,268.8201,369.316,271.7637,365.8787,264.832,369.6245" style="stroke:#A80036;stroke-width:0.8000000000000002;"/><path d="M296.8,331.7125 L296.8,378.9125 L390.4,378.9125 L390.4,339.7125 L382.4,331.7125 L296.8,331.7125 " fill="#FBFB77" filter="url(#f17clzhjjo1mx6)" style="stroke:#A80036;stroke-width:0.8000000000000002;"/><path d="M382.4,331.7125 L382.4,339.7125 L390.4,339.7125 L382.4,331.7125 " fill="#FBFB77" style="stroke:#A80036;stroke-width:0.8000000000000002;"/><text fill="#000000" font-family="sans-serif" font-size="10.4" lengthAdjust="spacing" textLength="68" x="301.6" y="346.5086">ReadCompany</text><text fill="#000000" font-family="sans-serif" font-size="10.4" lengthAdjust="spacing" textLength="76.8" x="301.6" y="359.5898">UpdateCompany</text><text fill="#000000" font-family="sans-serif" font-size="10.4" lengthAdjust="spacing" textLength="73.6" x="301.6" y="372.6711">DeleteCompany</text><!--MD5=[9847800d6c7c5a2210a57fd464861734]
link COMPANY_CREATED to HEADQUARTER_CREATED--><path d="M200,377.0245 C200,401.7685 200,444.6405 200,471.1845 " fill="none" id="COMPANY_CREATED-to-HEADQUARTER_CREATED" style="stroke:#A80036;stroke-width:0.8000000000000002;"/><polygon fill="#A80036" points="200,475.3045,203.2,468.1045,200,471.3045,196.8,468.1045,200,475.3045" style="stroke:#A80036;stroke-width:0.8000000000000002;"/><path d="M204,414.1125 L204,434.9125 L307.2,434.9125 L307.2,422.1125 L299.2,414.1125 L204,414.1125 " fill="#FBFB77" filter="url(#f17clzhjjo1mx6)" style="stroke:#A80036;stroke-width:0.8000000000000002;"/><path d="M299.2,414.1125 L299.2,422.1125 L307.2,422.1125 L299.2,414.1125 " fill="#FBFB77" style="stroke:#A80036;stroke-width:0.8000000000000002;"/><text fill="#000000" font-family="sans-serif" font-size="10.4" lengthAdjust="spacing" textLength="86.4" x="208.8" y="428.9086">CreateHeadquarter</text><!--MD5=[ac0a97c6d46e142a7af651248aed14c3]
link HEADQUARTER_CREATED to HEADQUARTER_CREATED--><path d="M279.24,482.8885 C295.52,484.2165 307.2,488.3605 307.2,495.3125 C307.2,501.6725 297.44,505.6725 283.328,507.3365 " fill="none" id="HEADQUARTER_CREATED-to-HEADQUARTER_CREATED" style="stroke:#A80036;stroke-width:0.8000000000000002;"/><polygon fill="#A80036" points="279.24,507.7365,286.7241,510.1999,283.2199,507.3362,286.0836,503.8321,279.24,507.7365" style="stroke:#A80036;stroke-width:0.8000000000000002;"/><path d="M311.2,470.1125 L311.2,517.3125 L416.8,517.3125 L416.8,478.1125 L408.8,470.1125 L311.2,470.1125 " fill="#FBFB77" filter="url(#f17clzhjjo1mx6)" style="stroke:#A80036;stroke-width:0.8000000000000002;"/><path d="M408.8,470.1125 L408.8,478.1125 L416.8,478.1125 L408.8,470.1125 " fill="#FBFB77" style="stroke:#A80036;stroke-width:0.8000000000000002;"/><text fill="#000000" font-family="sans-serif" font-size="10.4" lengthAdjust="spacing" textLength="80" x="316" y="484.9086">ReadHeadquarter</text><text fill="#000000" font-family="sans-serif" font-size="10.4" lengthAdjust="spacing" textLength="88.8" x="316" y="497.9898">UpdateHeadquarter</text><text fill="#000000" font-family="sans-serif" font-size="10.4" lengthAdjust="spacing" textLength="85.6" x="316" y="511.0711">DeleteHeadquarter</text><!--MD5=[5f0bce078ba03990d6d4e1092cb8839a]
link HEADQUARTER_CREATED to MAP_CREATED--><path d="M222.96,515.3605 C256.12,543.1685 317.256,594.4405 352.16,623.7125 " fill="none" id="HEADQUARTER_CREATED-to-MAP_CREATED" style="stroke:#A80036;stroke-width:0.8000000000000002;"/><polygon fill="#A80036" points="355.248,626.2965,351.7913,619.2162,352.1845,623.7245,347.6761,624.1178,355.248,626.2965" style="stroke:#A80036;stroke-width:0.8000000000000002;"/><path d="M320,558.9125 L320,579.7125 L387.2,579.7125 L387.2,566.9125 L379.2,558.9125 L320,558.9125 " fill="#FBFB77" filter="url(#f17clzhjjo1mx6)" style="stroke:#A80036;stroke-width:0.8000000000000002;"/><path d="M379.2,558.9125 L379.2,566.9125 L387.2,566.9125 L379.2,558.9125 " fill="#FBFB77" style="stroke:#A80036;stroke-width:0.8000000000000002;"/><text fill="#000000" font-family="sans-serif" font-size="10.4" lengthAdjust="spacing" textLength="50.4" x="324.8" y="573.7086">CreateMap</text><!--MD5=[993225077c6b5fd60a0242ba1286f913]
link MAP_CREATED to MAP_CREATED--><path d="M427.776,633.6165 C443.328,633.8165 455.6,638.1125 455.6,646.5125 C455.6,654.1205 445.52,658.3685 432.056,659.2405 " fill="none" id="MAP_CREATED-to-MAP_CREATED" style="stroke:#A80036;stroke-width:0.8000000000000002;"/><polygon fill="#A80036" points="427.776,659.4085,435.0901,662.3383,431.7732,659.2596,434.8519,655.9427,427.776,659.4085" style="stroke:#A80036;stroke-width:0.8000000000000002;"/><path d="M459.6,621.3125 L459.6,668.5125 L529.2,668.5125 L529.2,629.3125 L521.2,621.3125 L459.6,621.3125 " fill="#FBFB77" filter="url(#f17clzhjjo1mx6)" style="stroke:#A80036;stroke-width:0.8000000000000002;"/><path d="M521.2,621.3125 L521.2,629.3125 L529.2,629.3125 L521.2,621.3125 " fill="#FBFB77" style="stroke:#A80036;stroke-width:0.8000000000000002;"/><text fill="#000000" font-family="sans-serif" font-size="10.4" lengthAdjust="spacing" textLength="44" x="464.4" y="636.1086">ReadMap</text><text fill="#000000" font-family="sans-serif" font-size="10.4" lengthAdjust="spacing" textLength="52.8" x="464.4" y="649.1898">UpdateMap</text><text fill="#000000" font-family="sans-serif" font-size="10.4" lengthAdjust="spacing" textLength="49.6" x="464.4" y="662.2711">DeleteMap</text><!--MD5=[84e5dabd7f4d2038add9115a268f9b39]
link MAP_CREATED to STATS_GENERATED--><path d="M406.784,666.6485 C449.816,695.9605 531.296,751.4645 576.24,782.0805 " fill="none" id="MAP_CREATED-to-STATS_GENERATED" style="stroke:#A80036;stroke-width:0.8000000000000002;"/><polygon fill="#A80036" points="579.68,784.4245,575.5331,777.725,576.3748,782.1715,571.9283,783.0132,579.68,784.4245" style="stroke:#A80036;stroke-width:0.8000000000000002;"/><!--MD5=[766a1363d58e32be58d8c32e0be58eab]
link OPENED_APPLICATION to SENSOR_CREATED--><path d="M368.68,247.8565 C378.384,254.4965 388.376,262.5925 396,271.7125 C448.32,334.2805 480.08,427.7765 492.784,471.0165 " fill="none" id="OPENED_APPLICATION-to-SENSOR_CREATED" style="stroke:#A80036;stroke-width:0.8000000000000002;"/><polygon fill="#A80036" points="493.96,475.0405,495.016,467.2325,492.84,471.2005,488.872,469.0245,493.96,475.0405" style="stroke:#A80036;stroke-width:0.8000000000000002;"/><path d="M464.8,344.9125 L464.8,365.7125 L544.8,365.7125 L544.8,352.9125 L536.8,344.9125 L464.8,344.9125 " fill="#FBFB77" filter="url(#f17clzhjjo1mx6)" style="stroke:#A80036;stroke-width:0.8000000000000002;"/><path d="M536.8,344.9125 L536.8,352.9125 L544.8,352.9125 L536.8,344.9125 " fill="#FBFB77" style="stroke:#A80036;stroke-width:0.8000000000000002;"/><text fill="#000000" font-family="sans-serif" font-size="10.4" lengthAdjust="spacing" textLength="63.2" x="469.6" y="359.7086">CreateSensor</text><!--MD5=[a190cf97c4f7354415dda548de13690d]
link SENSOR_CREATED to SENSOR_CREATED--><path d="M559.728,482.5365 C575.6,483.2965 587.6,487.5525 587.6,495.3125 C587.6,502.4085 577.576,506.5765 563.728,507.8165 " fill="none" id="SENSOR_CREATED-to-SENSOR_CREATED" style="stroke:#A80036;stroke-width:0.8000000000000002;"/><polygon fill="#A80036" points="559.728,508.0885,567.13,510.7884,563.7186,507.8149,566.6922,504.4034,559.728,508.0885" style="stroke:#A80036;stroke-width:0.8000000000000002;"/><path d="M591.6,470.1125 L591.6,517.3125 L674,517.3125 L674,478.1125 L666,470.1125 L591.6,470.1125 " fill="#FBFB77" filter="url(#f17clzhjjo1mx6)" style="stroke:#A80036;stroke-width:0.8000000000000002;"/><path d="M666,470.1125 L666,478.1125 L674,478.1125 L666,470.1125 " fill="#FBFB77" style="stroke:#A80036;stroke-width:0.8000000000000002;"/><text fill="#000000" font-family="sans-serif" font-size="10.4" lengthAdjust="spacing" textLength="56.8" x="596.4" y="484.9086">ReadSensor</text><text fill="#000000" font-family="sans-serif" font-size="10.4" lengthAdjust="spacing" textLength="65.6" x="596.4" y="497.9898">UpdateSensor</text><text fill="#000000" font-family="sans-serif" font-size="10.4" lengthAdjust="spacing" textLength="62.4" x="596.4" y="511.0711">DeleteSensor</text><!--MD5=[92b3523958754127b757e700955aac7e]
link COMPANY_CREATED to *end--><path d="M135,374.1125 C78.216,392.8085 4.8,429.5445 4.8,494.5125 C4.8,494.5125 4.8,494.5125 4.8,805.3125 C4.8,915.4325 193.976,936.2245 244.512,939.8165 " fill="none" id="COMPANY_CREATED-to-*end" style="stroke:#A80036;stroke-width:0.8000000000000002;"/><polygon fill="#A80036" points="248.704,940.0965,241.73,936.43,244.7127,939.8335,241.3092,942.8161,248.704,940.0965" style="stroke:#A80036;stroke-width:0.8000000000000002;"/><path d="M8.8,634.5125 L8.8,655.3125 L150.4,655.3125 L150.4,642.5125 L142.4,634.5125 L8.8,634.5125 " fill="#FBFB77" filter="url(#f17clzhjjo1mx6)" style="stroke:#A80036;stroke-width:0.8000000000000002;"/><path d="M142.4,634.5125 L142.4,642.5125 L150.4,642.5125 L142.4,634.5125 " fill="#FBFB77" style="stroke:#A80036;stroke-width:0.8000000000000002;"/><text fill="#000000" font-family="sans-serif" font-size="10.4" lengthAdjust="spacing" textLength="124.8" x="13.6" y="649.3086">Logout (not on this version)</text><!--MD5=[6422ae0d995ab2236496d8f2a215ac8d]
link HEADQUARTER_CREATED to *end--><path d="M197.344,515.4885 C192.296,555.9205 182.768,652.1605 194.4,731.7125 C205.824,809.8165 240.072,899.2965 252.352,929.7365 " fill="none" id="HEADQUARTER_CREATED-to-*end" style="stroke:#A80036;stroke-width:0.8000000000000002;"/><polygon fill="#A80036" points="253.872,933.4725,254.1398,925.598,252.3726,929.7641,248.2065,927.997,253.872,933.4725" style="stroke:#A80036;stroke-width:0.8000000000000002;"/><path d="M198.4,703.7125 L198.4,724.5125 L340,724.5125 L340,711.7125 L332,703.7125 L198.4,703.7125 " fill="#FBFB77" filter="url(#f17clzhjjo1mx6)" style="stroke:#A80036;stroke-width:0.8000000000000002;"/><path d="M332,703.7125 L332,711.7125 L340,711.7125 L332,703.7125 " fill="#FBFB77" style="stroke:#A80036;stroke-width:0.8000000000000002;"/><text fill="#000000" font-family="sans-serif" font-size="10.4" lengthAdjust="spacing" textLength="124.8" x="203.2" y="718.5086">Logout (not on this version)</text><!--MD5=[400d723ceed96febb9ed112b19b71649]
link MAP_CREATED to *end--><path d="M373.584,666.6885 C369.08,683.9685 361.832,709.8405 353.6,731.7125 C324.104,810.0885 278.024,900.0885 262.28,930.1445 " fill="none" id="MAP_CREATED-to-*end" style="stroke:#A80036;stroke-width:0.8000000000000002;"/><polygon fill="#A80036" points="260.352,933.8245,266.5352,928.941,262.2136,930.2841,260.8705,925.9625,260.352,933.8245" style="stroke:#A80036;stroke-width:0.8000000000000002;"/><path d="M348,792.5125 L348,813.3125 L489.6,813.3125 L489.6,800.5125 L481.6,792.5125 L348,792.5125 " fill="#FBFB77" filter="url(#f17clzhjjo1mx6)" style="stroke:#A80036;stroke-width:0.8000000000000002;"/><path d="M481.6,792.5125 L481.6,800.5125 L489.6,800.5125 L481.6,792.5125 " fill="#FBFB77" style="stroke:#A80036;stroke-width:0.8000000000000002;"/><text fill="#000000" font-family="sans-serif" font-size="10.4" lengthAdjust="spacing" textLength="124.8" x="352.8" y="807.3086">Logout (not on this version)</text><!--MD5=[84e0b3b84ec07514403377676cd4d02e]
link SENSOR_CREATED to STATS_GENERATED--><path d="M531.032,515.5525 C542.648,524.2325 554.792,535.4565 562.4,548.5125 C606.616,624.3845 609.92,732.8405 608.992,780.1445 " fill="none" id="SENSOR_CREATED-to-STATS_GENERATED" style="stroke:#A80036;stroke-width:0.8000000000000002;"/><polygon fill="#A80036" points="608.896,784.2565,612.2597,777.1315,608.9874,780.2575,605.8614,776.9853,608.896,784.2565" style="stroke:#A80036;stroke-width:0.8000000000000002;"/><!--MD5=[6c381b58f855640708fa6bdf546f8cce]
link SENSOR_CREATED to MAP_CREATED--><path d="M475.192,515.5125 C464.32,524.8885 451.672,536.6645 441.6,548.5125 C421.592,572.0485 402.864,602.2885 391.072,622.7445 " fill="none" id="SENSOR_CREATED-to-MAP_CREATED" style="stroke:#A80036;stroke-width:0.8000000000000002;"/><polygon fill="#A80036" points="388.952,626.4485,395.3059,621.7893,390.939,622.9769,389.7514,618.6101,388.952,626.4485" style="stroke:#A80036;stroke-width:0.8000000000000002;"/><path d="M445.6,552.5125 L445.6,586.1125 L552,586.1125 L552,560.5125 L544,552.5125 L445.6,552.5125 " fill="#FBFB77" filter="url(#f17clzhjjo1mx6)" style="stroke:#A80036;stroke-width:0.8000000000000002;"/><path d="M544,552.5125 L544,560.5125 L552,560.5125 L544,552.5125 " fill="#FBFB77" style="stroke:#A80036;stroke-width:0.8000000000000002;"/><text fill="#000000" font-family="sans-serif" font-size="10.4" lengthAdjust="spacing" textLength="82.4" x="450.4" y="567.3086">AddSensorToMap</text><text fill="#000000" font-family="sans-serif" font-size="10.4" lengthAdjust="spacing" textLength="89.6" x="450.4" y="580.3898">AddSensorToStock</text><!--MD5=[b0a3cebe3f57c0fa4cb413997934ee30]
link STATS_GENERATED to STATS_GENERATED--><path d="M671.296,788.2245 C687.248,789.3285 699.2,794.7605 699.2,804.5125 C699.2,813.4245 689.216,818.7285 675.312,820.4165 " fill="none" id="STATS_GENERATED-to-STATS_GENERATED" style="stroke:#A80036;stroke-width:0.8000000000000002;"/><polygon fill="#A80036" points="671.296,820.8005,678.7659,823.3065,675.2781,820.4229,678.1618,816.9351,671.296,820.8005" style="stroke:#A80036;stroke-width:0.8000000000000002;"/><path d="M703.2,759.7125 L703.2,846.1125 L770.4,846.1125 L770.4,767.7125 L762.4,759.7125 L703.2,759.7125 " fill="#FBFB77" filter="url(#f17clzhjjo1mx6)" style="stroke:#A80036;stroke-width:0.8000000000000002;"/><path d="M762.4,759.7125 L762.4,767.7125 L770.4,767.7125 L762.4,759.7125 " fill="#FBFB77" style="stroke:#A80036;stroke-width:0.8000000000000002;"/><text fill="#000000" font-family="sans-serif" font-size="10.4" lengthAdjust="spacing" textLength="48.8" x="708" y="774.5086">SendState</text><text fill="#000000" font-family="sans-serif" font-size="10.4" lengthAdjust="spacing" textLength="50.4" x="708" y="787.5898">ShowState</text><text fill="#000000" font-family="sans-serif" font-size="10.4" lengthAdjust="spacing" textLength="46.4" x="708" y="800.6711">PrintState</text><text fill="#000000" font-family="sans-serif" font-size="10.4" lengthAdjust="spacing" textLength="50.4" x="708" y="813.7523">ShowState</text><text fill="#000000" font-family="sans-serif" font-size="10.4" lengthAdjust="spacing" textLength="46.4" x="708" y="826.8336">PrintState</text><text fill="#000000" font-family="sans-serif" font-size="10.4" lengthAdjust="spacing" textLength="48.8" x="708" y="839.9148">SendState</text><!--MD5=[47909c42bd19c15bba265428d18a2733]
link STATS_GENERATED to *end--><path d="M576.312,824.5525 C560.6,833.7605 541.176,844.6325 523.2,853.3125 C463.44,882.1605 447.96,888.9605 384.8,909.3125 C342.96,922.8005 291.8,933.6165 268.896,938.1765 " fill="none" id="STATS_GENERATED-to-*end" style="stroke:#A80036;stroke-width:0.8000000000000002;"/><polygon fill="#A80036" points="264.704,939.0005,272.3839,940.7608,268.6298,938.2337,271.157,934.4795,264.704,939.0005" style="stroke:#A80036;stroke-width:0.8000000000000002;"/><path d="M475.2,881.3125 L475.2,902.1125 L616.8,902.1125 L616.8,889.3125 L608.8,881.3125 L475.2,881.3125 " fill="#FBFB77" filter="url(#f17clzhjjo1mx6)" style="stroke:#A80036;stroke-width:0.8000000000000002;"/><path d="M608.8,881.3125 L608.8,889.3125 L616.8,889.3125 L608.8,881.3125 " fill="#FBFB77" style="stroke:#A80036;stroke-width:0.8000000000000002;"/><text fill="#000000" font-family="sans-serif" font-size="10.4" lengthAdjust="spacing" textLength="124.8" x="480" y="896.1086">Logout (not on this version)</text><!--MD5=[700b5d8eb249c3f010f0166aaa9b9882]
@startuml
title UseCaseContext

state INITIAL
state OPENED_APPLICATION
state COMPANY_CREATED
state HEADQUARTER_CREATED
state MAP_CREATED
state SENSOR_CREATED
state STATS_GENERATED

[*] - -> INITIAL

INITIAL - -> OPENED_APPLICATION
note on link
    Login (not on this version)
end note

OPENED_APPLICATION - -> COMPANY_CREATED
    note on link
        CreateCompany
    end note
COMPANY_CREATED - -> COMPANY_CREATED
note on link
    ReadCompany
    UpdateCompany
    DeleteCompany
end note

COMPANY_CREATED - -> HEADQUARTER_CREATED
    note on link
        CreateHeadquarter
    end note

HEADQUARTER_CREATED - -> HEADQUARTER_CREATED
    note on link
        ReadHeadquarter
        UpdateHeadquarter
        DeleteHeadquarter
    end note

HEADQUARTER_CREATED - -> MAP_CREATED
    note on link
        CreateMap
    end note

MAP_CREATED - -> MAP_CREATED
    note on link
        ReadMap
        UpdateMap
        DeleteMap
    end note

MAP_CREATED - -> STATS_GENERATED

OPENED_APPLICATION - -> SENSOR_CREATED
    note on link
        CreateSensor
    end note

SENSOR_CREATED - -> SENSOR_CREATED
    note on link
        ReadSensor
        UpdateSensor
        DeleteSensor
    end note

COMPANY_CREATED - -> [*]
      note on link
          Logout (not on this version)
      end note

HEADQUARTER_CREATED - -> [*]
      note on link
          Logout (not on this version)
      end note

MAP_CREATED - -> [*]
      note on link
          Logout (not on this version)
      end note

SENSOR_CREATED - -> STATS_GENERATED
'       note on link
'           ShowState
'           PrintState
'           SendState'
'       end note


SENSOR_CREATED - -> MAP_CREATED
    note on link
        AddSensorToMap
        AddSensorToStock
    end note

STATS_GENERATED - -> STATS_GENERATED
    note on link
        SendState
        ShowState
        PrintState
        ShowState
        PrintState
        SendState
    end note

STATS_GENERATED - -> [*]
      note on link
          Logout (not on this version)
      end note
@enduml

@startuml
title UseCaseContext

state INITIAL
state OPENED_APPLICATION
state COMPANY_CREATED
state HEADQUARTER_CREATED
state MAP_CREATED
state SENSOR_CREATED
state STATS_GENERATED

[*] - -> INITIAL

INITIAL - -> OPENED_APPLICATION
note on link
    Login (not on this version)
end note

OPENED_APPLICATION - -> COMPANY_CREATED
    note on link
        CreateCompany
    end note
COMPANY_CREATED - -> COMPANY_CREATED
note on link
    ReadCompany
    UpdateCompany
    DeleteCompany
end note

COMPANY_CREATED - -> HEADQUARTER_CREATED
    note on link
        CreateHeadquarter
    end note

HEADQUARTER_CREATED - -> HEADQUARTER_CREATED
    note on link
        ReadHeadquarter
        UpdateHeadquarter
        DeleteHeadquarter
    end note

HEADQUARTER_CREATED - -> MAP_CREATED
    note on link
        CreateMap
    end note

MAP_CREATED - -> MAP_CREATED
    note on link
        ReadMap
        UpdateMap
        DeleteMap
    end note

MAP_CREATED - -> STATS_GENERATED

OPENED_APPLICATION - -> SENSOR_CREATED
    note on link
        CreateSensor
    end note

SENSOR_CREATED - -> SENSOR_CREATED
    note on link
        ReadSensor
        UpdateSensor
        DeleteSensor
    end note

COMPANY_CREATED - -> [*]
      note on link
          Logout (not on this version)
      end note

HEADQUARTER_CREATED - -> [*]
      note on link
          Logout (not on this version)
      end note

MAP_CREATED - -> [*]
      note on link
          Logout (not on this version)
      end note

SENSOR_CREATED - -> STATS_GENERATED


SENSOR_CREATED - -> MAP_CREATED
    note on link
        AddSensorToMap
        AddSensorToStock
    end note

STATS_GENERATED - -> STATS_GENERATED
    note on link
        SendState
        ShowState
        PrintState
        ShowState
        PrintState
        SendState
    end note

STATS_GENERATED - -> [*]
      note on link
          Logout (not on this version)
      end note
@enduml

PlantUML version 1.2021.16(Wed Dec 08 18:25:22 CET 2021)
(GPL source distribution)
Java Runtime: OpenJDK Runtime Environment
JVM: OpenJDK 64-Bit Server VM
Default Encoding: Cp1252
Language: es
Country: ES
--></g></svg>