<?xml version="1.0" encoding="UTF-8" standalone="no"?><svg xmlns="http://www.w3.org/2000/svg" xmlns:xlink="http://www.w3.org/1999/xlink" contentScriptType="application/ecmascript" contentStyleType="text/css" height="1148px" preserveAspectRatio="none" style="width:972px;height:1148px;background:#FFFFFF;" version="1.1" viewBox="0 0 972 1148" width="972px" zoomAndPan="magnify"><defs><filter height="300%" id="fau4fu1mz0yy3" width="300%" x="-1" y="-1"><feGaussianBlur result="blurOut" stdDeviation="2.0"/><feColorMatrix in="blurOut" result="blurOut2" type="matrix" values="0 0 0 0 0 0 0 0 0 0 0 0 0 0 0 0 0 0 .4 0"/><feOffset dx="4.0" dy="4.0" in="blurOut2" result="blurOut3"/><feBlend in="SourceGraphic" in2="blurOut3" mode="normal"/></filter></defs><g><text fill="#000000" font-family="sans-serif" font-size="18" lengthAdjust="spacing" textLength="135" x="411" y="18.6855">UseCaseContext</text><g id="INITIAL"><rect fill="#FEFECE" filter="url(#fau4fu1mz0yy3)" height="50" rx="12.5" ry="12.5" style="stroke:#A80036;stroke-width:1.5;" width="64" x="386" y="109.6406"/><line style="stroke:#A80036;stroke-width:1.5;" x1="386" x2="450" y1="137.25" y2="137.25"/><text fill="#000000" font-family="sans-serif" font-size="14" lengthAdjust="spacing" textLength="44" x="396" y="129.1738">INITIAL</text></g><g id="OPENED_APPLICATION"><rect fill="#FEFECE" filter="url(#fau4fu1mz0yy3)" height="50" rx="12.5" ry="12.5" style="stroke:#A80036;stroke-width:1.5;" width="174" x="331" y="259.6406"/><line style="stroke:#A80036;stroke-width:1.5;" x1="331" x2="505" y1="287.25" y2="287.25"/><text fill="#000000" font-family="sans-serif" font-size="14" lengthAdjust="spacing" textLength="154" x="341" y="279.1738">OPENED_APPLICATION</text></g><g id="COMPANY_CREATED"><rect fill="#FEFECE" filter="url(#fau4fu1mz0yy3)" height="50" rx="12.5" ry="12.5" style="stroke:#A80036;stroke-width:1.5;" width="162" x="169" y="421.1406"/><line style="stroke:#A80036;stroke-width:1.5;" x1="169" x2="331" y1="448.75" y2="448.75"/><text fill="#000000" font-family="sans-serif" font-size="14" lengthAdjust="spacing" textLength="142" x="179" y="440.6738">COMPANY_CREATED</text></g><g id="HEADQUARTER_CREATED"><rect fill="#FEFECE" filter="url(#fau4fu1mz0yy3)" height="50" rx="12.5" ry="12.5" style="stroke:#A80036;stroke-width:1.5;" width="198" x="151" y="602.1406"/><line style="stroke:#A80036;stroke-width:1.5;" x1="151" x2="349" y1="629.75" y2="629.75"/><text fill="#000000" font-family="sans-serif" font-size="14" lengthAdjust="spacing" textLength="178" x="161" y="621.6738">HEADQUARTER_CREATED</text></g><g id="MAP_CREATED"><rect fill="#FEFECE" filter="url(#fau4fu1mz0yy3)" height="50" rx="12.5" ry="12.5" style="stroke:#A80036;stroke-width:1.5;" width="123" x="409.5" y="799.1406"/><line style="stroke:#A80036;stroke-width:1.5;" x1="409.5" x2="532.5" y1="826.75" y2="826.75"/><text fill="#000000" font-family="sans-serif" font-size="14" lengthAdjust="spacing" textLength="103" x="419.5" y="818.6738">MAP_CREATED</text></g><g id="SENSOR_CREATED"><rect fill="#FEFECE" filter="url(#fau4fu1mz0yy3)" height="50" rx="12.5" ry="12.5" style="stroke:#A80036;stroke-width:1.5;" width="151" x="548.5" y="602.1406"/><line style="stroke:#A80036;stroke-width:1.5;" x1="548.5" x2="699.5" y1="629.75" y2="629.75"/><text fill="#000000" font-family="sans-serif" font-size="14" lengthAdjust="spacing" textLength="131" x="558.5" y="621.6738">SENSOR_CREATED</text></g><g id="STATS_GENERATED"><rect fill="#FEFECE" filter="url(#fau4fu1mz0yy3)" height="50" rx="12.5" ry="12.5" style="stroke:#A80036;stroke-width:1.5;" width="158" x="683" y="963.6406"/><line style="stroke:#A80036;stroke-width:1.5;" x1="683" x2="841" y1="991.25" y2="991.25"/><text fill="#000000" font-family="sans-serif" font-size="14" lengthAdjust="spacing" textLength="138" x="693" y="983.1738">STATS_GENERATED</text></g><ellipse cx="418" cy="38.6406" fill="#000000" filter="url(#fau4fu1mz0yy3)" rx="10" ry="10" style="stroke:none;stroke-width:1.0;"/><ellipse cx="330" cy="1126.6406" fill="none" filter="url(#fau4fu1mz0yy3)" rx="10" ry="10" style="stroke:#000000;stroke-width:1.0;"/><ellipse cx="330.5" cy="1127.1406" fill="#000000" rx="6" ry="6" style="stroke:none;stroke-width:1.0;"/><!--MD5=[06c3f2024f4ea60966e79307ee69ec5f]
link *start to INITIAL--><path d="M418,48.6506 C418,61.3406 418,85.0506 418,104.2106 " fill="none" id="*start-to-INITIAL" style="stroke:#A80036;stroke-width:1.0;"/><polygon fill="#A80036" points="418,109.4806,422,100.4806,418,104.4806,414,100.4806,418,109.4806" style="stroke:#A80036;stroke-width:1.0;"/><!--MD5=[b018d4858215390e1e25566560874e02]
link INITIAL to OPENED_APPLICATION--><path d="M418,159.7506 C418,185.6606 418,226.8406 418,254.5306 " fill="none" id="INITIAL-to-OPENED_APPLICATION" style="stroke:#A80036;stroke-width:1.0;"/><polygon fill="#A80036" points="418,259.5406,422,250.5406,418,254.5406,414,250.5406,418,259.5406" style="stroke:#A80036;stroke-width:1.0;"/><path d="M423,194.6406 L423,220.6406 L592,220.6406 L592,204.6406 L582,194.6406 L423,194.6406 " fill="#FBFB77" filter="url(#fau4fu1mz0yy3)" style="stroke:#A80036;stroke-width:1.0;"/><path d="M582,194.6406 L582,204.6406 L592,204.6406 L582,194.6406 " fill="#FBFB77" style="stroke:#A80036;stroke-width:1.0;"/><text fill="#000000" font-family="sans-serif" font-size="13" lengthAdjust="spacing" textLength="148" x="429" y="213.1357">Login (not on this version)</text><!--MD5=[fa56e13fca415027c0b9d2dd45ca1f01]
link OPENED_APPLICATION to COMPANY_CREATED--><path d="M392.48,309.8606 C362.05,338.7606 311.29,386.9506 279.29,417.3306 " fill="none" id="OPENED_APPLICATION-to-COMPANY_CREATED" style="stroke:#A80036;stroke-width:1.0;"/><polygon fill="#A80036" points="275.48,420.9506,284.762,417.6576,279.1071,417.5091,279.2556,411.8542,275.48,420.9506" style="stroke:#A80036;stroke-width:1.0;"/><path d="M364,344.6406 L364,370.6406 L478,370.6406 L478,354.6406 L468,344.6406 L364,344.6406 " fill="#FBFB77" filter="url(#fau4fu1mz0yy3)" style="stroke:#A80036;stroke-width:1.0;"/><path d="M468,344.6406 L468,354.6406 L478,354.6406 L468,344.6406 " fill="#FBFB77" style="stroke:#A80036;stroke-width:1.0;"/><text fill="#000000" font-family="sans-serif" font-size="13" lengthAdjust="spacing" textLength="93" x="370" y="363.1357">CreateCompany</text><!--MD5=[35882d49840eea2c0077b26f6001aaf9]
link COMPANY_CREATED to COMPANY_CREATED--><path d="M331.04,430.2506 C351.07,431.4006 366,436.6906 366,446.1406 C366,454.7806 353.52,459.9406 336.08,461.6406 " fill="none" id="COMPANY_CREATED-to-COMPANY_CREATED" style="stroke:#A80036;stroke-width:1.0;"/><polygon fill="#A80036" points="331.04,462.0306,340.3217,465.3245,336.0251,461.645,339.7047,457.3483,331.04,462.0306" style="stroke:#A80036;stroke-width:1.0;"/><path d="M371,414.6406 L371,473.6406 L488,473.6406 L488,424.6406 L478,414.6406 L371,414.6406 " fill="#FBFB77" filter="url(#fau4fu1mz0yy3)" style="stroke:#A80036;stroke-width:1.0;"/><path d="M478,414.6406 L478,424.6406 L488,424.6406 L478,414.6406 " fill="#FBFB77" style="stroke:#A80036;stroke-width:1.0;"/><text fill="#000000" font-family="sans-serif" font-size="13" lengthAdjust="spacing" textLength="85" x="377" y="433.1357">ReadCompany</text><text fill="#000000" font-family="sans-serif" font-size="13" lengthAdjust="spacing" textLength="96" x="377" y="449.4873">UpdateCompany</text><text fill="#000000" font-family="sans-serif" font-size="13" lengthAdjust="spacing" textLength="92" x="377" y="465.8389">DeleteCompany</text><!--MD5=[9847800d6c7c5a2210a57fd464861734]
link COMPANY_CREATED to HEADQUARTER_CREATED--><path d="M250,471.2806 C250,503.8006 250,561.6306 250,596.6806 " fill="none" id="COMPANY_CREATED-to-HEADQUARTER_CREATED" style="stroke:#A80036;stroke-width:1.0;"/><polygon fill="#A80036" points="250,602.1006,254,593.1006,250,597.1006,246,593.1006,250,602.1006" style="stroke:#A80036;stroke-width:1.0;"/><path d="M255,517.6406 L255,543.6406 L384,543.6406 L384,527.6406 L374,517.6406 L255,517.6406 " fill="#FBFB77" filter="url(#fau4fu1mz0yy3)" style="stroke:#A80036;stroke-width:1.0;"/><path d="M374,517.6406 L374,527.6406 L384,527.6406 L374,517.6406 " fill="#FBFB77" style="stroke:#A80036;stroke-width:1.0;"/><text fill="#000000" font-family="sans-serif" font-size="13" lengthAdjust="spacing" textLength="108" x="261" y="536.1357">CreateHeadquarter</text><!--MD5=[ac0a97c6d46e142a7af651248aed14c3]
link HEADQUARTER_CREATED to HEADQUARTER_CREATED--><path d="M349.05,610.1606 C369.4,611.9806 384,617.6406 384,627.1406 C384,635.8206 371.8,641.3006 354.16,643.5706 " fill="none" id="HEADQUARTER_CREATED-to-HEADQUARTER_CREATED" style="stroke:#A80036;stroke-width:1.0;"/><polygon fill="#A80036" points="349.05,644.1206,358.431,647.12,354.0205,643.5779,357.5626,639.1673,349.05,644.1206" style="stroke:#A80036;stroke-width:1.0;"/><path d="M389,595.6406 L389,654.6406 L521,654.6406 L521,605.6406 L511,595.6406 L389,595.6406 " fill="#FBFB77" filter="url(#fau4fu1mz0yy3)" style="stroke:#A80036;stroke-width:1.0;"/><path d="M511,595.6406 L511,605.6406 L521,605.6406 L511,595.6406 " fill="#FBFB77" style="stroke:#A80036;stroke-width:1.0;"/><text fill="#000000" font-family="sans-serif" font-size="13" lengthAdjust="spacing" textLength="100" x="395" y="614.1357">ReadHeadquarter</text><text fill="#000000" font-family="sans-serif" font-size="13" lengthAdjust="spacing" textLength="111" x="395" y="630.4873">UpdateHeadquarter</text><text fill="#000000" font-family="sans-serif" font-size="13" lengthAdjust="spacing" textLength="107" x="395" y="646.8389">DeleteHeadquarter</text><!--MD5=[5f0bce078ba03990d6d4e1092cb8839a]
link HEADQUARTER_CREATED to MAP_CREATED--><path d="M277.54,652.4406 C318.76,688.8106 396.28,757.2106 439.63,795.4606 " fill="none" id="HEADQUARTER_CREATED-to-MAP_CREATED" style="stroke:#A80036;stroke-width:1.0;"/><polygon fill="#A80036" points="443.46,798.8406,439.3738,789.8795,439.7167,795.5259,434.0702,795.8688,443.46,798.8406" style="stroke:#A80036;stroke-width:1.0;"/><path d="M399,714.6406 L399,740.6406 L483,740.6406 L483,724.6406 L473,714.6406 L399,714.6406 " fill="#FBFB77" filter="url(#fau4fu1mz0yy3)" style="stroke:#A80036;stroke-width:1.0;"/><path d="M473,714.6406 L473,724.6406 L483,724.6406 L473,714.6406 " fill="#FBFB77" style="stroke:#A80036;stroke-width:1.0;"/><text fill="#000000" font-family="sans-serif" font-size="13" lengthAdjust="spacing" textLength="63" x="405" y="733.1357">CreateMap</text><!--MD5=[993225077c6b5fd60a0242ba1286f913]
link MAP_CREATED to MAP_CREATED--><path d="M532.72,808.0206 C552.16,808.2706 567.5,813.6406 567.5,824.1406 C567.5,833.6506 554.9,838.9606 538.07,840.0506 " fill="none" id="MAP_CREATED-to-MAP_CREATED" style="stroke:#A80036;stroke-width:1.0;"/><polygon fill="#A80036" points="532.72,840.2606,541.8627,843.9228,537.7165,840.0745,541.5649,835.9284,532.72,840.2606" style="stroke:#A80036;stroke-width:1.0;"/><path d="M572.5,792.6406 L572.5,851.6406 L659.5,851.6406 L659.5,802.6406 L649.5,792.6406 L572.5,792.6406 " fill="#FBFB77" filter="url(#fau4fu1mz0yy3)" style="stroke:#A80036;stroke-width:1.0;"/><path d="M649.5,792.6406 L649.5,802.6406 L659.5,802.6406 L649.5,792.6406 " fill="#FBFB77" style="stroke:#A80036;stroke-width:1.0;"/><text fill="#000000" font-family="sans-serif" font-size="13" lengthAdjust="spacing" textLength="55" x="578.5" y="811.1357">ReadMap</text><text fill="#000000" font-family="sans-serif" font-size="13" lengthAdjust="spacing" textLength="66" x="578.5" y="827.4873">UpdateMap</text><text fill="#000000" font-family="sans-serif" font-size="13" lengthAdjust="spacing" textLength="62" x="578.5" y="843.8389">DeleteMap</text><!--MD5=[84e5dabd7f4d2038add9115a268f9b39]
link MAP_CREATED to STATS_GENERATED--><path d="M498.07,849.2706 C525.15,872.4706 568.75,907.3706 611,930.6406 C632.77,942.6306 657.58,953.1506 680.71,961.7906 " fill="none" id="MAP_CREATED-to-STATS_GENERATED" style="stroke:#A80036;stroke-width:1.0;"/><polygon fill="#A80036" points="685.62,963.6006,678.5539,956.7399,680.9273,961.8747,675.7925,964.2482,685.62,963.6006" style="stroke:#A80036;stroke-width:1.0;"/><path d="M616,895.6406 L616,921.6406 L700,921.6406 L700,905.6406 L690,895.6406 L616,895.6406 " fill="#FBFB77" filter="url(#fau4fu1mz0yy3)" style="stroke:#A80036;stroke-width:1.0;"/><path d="M690,895.6406 L690,905.6406 L700,905.6406 L690,895.6406 " fill="#FBFB77" style="stroke:#A80036;stroke-width:1.0;"/><text fill="#000000" font-family="sans-serif" font-size="13" lengthAdjust="spacing" textLength="63" x="622" y="914.1357">ShowState</text><!--MD5=[766a1363d58e32be58d8c32e0be58eab]
link OPENED_APPLICATION to SENSOR_CREATED--><path d="M460.93,309.7506 C473.06,318.0606 485.53,328.1906 495,339.6406 C561.86,420.4606 601.06,541.5206 616.43,596.7606 " fill="none" id="OPENED_APPLICATION-to-SENSOR_CREATED" style="stroke:#A80036;stroke-width:1.0;"/><polygon fill="#A80036" points="617.85,601.9006,619.3191,592.1619,616.5236,597.0798,611.6057,594.2843,617.85,601.9006" style="stroke:#A80036;stroke-width:1.0;"/><path d="M580,431.1406 L580,457.1406 L680,457.1406 L680,441.1406 L670,431.1406 L580,431.1406 " fill="#FBFB77" filter="url(#fau4fu1mz0yy3)" style="stroke:#A80036;stroke-width:1.0;"/><path d="M670,431.1406 L670,441.1406 L680,441.1406 L670,431.1406 " fill="#FBFB77" style="stroke:#A80036;stroke-width:1.0;"/><text fill="#000000" font-family="sans-serif" font-size="13" lengthAdjust="spacing" textLength="79" x="586" y="449.6357">CreateSensor</text><!--MD5=[a190cf97c4f7354415dda548de13690d]
link SENSOR_CREATED to SENSOR_CREATED--><path d="M699.66,609.6806 C719.5,610.7206 734.5,616.5406 734.5,627.1406 C734.5,636.8306 721.97,642.5306 704.66,644.2206 " fill="none" id="SENSOR_CREATED-to-SENSOR_CREATED" style="stroke:#A80036;stroke-width:1.0;"/><polygon fill="#A80036" points="699.66,644.6006,708.9323,647.9209,704.6462,644.2292,708.338,639.943,699.66,644.6006" style="stroke:#A80036;stroke-width:1.0;"/><path d="M739.5,587.6406 L739.5,662.6406 L842.5,662.6406 L842.5,597.6406 L832.5,587.6406 L739.5,587.6406 " fill="#FBFB77" filter="url(#fau4fu1mz0yy3)" style="stroke:#A80036;stroke-width:1.0;"/><path d="M832.5,587.6406 L832.5,597.6406 L842.5,597.6406 L832.5,587.6406 " fill="#FBFB77" style="stroke:#A80036;stroke-width:1.0;"/><text fill="#000000" font-family="sans-serif" font-size="13" lengthAdjust="spacing" textLength="71" x="745.5" y="606.1357">ReadSensor</text><text fill="#000000" font-family="sans-serif" font-size="13" lengthAdjust="spacing" textLength="82" x="745.5" y="622.4873">UpdateSensor</text><text fill="#000000" font-family="sans-serif" font-size="13" lengthAdjust="spacing" textLength="78" x="745.5" y="638.8389">DeleteSensor</text><text fill="#000000" font-family="sans-serif" font-size="13" lengthAdjust="spacing" textLength="71" x="745.5" y="655.1904">MoveSensor</text><!--MD5=[92b3523958754127b757e700955aac7e]
link COMPANY_CREATED to *end--><path d="M168.75,469.7406 C97.77,495.0206 6,543.6606 6,626.1406 C6,626.1406 6,626.1406 6,989.6406 C6,1125.2506 250.29,1127.8906 314.63,1126.2406 " fill="none" id="COMPANY_CREATED-to-*end" style="stroke:#A80036;stroke-width:1.0;"/><polygon fill="#A80036" points="319.95,1126.0806,310.8394,1122.3393,314.952,1126.2234,311.0679,1130.336,319.95,1126.0806" style="stroke:#A80036;stroke-width:1.0;"/><path d="M11,809.1406 L11,835.1406 L188,835.1406 L188,819.1406 L178,809.1406 L11,809.1406 " fill="#FBFB77" filter="url(#fau4fu1mz0yy3)" style="stroke:#A80036;stroke-width:1.0;"/><path d="M178,809.1406 L178,819.1406 L188,819.1406 L178,809.1406 " fill="#FBFB77" style="stroke:#A80036;stroke-width:1.0;"/><text fill="#000000" font-family="sans-serif" font-size="13" lengthAdjust="spacing" textLength="156" x="17" y="827.6357">Logout (not on this version)</text><!--MD5=[6422ae0d995ab2236496d8f2a215ac8d]
link HEADQUARTER_CREATED to *end--><path d="M245.69,652.4106 C237.29,704.2206 221.39,829.1706 243,930.6406 C258.68,1004.2906 304.26,1083.8406 322.41,1113.5506 " fill="none" id="HEADQUARTER_CREATED-to-*end" style="stroke:#A80036;stroke-width:1.0;"/><polygon fill="#A80036" points="325.08,1117.8806,323.7789,1108.1181,322.4635,1113.6199,316.9617,1112.3045,325.08,1117.8806" style="stroke:#A80036;stroke-width:1.0;"/><path d="M248,895.6406 L248,921.6406 L425,921.6406 L425,905.6406 L415,895.6406 L248,895.6406 " fill="#FBFB77" filter="url(#fau4fu1mz0yy3)" style="stroke:#A80036;stroke-width:1.0;"/><path d="M415,895.6406 L415,905.6406 L425,905.6406 L415,895.6406 " fill="#FBFB77" style="stroke:#A80036;stroke-width:1.0;"/><text fill="#000000" font-family="sans-serif" font-size="13" lengthAdjust="spacing" textLength="156" x="254" y="914.1357">Logout (not on this version)</text><!--MD5=[400d723ceed96febb9ed112b19b71649]
link MAP_CREATED to *end--><path d="M466.22,849.1806 C461.46,870.9406 453.25,903.6406 442,930.6406 C411.5,1003.8406 358.88,1083.6506 338.45,1113.4906 " fill="none" id="MAP_CREATED-to-*end" style="stroke:#A80036;stroke-width:1.0;"/><polygon fill="#A80036" points="335.46,1117.8406,343.8587,1112.6965,338.2957,1113.7225,337.2697,1108.1595,335.46,1117.8406" style="stroke:#A80036;stroke-width:1.0;"/><path d="M434,973.6406 L434,999.6406 L611,999.6406 L611,983.6406 L601,973.6406 L434,973.6406 " fill="#FBFB77" filter="url(#fau4fu1mz0yy3)" style="stroke:#A80036;stroke-width:1.0;"/><path d="M601,973.6406 L601,983.6406 L611,983.6406 L601,973.6406 " fill="#FBFB77" style="stroke:#A80036;stroke-width:1.0;"/><text fill="#000000" font-family="sans-serif" font-size="13" lengthAdjust="spacing" textLength="156" x="440" y="992.1357">Logout (not on this version)</text><!--MD5=[84e0b3b84ec07514403377676cd4d02e]
link SENSOR_CREATED to STATS_GENERATED--><path d="M664.74,652.3206 C682.31,664.8406 701.45,681.7006 713,701.6406 C761.44,785.2506 764.8,904.1306 763.44,958.4906 " fill="none" id="SENSOR_CREATED-to-STATS_GENERATED" style="stroke:#A80036;stroke-width:1.0;"/><polygon fill="#A80036" points="763.29,963.5406,767.5454,954.6585,763.4328,958.5427,759.5487,954.4301,763.29,963.5406" style="stroke:#A80036;stroke-width:1.0;"/><path d="M764,809.1406 L764,835.1406 L848,835.1406 L848,819.1406 L838,809.1406 L764,809.1406 " fill="#FBFB77" filter="url(#fau4fu1mz0yy3)" style="stroke:#A80036;stroke-width:1.0;"/><path d="M838,809.1406 L838,819.1406 L848,819.1406 L838,809.1406 " fill="#FBFB77" style="stroke:#A80036;stroke-width:1.0;"/><text fill="#000000" font-family="sans-serif" font-size="13" lengthAdjust="spacing" textLength="63" x="770" y="827.6357">ShowState</text><!--MD5=[6c381b58f855640708fa6bdf546f8cce]
link SENSOR_CREATED to MAP_CREATED--><path d="M602.97,652.3506 C590.8,666.5406 575.3,684.9106 562,701.6406 C537.04,733.0306 509.59,770.0406 491.44,794.9006 " fill="none" id="SENSOR_CREATED-to-MAP_CREATED" style="stroke:#A80036;stroke-width:1.0;"/><polygon fill="#A80036" points="488.38,799.0806,496.9188,794.1727,491.3294,795.0431,490.4589,789.4537,488.38,799.0806" style="stroke:#A80036;stroke-width:1.0;"/><path d="M567,706.6406 L567,748.6406 L700,748.6406 L700,716.6406 L690,706.6406 L567,706.6406 " fill="#FBFB77" filter="url(#fau4fu1mz0yy3)" style="stroke:#A80036;stroke-width:1.0;"/><path d="M690,706.6406 L690,716.6406 L700,716.6406 L690,706.6406 " fill="#FBFB77" style="stroke:#A80036;stroke-width:1.0;"/><text fill="#000000" font-family="sans-serif" font-size="13" lengthAdjust="spacing" textLength="103" x="573" y="725.1357">AddSensorToMap</text><text fill="#000000" font-family="sans-serif" font-size="13" lengthAdjust="spacing" textLength="112" x="573" y="741.4873">AddSensorToStock</text><!--MD5=[b0a3cebe3f57c0fa4cb413997934ee30]
link STATS_GENERATED to STATS_GENERATED--><path d="M841.12,974.2006 C861.06,975.1806 876,979.9906 876,988.6406 C876,996.5406 863.52,1001.2406 846.14,1002.7406 " fill="none" id="STATS_GENERATED-to-STATS_GENERATED" style="stroke:#A80036;stroke-width:1.0;"/><polygon fill="#A80036" points="841.12,1003.0806,850.3636,1006.4801,846.1092,1002.7518,849.8375,998.4974,841.12,1003.0806" style="stroke:#A80036;stroke-width:1.0;"/><path d="M881,965.6406 L881,1007.6406 L963,1007.6406 L963,975.6406 L953,965.6406 L881,965.6406 " fill="#FBFB77" filter="url(#fau4fu1mz0yy3)" style="stroke:#A80036;stroke-width:1.0;"/><path d="M953,965.6406 L953,975.6406 L963,975.6406 L953,965.6406 " fill="#FBFB77" style="stroke:#A80036;stroke-width:1.0;"/><text fill="#000000" font-family="sans-serif" font-size="13" lengthAdjust="spacing" textLength="61" x="887" y="984.1357">SendState</text><text fill="#000000" font-family="sans-serif" font-size="13" lengthAdjust="spacing" textLength="58" x="887" y="1000.4873">PrintState</text><!--MD5=[47909c42bd19c15bba265428d18a2733]
link STATS_GENERATED to *end--><path d="M697.96,1013.6506 C641.73,1034.3106 557.52,1064.2306 483,1086.6406 C432.8,1101.7406 372.21,1116.0406 344.78,1122.3106 " fill="none" id="STATS_GENERATED-to-*end" style="stroke:#A80036;stroke-width:1.0;"/><polygon fill="#A80036" points="339.75,1123.4606,349.4141,1125.3592,344.6248,1122.3488,347.6352,1117.5595,339.75,1123.4606" style="stroke:#A80036;stroke-width:1.0;"/><path d="M603,1051.6406 L603,1077.6406 L780,1077.6406 L780,1061.6406 L770,1051.6406 L603,1051.6406 " fill="#FBFB77" filter="url(#fau4fu1mz0yy3)" style="stroke:#A80036;stroke-width:1.0;"/><path d="M770,1051.6406 L770,1061.6406 L780,1061.6406 L770,1051.6406 " fill="#FBFB77" style="stroke:#A80036;stroke-width:1.0;"/><text fill="#000000" font-family="sans-serif" font-size="13" lengthAdjust="spacing" textLength="156" x="609" y="1070.1357">Logout (not on this version)</text><!--MD5=[90bde31f7b7fad346e8ead6e79bf67de]
@startuml
title UseCaseContext

state INITIAL
state OPENED_APPLICATION
state COMPANY_CREATED
state HEADQUARTER_CREATED
state MAP_CREATED
state SENSOR_CREATED
state STATS_GENERATED

[*] - -> INITIAL

INITIAL - -> OPENED_APPLICATION
note on link
    Login (not on this version)
end note

OPENED_APPLICATION - -> COMPANY_CREATED
    note on link
        CreateCompany
    end note
COMPANY_CREATED - -> COMPANY_CREATED
note on link
    ReadCompany
    UpdateCompany
    DeleteCompany
end note

COMPANY_CREATED - -> HEADQUARTER_CREATED
    note on link
        CreateHeadquarter
    end note

HEADQUARTER_CREATED - -> HEADQUARTER_CREATED
    note on link
        ReadHeadquarter
        UpdateHeadquarter
        DeleteHeadquarter
    end note

HEADQUARTER_CREATED - -> MAP_CREATED
    note on link
        CreateMap
    end note

MAP_CREATED - -> MAP_CREATED
    note on link
        ReadMap
        UpdateMap
        DeleteMap
    end note

MAP_CREATED - -> STATS_GENERATED
    note on link
        ShowState
    end note

OPENED_APPLICATION - -> SENSOR_CREATED
    note on link
        CreateSensor
    end note

SENSOR_CREATED - -> SENSOR_CREATED
    note on link
        ReadSensor
        UpdateSensor
        DeleteSensor
        MoveSensor
    end note

COMPANY_CREATED - -> [*]
      note on link
          Logout (not on this version)
      end note

HEADQUARTER_CREATED - -> [*]
      note on link
          Logout (not on this version)
      end note

MAP_CREATED - -> [*]
      note on link
          Logout (not on this version)
      end note

SENSOR_CREATED - -> STATS_GENERATED
    note on link
        ShowState
    end note


SENSOR_CREATED - -> MAP_CREATED
    note on link
        AddSensorToMap
        AddSensorToStock
    end note

STATS_GENERATED - -> STATS_GENERATED
    note on link
        SendState
        PrintState
    end note

STATS_GENERATED - -> [*]
      note on link
          Logout (not on this version)
      end note
@enduml

PlantUML version 1.2022.1(Tue Feb 01 19:19:58 CET 2022)
(GPL source distribution)
Java Runtime: OpenJDK Runtime Environment
JVM: OpenJDK 64-Bit Server VM
Default Encoding: Cp1252
Language: es
Country: ES
--></g></svg>